<?xml version="1.0" encoding="UTF-8"?>
<svg version="1.1" xmlns="http://www.w3.org/2000/svg" width="48" height="48">
<path d="M0 0 C2.4375 0.375 2.4375 0.375 5 1 C5.33 1.66 5.66 2.32 6 3 C5.22265625 4.7265625 5.22265625 4.7265625 4.0625 6.625 C3.381875 7.73875 2.70125 8.8525 2 10 C3.24136719 10.18369141 3.24136719 10.18369141 4.5078125 10.37109375 C8.3596021 11.06476056 12.10444874 12.02852131 15.875 13.0625 C16.56335938 13.24876953 17.25171875 13.43503906 17.9609375 13.62695312 C19.64132514 14.08205811 21.32076322 14.54066678 23 15 C21.546875 17.046875 21.546875 17.046875 19 19 C16.01593404 19.22115413 13.19160842 18.73782892 10.25 18.25 C9.06083984 18.07984375 9.06083984 18.07984375 7.84765625 17.90625 C5.89546615 17.62400565 3.94723474 17.31461871 2 17 C2.05414063 17.94488281 2.10828125 18.88976562 2.1640625 19.86328125 C2.10992187 20.89839844 2.05578125 21.93351562 2 23 C-0.625 25.1875 -0.625 25.1875 -4 27 C-5.5778125 27.8971875 -5.5778125 27.8971875 -7.1875 28.8125 C-10 30 -10 30 -13 29 C-11.875 26.0625 -11.875 26.0625 -10 23 C-6.8125 22.125 -6.8125 22.125 -4 22 C-4.33 21.175 -4.66 20.35 -5 19.5 C-6.16782809 15.4126017 -6.1458885 12.23076656 -6 8 C-6.598125 8.515625 -7.19625 9.03125 -7.8125 9.5625 C-8.534375 10.036875 -9.25625 10.51125 -10 11 C-10.99 10.67 -11.98 10.34 -13 10 C-11.2262164 7.08917564 -9.42952606 4.40317545 -7 2 C-3.125 1.5 -3.125 1.5 0 2 C0 1.34 0 0.68 0 0 Z M1 2 C1 2.66 1 3.32 1 4 C-0.98 4 -2.96 4 -5 4 C-4.34 4.66 -3.68 5.32 -3 6 C-3.33 6.66 -3.66 7.32 -4 8 C-4.13213738 11.96412154 -4.08952727 15.46283638 -3.4375 19.375 C-3 22 -3 22 -4 24 C-2.68 23.67 -1.36 23.34 0 23 C0 20.69 0 18.38 0 16 C6.435 15.505 6.435 15.505 13 15 C13 14.67 13 14.34 13 14 C8.71 13.01 4.42 12.02 0 11 C1.32 8.03 2.64 5.06 4 2 C3.01 2 2.02 2 1 2 Z " fill="#FFFFFF" transform="translate(16,9)"/>
<path d="M0 0 C1.65 0.33 3.3 0.66 5 1 C5.33 1.99 5.66 2.98 6 4 C5.01 4.99 4.02 5.98 3 7 C1.68 6.34 0.36 5.68 -1 5 C-0.67 3.35 -0.34 1.7 0 0 Z M1 2 C1 2.99 1 3.98 1 5 C1.66 5 2.32 5 3 5 C3 4.01 3 3.02 3 2 C2.34 2 1.68 2 1 2 Z " fill="#FFFFFF" transform="translate(39,17)"/>
</svg>
