<?xml version="1.0" encoding="UTF-8"?>
<svg version="1.1" xmlns="http://www.w3.org/2000/svg" width="300" height="300">
<path d="M0 0 C1.58206057 0.00667536 3.16410534 0.0186375 4.74609375 0.03515625 C5.55240234 0.03966797 6.35871094 0.04417969 7.18945312 0.04882812 C9.18753131 0.06065107 11.18557158 0.07858711 13.18359375 0.09765625 C13.63629639 1.33515625 13.63629639 1.33515625 14.09814453 2.59765625 C15.24607892 5.73467254 16.39466209 8.87145002 17.54354858 12.00811768 C18.30542972 14.08901446 19.06641765 16.17023652 19.82739258 18.25146484 C22.99188599 26.8990495 22.99188599 26.8990495 26.25 35.51171875 C26.53149902 36.24519531 26.81299805 36.97867188 27.10302734 37.734375 C27.81561014 39.57902672 28.53636925 41.42051429 29.2578125 43.26171875 C30.18359375 46.09765625 30.18359375 46.09765625 30.18359375 50.09765625 C24.90359375 50.09765625 19.62359375 50.09765625 14.18359375 50.09765625 C13.52359375 48.44765625 12.86359375 46.79765625 12.18359375 45.09765625 C6.90359375 45.09765625 1.62359375 45.09765625 -3.81640625 45.09765625 C-4.80640625 47.57265625 -4.80640625 47.57265625 -5.81640625 50.09765625 C-11.09640625 50.09765625 -16.37640625 50.09765625 -21.81640625 50.09765625 C-19.89076794 43.53033482 -17.81542869 37.06280103 -15.49609375 30.625 C-15.03990158 29.3513131 -15.03990158 29.3513131 -14.57449341 28.05189514 C-13.93880918 26.27933259 -13.30182493 24.50723575 -12.66357422 22.7355957 C-11.6830807 20.01202997 -10.70850258 17.28639509 -9.734375 14.56054688 C-9.11363193 12.83190528 -8.4925507 11.10338508 -7.87109375 9.375 C-7.57943329 8.55845444 -7.28777283 7.74190887 -6.98727417 6.90061951 C-4.53496929 0.11604323 -4.53496929 0.11604323 0 0 Z M3.18359375 17.09765625 C1.86359375 22.37765625 0.54359375 27.65765625 -0.81640625 33.09765625 C2.48359375 33.09765625 5.78359375 33.09765625 9.18359375 33.09765625 C8.14528268 27.60944059 7.11940681 22.35200598 5.18359375 17.09765625 C4.52359375 17.09765625 3.86359375 17.09765625 3.18359375 17.09765625 Z " fill="#FFFFFF" transform="translate(194.81640625,49.90234375)"/>
<path d="M0 0 C12.87 0 25.74 0 39 0 C36 10 36 10 35 12 C28.73 12 22.46 12 16 12 C16 14.97 16 17.94 16 21 C20.95 21 25.9 21 31 21 C30 27 30 27 28 32 C24.04 32 20.08 32 16 32 C16 37.94 16 43.88 16 50 C10.72 50 5.44 50 0 50 C0 33.5 0 17 0 0 Z " fill="#FFFFFF" transform="translate(143,50)"/>
<path d="M0 0 C12.54 0 25.08 0 38 0 C37 6 37 6 34 12 C28.06 12 22.12 12 16 12 C16 14.97 16 17.94 16 21 C20.95 21 25.9 21 31 21 C28.125 30.875 28.125 30.875 27 32 C23.3308423 32.14310287 19.67284559 32.04221662 16 32 C16 37.94 16 43.88 16 50 C10.72 50 5.44 50 0 50 C0 33.5 0 17 0 0 Z " fill="#FFFFFF" transform="translate(75,50)"/>
<path d="M0 0 C5.28 0 10.56 0 16 0 C16 16.5 16 33 16 50 C10.72 50 5.44 50 0 50 C0 33.5 0 17 0 0 Z " fill="#FFFFFF" transform="translate(117,50)"/>
</svg>
