<?xml version="1.0" encoding="UTF-8"?>
<svg version="1.1" xmlns="http://www.w3.org/2000/svg" width="241" height="241">
<path d="M0 0 C1.35444466 0.01485695 1.35444466 0.01485695 2.73625183 0.03001404 C5.6109998 0.06909843 8.48188195 0.15690269 11.35546875 0.24609375 C13.30788743 0.2812156 15.26036616 0.31315308 17.21289062 0.34179688 C21.99106534 0.4188404 26.76636248 0.53957706 31.54296875 0.68359375 C31.54296875 4.75639245 31.25202127 5.68102623 29.16796875 8.93359375 C28.50667969 9.99320313 28.50667969 9.99320313 27.83203125 11.07421875 C27.40664062 11.6053125 26.98125 12.13640625 26.54296875 12.68359375 C25.88296875 12.68359375 25.22296875 12.68359375 24.54296875 12.68359375 C24.23359375 13.46734375 23.92421875 14.25109375 23.60546875 15.05859375 C22.54296875 17.68359375 22.54296875 17.68359375 21.54296875 19.68359375 C20.88296875 19.68359375 20.22296875 19.68359375 19.54296875 19.68359375 C19.31609375 20.34359375 19.08921875 21.00359375 18.85546875 21.68359375 C17.15508725 25.57018003 15.14673791 29.32039192 12.54296875 32.68359375 C11.88296875 32.68359375 11.22296875 32.68359375 10.54296875 32.68359375 C10.27097656 33.42222656 9.99898438 34.16085938 9.71875 34.921875 C8.60057166 37.54829389 7.39205002 39.56170611 5.73046875 41.87109375 C5.11558594 42.73089844 4.50070313 43.59070312 3.8671875 44.4765625 C2.71669922 46.06404297 2.71669922 46.06404297 1.54296875 47.68359375 C0.50760776 49.11703964 -0.52753152 50.55064568 -1.5625 51.984375 C-3.23059842 54.29484672 -4.89966948 56.60455563 -6.57348633 58.91088867 C-10.59755662 64.46168988 -14.52382886 70.06473319 -18.45703125 75.68359375 C-2.12203125 76.17859375 -2.12203125 76.17859375 14.54296875 76.68359375 C15.20296875 75.03359375 15.86296875 73.38359375 16.54296875 71.68359375 C18.16781652 69.34223325 19.81685267 67.07198757 21.54296875 64.80859375 C26.07326061 58.77852532 30.32541413 52.62349815 34.36914062 46.25634766 C35.37760281 44.69891746 36.45407175 43.18588804 37.54296875 41.68359375 C38.20296875 41.68359375 38.86296875 41.68359375 39.54296875 41.68359375 C39.74921875 41.03132813 39.95546875 40.3790625 40.16796875 39.70703125 C42.08569784 35.49020648 44.78507326 32.01403544 47.54296875 28.30859375 C53.45657518 20.25238825 59.06978252 12.04324736 64.54296875 3.68359375 C65.20296875 2.69359375 65.86296875 1.70359375 66.54296875 0.68359375 C68.52981567 0.3228302 68.52981567 0.3228302 70.99267578 0.34301758 C71.91347931 0.34324417 72.83428284 0.34347076 73.7829895 0.34370422 C75.27679642 0.36693001 75.27679642 0.36693001 76.80078125 0.390625 C77.81896942 0.39486984 78.83715759 0.39911469 79.88619995 0.40348816 C83.14705548 0.42031796 86.40729916 0.45797829 89.66796875 0.49609375 C91.87499109 0.51113501 94.08202309 0.52482438 96.2890625 0.53710938 C101.70724098 0.57023545 107.12506117 0.62047722 112.54296875 0.68359375 C112.54296875 4.82627842 112.42755725 5.33573535 110.12109375 8.4140625 C109.59668701 9.12522217 109.07228027 9.83638184 108.53198242 10.5690918 C107.95810791 11.32875244 107.3842334 12.08841309 106.79296875 12.87109375 C105.58509845 14.50589082 104.37808527 16.14132147 103.171875 17.77734375 C102.55973145 18.60234375 101.94758789 19.42734375 101.31689453 20.27734375 C98.73888217 23.77430079 96.2289205 27.31704291 93.73046875 30.87109375 C93.24989014 31.55341064 92.76931152 32.23572754 92.27416992 32.9387207 C88.03451943 38.966963 83.81787432 45.01129373 79.60546875 51.05859375 C78.93265869 52.0237793 78.25984863 52.98896484 77.56665039 53.98339844 C74.24521835 58.75858189 70.94919728 63.54821707 67.703125 68.375 C67.10556396 69.26074707 66.50800293 70.14649414 65.89233398 71.05908203 C64.76474701 72.73441797 63.64291094 74.41364268 62.52758789 76.09716797 C62.0299292 76.83596191 61.53227051 77.57475586 61.01953125 78.3359375 C60.58721191 78.98554443 60.15489258 79.63515137 59.70947266 80.30444336 C59.32452637 80.75956299 58.93958008 81.21468262 58.54296875 81.68359375 C57.88296875 81.68359375 57.22296875 81.68359375 56.54296875 81.68359375 C56.31480469 82.35648437 56.08664063 83.029375 55.8515625 83.72265625 C54.18193733 87.50049469 51.97181597 90.68600566 49.60546875 94.05859375 C49.12182861 94.7554126 48.63818848 95.45223145 48.13989258 96.17016602 C44.32580142 101.63709164 40.41236015 107.02953446 36.42407227 112.37060547 C32.94458288 117.04943656 29.79263019 121.80910159 26.54296875 126.68359375 C38.42296875 127.01359375 50.30296875 127.34359375 62.54296875 127.68359375 C62.54296875 128.67359375 62.54296875 129.66359375 62.54296875 130.68359375 C61.39183594 131.21726563 60.24070312 131.7509375 59.0546875 132.30078125 C50.63938302 136.22935224 42.30546715 140.25898823 34.10546875 144.62109375 C30.91832575 146.30926844 27.73075853 147.99664072 24.54296875 149.68359375 C23.20709717 150.39225586 23.20709717 150.39225586 21.84423828 151.11523438 C19.12631591 152.54880049 16.39862865 153.96197043 13.66796875 155.37109375 C12.82951416 155.81767334 11.99105957 156.26425293 11.12719727 156.72436523 C7.9335289 158.35661209 5.40700208 159.62936056 1.8046875 159.85546875 C-1.61365418 158.08430726 -3.56521361 155.29948188 -5.76953125 152.24609375 C-6.22392578 151.64732422 -6.67832031 151.04855469 -7.14648438 150.43164062 C-10.45703125 145.98604911 -10.45703125 145.98604911 -10.45703125 143.68359375 C-11.11703125 143.68359375 -11.77703125 143.68359375 -12.45703125 143.68359375 C-17.26527138 136.88336842 -18.79947519 130.96560676 -17.45703125 122.68359375 C-15.37135352 116.55912482 -11.79406265 111.48335396 -7.80859375 106.4453125 C-6.29115952 104.54399021 -6.29115952 104.54399021 -4.70703125 101.68359375 C-4.08828125 100.69359375 -4.08828125 100.69359375 -3.45703125 99.68359375 C-2.79703125 99.68359375 -2.13703125 99.68359375 -1.45703125 99.68359375 C-1.22242188 98.99910156 -0.9878125 98.31460938 -0.74609375 97.609375 C0.81969498 94.05550906 2.9234935 91.01686609 5.16796875 87.87109375 C5.58820313 87.27361328 6.0084375 86.67613281 6.44140625 86.06054688 C7.47076603 84.5983881 8.50625105 83.14054476 9.54296875 81.68359375 C0.74506418 85.41151942 -7.67001469 89.84666366 -16.14453125 94.24609375 C-18.37591237 95.40152256 -20.60766628 96.55622789 -22.83955383 97.7106781 C-24.21899255 98.42451359 -25.59807451 99.13903906 -26.97673035 99.85438538 C-28.22157708 100.49973456 -29.46829282 101.14149542 -30.71713257 101.77908325 C-32.38806857 102.64774254 -34.03242226 103.56696489 -35.67504883 104.48803711 C-38.45703125 105.68359375 -38.45703125 105.68359375 -40.65234375 105.56030273 C-42.77315297 104.53002325 -43.84328515 103.48169875 -45.33203125 101.65625 C-45.84096924 101.03371338 -46.34990723 100.41117676 -46.87426758 99.76977539 C-47.39657959 99.10196045 -47.9188916 98.43414551 -48.45703125 97.74609375 C-48.99158936 97.06603271 -49.52614746 96.38597168 -50.0769043 95.68530273 C-54.73091905 89.60249323 -58.997336 83.53966675 -58.45703125 75.55859375 C-56.52965106 66.88423289 -50.93877663 59.79074849 -45.89453125 52.68359375 C-44.45014314 50.62917174 -43.00613389 48.57448332 -41.5625 46.51953125 C-40.85915527 45.52147461 -40.15581055 44.52341797 -39.43115234 43.49511719 C-36.82694101 39.78622556 -34.26328968 36.05061239 -31.70703125 32.30859375 C-26.04259782 24.04016715 -20.26622918 15.85082122 -14.45703125 7.68359375 C-14.14335098 7.09832413 -13.82967072 6.5130545 -13.50648499 5.91004944 C-9.98376898 -0.09342968 -6.65422977 -0.27601095 0 0 Z " fill="#FFFFFF" transform="translate(95.45703125,-0.68359375)"/>
<path d="M0 0 C3.44317204 4.11267771 4.69814183 7.3097981 4.25 12.6875 C3.25 13.6875 3.25 13.6875 0.74609375 13.78515625 C-0.26324219 13.77355469 -1.27257812 13.76195312 -2.3125 13.75 C-3.32441406 13.74097656 -4.33632812 13.73195312 -5.37890625 13.72265625 C-6.55259766 13.70525391 -6.55259766 13.70525391 -7.75 13.6875 C-8.41 12.3675 -9.07 11.0475 -9.75 9.6875 C-14.04 9.6875 -18.33 9.6875 -22.75 9.6875 C-23.62686585 16.41934413 -23.87387197 22.9660368 -23.8125 29.75 C-23.80798828 30.71099609 -23.80347656 31.67199219 -23.79882812 32.66210938 C-23.78717726 35.00393383 -23.76924746 37.34572566 -23.75 39.6875 C-19.13 39.3575 -14.51 39.0275 -9.75 38.6875 C-9.42 36.3775 -9.09 34.0675 -8.75 31.6875 C-11.06 31.6875 -13.37 31.6875 -15.75 31.6875 C-16.9398306 29.3078388 -16.88349966 27.77264265 -16.875 25.125 C-16.87886719 23.91650391 -16.87886719 23.91650391 -16.8828125 22.68359375 C-16.75 20.6875 -16.75 20.6875 -15.75 19.6875 C-13.62880076 19.53556837 -11.50144685 19.46566486 -9.375 19.4375 C-8.21226562 19.41171875 -7.04953125 19.3859375 -5.8515625 19.359375 C-2.75 19.6875 -2.75 19.6875 -0.8359375 21.078125 C0.25 22.6875 0.25 22.6875 0.25 24.6875 C0.91 24.6875 1.57 24.6875 2.25 24.6875 C4.902632 29.28469092 4.75397058 33.50380257 4.25 38.6875 C2.51431472 44.56954456 0.15164069 47.28636156 -4.75 50.6875 C-11.55153903 53.13107352 -22.91369373 53.01911273 -29.5 50.1875 C-33.42328146 47.50448935 -35.38749019 44.18881038 -36.75 39.6875 C-37.2276496 35.18968608 -37.28483119 30.73925315 -37.21655273 26.22387695 C-37.18750918 24.12566296 -37.19598782 22.02997116 -37.20898438 19.93164062 C-37.17731666 13.05934025 -36.75067861 7.90322693 -33.75 1.6875 C-33.09 1.6875 -32.43 1.6875 -31.75 1.6875 C-31.75 1.0275 -31.75 0.3675 -31.75 -0.3125 C-22.40723938 -4.69787743 -8.82454019 -6.90710923 0 0 Z " fill="#FFFFFF" transform="translate(185.75,188.3125)"/>
<path d="M0 0 C5.94 0 11.88 0 18 0 C20.04413371 4.08826741 21.38761449 6.80716735 22.4296875 11.01953125 C22.6654248 11.951604 22.90116211 12.88367676 23.14404297 13.84399414 C23.38525879 14.82360107 23.62647461 15.80320801 23.875 16.8125 C25.88963719 24.80940211 28.00782416 32.7406877 30.52685547 40.5949707 C31.73864822 44.51350152 32.21465555 47.90260435 32 52 C28.18610442 53.79477439 25.21354337 54.37453719 21 54 C18.27893306 51.27893306 18.39344428 49.15223689 17.875 45.375 C17.70742187 44.18648437 17.53984375 42.99796875 17.3671875 41.7734375 C17.24601562 40.85820312 17.12484375 39.94296875 17 39 C16.02160156 39.39832031 16.02160156 39.39832031 15.0234375 39.8046875 C10.38732183 41.67827997 5.77169146 43.49315006 1 45 C0.87625 46.299375 0.7525 47.59875 0.625 48.9375 C0.4140625 51.15234375 0.4140625 51.15234375 0 53 C-2.24512262 54.12256131 -3.51456649 54.13413762 -6 54.125 C-7.051875 54.12886719 -7.051875 54.12886719 -8.125 54.1328125 C-10 54 -10 54 -12 53 C-12.32743717 46.34211094 -11.15537796 40.77135483 -9.375 34.375 C-9.10864746 33.38749756 -8.84229492 32.39999512 -8.56787109 31.38256836 C-7.72129248 28.25240966 -6.86088643 25.12625035 -6 22 C-5.42095515 19.86873929 -4.8428205 17.73723105 -4.265625 15.60546875 C-2.8542665 10.40072257 -1.43050099 5.199516 0 0 Z M9 12 C7.35 19.26 5.7 26.52 4 34 C7.63 34 11.26 34 15 34 C14.54537897 31.64506308 14.086405 29.29110915 13.625 26.9375 C13.49867188 26.28072266 13.37234375 25.62394531 13.2421875 24.94726562 C12.37615493 20.55215035 11.28373447 16.29213829 10 12 C9.67 12 9.34 12 9 12 Z " fill="#FFFFFF" transform="translate(204,186)"/>
<path d="M0 0 C5.94 0 11.88 0 18 0 C20.25574001 4.51148002 21.6820714 7.90663492 22.9375 12.65625 C23.27523437 13.92726562 23.61296875 15.19828125 23.9609375 16.5078125 C24.13206055 17.16555664 24.30318359 17.82330078 24.47949219 18.50097656 C24.99188954 20.46885156 25.51455578 22.43375978 26.0390625 24.3984375 C32.45887997 48.6233601 32.45887997 48.6233601 31 53 C28.77109005 54.11445498 27.46944894 54.16480286 25 54.1875 C24.29875 54.20167969 23.5975 54.21585938 22.875 54.23046875 C21 54 21 54 19 52 C18.3671875 49.9765625 18.3671875 49.9765625 17.875 47.625 C17.70742187 46.85414063 17.53984375 46.08328125 17.3671875 45.2890625 C17 43 17 43 17 39 C16.02160156 39.39832031 16.02160156 39.39832031 15.0234375 39.8046875 C10.38732183 41.67827997 5.77169146 43.49315006 1 45 C0.67 47.64 0.34 50.28 0 53 C-4.3164922 53.76173392 -7.74433453 54.16063604 -12 53 C-12.68339439 41.38229539 -8.56035775 30.31456226 -5.20605469 19.33984375 C-3.25264965 12.93169238 -1.54444229 6.52097854 0 0 Z M9 12 C8.16485498 15.47873439 7.3321874 18.95805701 6.5 22.4375 C6.26152344 23.43072266 6.02304687 24.42394531 5.77734375 25.44726562 C5.55175781 26.39150391 5.32617188 27.33574219 5.09375 28.30859375 C4.88427734 29.18314209 4.67480469 30.05769043 4.45898438 30.95874023 C3.96343731 32.81390245 3.96343731 32.81390245 4 34 C7.63 34 11.26 34 15 34 C13.73654179 26.51643983 12.11453104 19.28808366 10 12 C9.67 12 9.34 12 9 12 Z " fill="#FFFFFF" transform="translate(57,186)"/>
<path d="M0 0 C4.29 0 8.58 0 13 0 C13.33 13.53 13.66 27.06 14 41 C19.94 41.33 25.88 41.66 32 42 C33 43 33 43 33.09765625 45.28515625 C33.08605469 46.20167969 33.07445312 47.11820313 33.0625 48.0625 C33.05347656 48.98160156 33.04445312 49.90070313 33.03515625 50.84765625 C33.02355469 51.55792969 33.01195312 52.26820313 33 53 C28.14647218 54.61784261 23.26439721 54.19688527 18.1875 54.125 C16.56618164 54.15980469 16.56618164 54.15980469 14.91210938 54.1953125 C13.86216797 54.1746875 12.81222656 54.1540625 11.73046875 54.1328125 C10.77551514 54.13168457 9.82056152 54.13055664 8.83666992 54.12939453 C4.10906985 52.24714323 2.03776274 48.53729443 0 44 C-0.72562477 40.45884945 -0.70774054 37.09890871 -0.5859375 33.49609375 C-0.57744781 32.5322023 -0.56895813 31.56831085 -0.56021118 30.57521057 C-0.52690389 27.52811905 -0.45166926 24.48377723 -0.375 21.4375 C-0.34487102 19.35876246 -0.31750039 17.279983 -0.29296875 15.20117188 C-0.22718713 10.13307203 -0.12382544 5.06700045 0 0 Z " fill="#FFFFFF" transform="translate(92,186)"/>
<path d="M0 0 C4.29 0 8.58 0 13 0 C13.33 13.53 13.66 27.06 14 41 C20.27 41.33 26.54 41.66 33 42 C33 45.63 33 49.26 33 53 C28.60466852 53.17443566 24.21022734 53.28090701 19.8125 53.375 C18.56662109 53.42527344 17.32074219 53.47554687 16.03710938 53.52734375 C7.03944965 53.67207822 7.03944965 53.67207822 4.05615234 51.74316406 C0.88033314 48.04737446 -0.12709885 44.35749905 -0.11352539 39.62036133 C-0.11344986 38.73967484 -0.11337433 37.85898834 -0.11329651 36.95161438 C-0.10813522 36.00465195 -0.10297394 35.05768951 -0.09765625 34.08203125 C-0.0962413 33.10965012 -0.09482635 32.13726898 -0.09336853 31.13542175 C-0.08776817 28.02774996 -0.07521562 24.92015004 -0.0625 21.8125 C-0.05748505 19.70638125 -0.05292213 17.60026137 -0.04882812 15.49414062 C-0.03779862 10.32939936 -0.02053375 5.16471187 0 0 Z " fill="#FFFFFF" transform="translate(8,186)"/>
<path d="M0 0 C1.97909398 -0.02686553 3.95828971 -0.04633375 5.9375 -0.0625 C7.03964844 -0.07410156 8.14179688 -0.08570313 9.27734375 -0.09765625 C12 0 12 0 13 1 C13.10374958 2.58515578 13.13851889 4.17489466 13.14526367 5.76342773 C13.15483345 7.28521889 13.15483345 7.28521889 13.16459656 8.8377533 C13.16570938 9.94188065 13.1668222 11.046008 13.16796875 12.18359375 C13.17129715 13.30943375 13.17462555 14.43527374 13.17805481 15.5952301 C13.18312894 17.98185821 13.18546299 20.36849345 13.18530273 22.75512695 C13.18748851 26.41824974 13.2056374 30.08107122 13.22460938 33.74414062 C13.22754326 36.05729063 13.22952809 38.37044208 13.23046875 40.68359375 C13.23765427 41.78569687 13.24483978 42.88779999 13.25224304 44.02330017 C13.24916641 45.04097977 13.24608978 46.05865936 13.24291992 47.10717773 C13.24434494 48.00572983 13.24576996 48.90428192 13.24723816 49.83006287 C13 52 13 52 11 54 C8.65234375 54.23046875 8.65234375 54.23046875 5.9375 54.1875 C5.03902344 54.18105469 4.14054688 54.17460937 3.21484375 54.16796875 C1 54 1 54 0 53 C-0.15972055 50.9449036 -0.25164455 48.8844949 -0.31640625 46.82421875 C-0.35846191 45.52959717 -0.40051758 44.23497559 -0.44384766 42.90112305 C-0.4838227 41.49659404 -0.52336542 40.09205267 -0.5625 38.6875 C-0.58334656 37.98758942 -0.60419312 37.28767883 -0.62567139 36.56655884 C-0.88742311 27.77490661 -1.09752575 18.98342283 -1.125 10.1875 C-1.12959229 9.37176514 -1.13418457 8.55603027 -1.13891602 7.71557617 C-1.12398536 2.24797072 -1.12398536 2.24797072 0 0 Z " fill="#FFFFFF" transform="translate(130,186)"/>
</svg>
