<?xml version="1.0" encoding="UTF-8"?>
<svg version="1.1" xmlns="http://www.w3.org/2000/svg" width="216" height="300">
<path d="M0 0 C10.14327093 7.49416925 17.23376089 17.92616919 19.8359375 30.3515625 C21.89574318 46.02079858 19.99284571 60.69161417 10.2734375 73.6796875 C4.91837958 80.01119553 -1.14744348 85.19110384 -8.7265625 88.6796875 C-9.7165625 88.6796875 -10.7065625 88.6796875 -11.7265625 88.6796875 C-12.0565625 82.4096875 -12.3865625 76.1396875 -12.7265625 69.6796875 C-10.2515625 69.1846875 -10.2515625 69.1846875 -7.7265625 68.6796875 C-6.49954499 66.42996058 -6.49954499 66.42996058 -5.7265625 63.6796875 C-4.75908435 61.79862971 -3.77912137 59.92395896 -2.7890625 58.0546875 C0.96970855 50.57399611 4.49483352 43.08925814 2.2734375 34.6796875 C0.99105636 32.28609645 -0.28562993 30.10882688 -1.7890625 27.8671875 C-2.19390869 27.25987793 -2.59875488 26.65256836 -3.01586914 26.02685547 C-4.23385548 24.23045054 -5.47524009 22.45298721 -6.7265625 20.6796875 C-7.39429688 19.71933594 -8.06203125 18.75898437 -8.75 17.76953125 C-9.38164062 16.95613281 -10.01328125 16.14273438 -10.6640625 15.3046875 C-11.20933594 14.59570312 -11.75460938 13.88671875 -12.31640625 13.15625 C-18.88257564 9.13354007 -29.13176974 12.10973156 -36.3515625 13.1796875 C-37.85783203 13.39431641 -37.85783203 13.39431641 -39.39453125 13.61328125 C-41.83950458 13.96256315 -44.28338201 14.31811474 -46.7265625 14.6796875 C-46.97277344 15.46214844 -47.21898438 16.24460937 -47.47265625 17.05078125 C-49.38920112 22.59741734 -51.65984363 27.9980857 -53.89257812 33.42382812 C-54.24126953 34.28298828 -54.58996094 35.14214844 -54.94921875 36.02734375 C-55.26640869 36.80086182 -55.58359863 37.57437988 -55.91040039 38.37133789 C-57.35472038 42.45630514 -58.12788087 44.71435412 -56.42578125 48.80859375 C-49.28772616 61.20004931 -49.28772616 61.20004931 -39.7265625 71.6796875 C-36.5211011 72.10894555 -36.5211011 72.10894555 -33.7265625 71.6796875 C-32.46814304 78.42122033 -31.46251794 84.81452888 -31.7265625 91.6796875 C-46.61625796 88.71733971 -57.47309641 82.53460767 -66.578125 70.1640625 C-73.95566397 58.60712953 -76.49361128 44.40178011 -74.265625 30.8828125 C-70.72260574 16.46064 -63.32313171 5.35246758 -50.7890625 -2.7578125 C-34.42066838 -11.74388268 -15.50553171 -10.08612257 0 0 Z " fill="#FFFFFF" transform="translate(153.7265625,59.3203125)"/>
<path d="M0 0 C12.43391796 8.29552056 18.46776615 21.75376134 21.75 35.875 C24.90984515 53.06316866 24.92612761 73.96131871 15 89 C12.62124026 91.93846792 11.20655508 92.82388792 7.484375 93.3671875 C2.36752151 93.60485556 -2.09794838 93.37875797 -6.4296875 90.48046875 C-9.60439098 87.48740254 -11.97299423 83.84611351 -14 80 C-14 79.34 -14 78.68 -14 78 C-12.55367187 78.01740234 -12.55367187 78.01740234 -11.078125 78.03515625 C-9.18320312 78.04869141 -9.18320312 78.04869141 -7.25 78.0625 C-5.37054688 78.07990234 -5.37054688 78.07990234 -3.453125 78.09765625 C-0.71463499 78.02021027 1.41880293 77.82780815 4 77 C6.29421477 69.1341208 7.16357557 61.122968 8 53 C8.1340625 52.04867187 8.268125 51.09734375 8.40625 50.1171875 C9.42748517 38.19061964 1.11487642 26.03407944 -5.359375 16.58984375 C-7.09799417 14.53606302 -7.09799417 14.53606302 -11 15 C-12.93673291 15.60590527 -14.85364472 16.27757894 -16.75 17 C-18.22726563 17.556875 -18.22726563 17.556875 -19.734375 18.125 C-20.48203125 18.41375 -21.2296875 18.7025 -22 19 C-20.90091376 10.81370246 -17.8446004 5.42896793 -11.6875 -0.0625 C-7.46180023 -1.53658132 -4.22999018 -1.51931609 0 0 Z " fill="#FFFFFF" transform="translate(44,80)"/>
<path d="M0 0 C0.825 0.680625 1.65 1.36125 2.5 2.0625 C3.675625 2.866875 3.675625 2.866875 4.875 3.6875 C7.11545501 6.96201117 7.23477878 9.53408191 7.08984375 13.453125 C6.04460698 18.07708635 3.07850087 21.09496269 -0.5 24.0625 C-1.82 24.7225 -3.14 25.3825 -4.5 26.0625 C-4.5 21.7725 -4.5 17.4825 -4.5 13.0625 C-9.75471988 11.31092671 -14.45839147 10.27213465 -19.875 9.4375 C-20.68710938 9.3034375 -21.49921875 9.169375 -22.3359375 9.03125 C-37.17374835 6.70095278 -46.97132232 11.46469184 -59.78515625 18.609375 C-62.5 20.0625 -62.5 20.0625 -65.5 21.0625 C-65.21125 21.90554687 -64.9225 22.74859375 -64.625 23.6171875 C-64.25375 24.71289062 -63.8825 25.80859375 -63.5 26.9375 C-62.943125 28.57332031 -62.943125 28.57332031 -62.375 30.2421875 C-61.5 33.0625 -61.5 33.0625 -61.5 35.0625 C-68.3940263 33.89817556 -73.77943452 32.41786409 -78.375 26.75 C-79.85117243 23.22358808 -79.96618895 20.85861 -79.5 17.0625 C-74.88661453 8.02026448 -66.73595033 3.44372015 -57.5 0.0625 C-40.38932952 -5.2740402 -16.29709495 -10.10579663 0 0 Z " fill="#FFFFFF" transform="translate(155.5,168.9375)"/>
<path d="M0 0 C0 0.66 0 1.32 0 2 C0.66 2 1.32 2 2 2 C5.56593518 7.4974834 5.69932238 12.65753449 5 19 C3.19696037 23.60776793 -0.11963944 26.08972958 -4 29 C-9.23516726 30.74505575 -13.97166401 30.66668136 -19 28.5 C-19.99 28.005 -20.98 27.51 -22 27 C-22 26.34 -22 25.68 -22 25 C-22.66 25 -23.32 25 -24 25 C-27.0806668 21.0567465 -28 16.92870926 -28 12 C-27.06526816 6.98643833 -25.67321 3.57393406 -22 0 C-14.05079107 -4.43321267 -7.88177665 -3.94088832 0 0 Z " fill="#FFFFFF" transform="translate(139,87)"/>
<path d="M0 0 C0.66 0 1.32 0 2 0 C9.20054582 23.01603038 6.92224583 46.11768769 -3 68 C-5.00390625 71.4609375 -5.00390625 71.4609375 -7 74 C-7.99 74 -8.98 74 -10 74 C-18.42070847 57.15858306 -7.05840098 19.951659 -1.61328125 2.58203125 C-1 1 -1 1 0 0 Z " fill="#FFFFFF" transform="translate(192,91)"/>
<path d="M0 0 C3.0326544 1.58336482 4.64385449 2.99598795 6.23046875 6.03125 C6.41609375 6.77375 6.60171875 7.51625 6.79296875 8.28125 C4.04296875 9.90625 4.04296875 9.90625 0.79296875 11.28125 C-1.45703125 10.53125 -1.45703125 10.53125 -3.20703125 9.28125 C-6.03586872 7.86683126 -8.0807987 7.96224668 -11.20703125 8.28125 C-14.18698122 10.66520998 -14.22356826 12.41147894 -14.70703125 16.21875 C-14.56309893 19.56048288 -14.1276327 20.39914481 -12.14453125 23.34375 C-9.26174071 25.66033873 -9.26174071 25.66033873 -5.39453125 25.09375 C-4.34265625 24.825625 -3.29078125 24.5575 -2.20703125 24.28125 C-2.20703125 23.62125 -2.20703125 22.96125 -2.20703125 22.28125 C-4.18703125 21.95125 -6.16703125 21.62125 -8.20703125 21.28125 C-8.20703125 18.64125 -8.20703125 16.00125 -8.20703125 13.28125 C-2.59703125 13.28125 3.01296875 13.28125 8.79296875 13.28125 C9.0613831 19.18636569 9.20742945 23.21842896 5.79296875 28.28125 C1.68886378 32.75845542 -3.29382778 33.99130094 -9.20703125 34.28125 C-14.06245024 33.61391753 -17.86160759 32.11153811 -21.14453125 28.40625 C-24.5958692 23.17695007 -25.74330383 19.60926644 -25.20703125 13.28125 C-23.8027765 7.08600847 -21.41645474 3.86272865 -16.20703125 0.28125 C-11.06538892 -1.43263078 -5.19712497 -1.69251504 0 0 Z " fill="#FFFFFF" transform="translate(84.20703125,234.71875)"/>
<path d="M0 0 C2.20805524 -0.0544452 4.41650554 -0.09299283 6.625 -0.125 C7.85476562 -0.14820312 9.08453125 -0.17140625 10.3515625 -0.1953125 C13.94316041 -0.0030428 16.66661175 0.69741444 20 2 C18.99556933 5.28456161 17.84608706 6.09554546 14.87890625 7.9375 C13.44966007 8.64465136 12.00967363 9.33030142 10.5625 10 C9.75627197 10.37664795 8.95004395 10.7532959 8.11938477 11.14135742 C-0.58293789 15.04683983 -9.55601266 18.19445786 -18.5625 21.3125 C-19.28927948 21.56684814 -20.01605896 21.82119629 -20.76486206 22.08325195 C-28.98836965 24.94505158 -37.21824117 27.43393886 -45.71484375 29.35546875 C-46.82600304 29.60892815 -46.82600304 29.60892815 -47.95960999 29.86750793 C-52.03856976 30.7435181 -55.83062103 31.17264764 -60 31 C-59.432908 27.23349341 -57.86223321 25.45745882 -55.1875 22.8125 C-54.50042969 22.11769531 -53.81335937 21.42289063 -53.10546875 20.70703125 C-50.94848218 18.95823137 -49.73769378 18.2832097 -47 18 C-46.01 18.33 -45.02 18.66 -44 19 C-39.68595593 18.30139581 -35.47585978 17.10585627 -31.25 16 C-30.03038574 15.68329346 -28.81077148 15.36658691 -27.55419922 15.0402832 C-18.41160349 12.57619619 -10.36248898 9.38972759 -2 5 C-0.34262783 4.31055114 1.32102667 3.63503604 3 3 C2.01 2.01 1.02 1.02 0 0 Z " fill="#FFFFFF" transform="translate(103,28)"/>
<path d="M0 0 C2.97 0 5.94 0 9 0 C9.06058594 1.32515625 9.12117188 2.6503125 9.18359375 4.015625 C9.26801964 5.76042682 9.35266662 7.50521795 9.4375 9.25 C9.47681641 10.12269531 9.51613281 10.99539062 9.55664062 11.89453125 C9.61948242 13.16103516 9.61948242 13.16103516 9.68359375 14.453125 C9.72025146 15.22817383 9.75690918 16.00322266 9.79467773 16.80175781 C9.99603015 18.9574976 10.41729297 20.91801475 11 23 C14.97754128 23.73334429 14.97754128 23.73334429 19 24 C19.33 16.08 19.66 8.16 20 0 C22.97 0 25.94 0 29 0 C29.11662261 4.04142215 29.1873935 8.08240865 29.25 12.125 C29.30027344 13.83816406 29.30027344 13.83816406 29.3515625 15.5859375 C29.47673857 26.35107918 29.47673857 26.35107918 25 31 C20.42432672 34.28461194 14.36110005 33.60204867 9 33 C5.68542407 31.65898836 3.51833894 29.51833894 1 27 C-0.09099101 23.85140426 -0.11605664 20.89019492 -0.09765625 17.578125 C-0.09443359 16.55332031 -0.09121094 15.52851563 -0.08789062 14.47265625 C-0.07951172 13.40917969 -0.07113281 12.34570312 -0.0625 11.25 C-0.05798828 10.17105469 -0.05347656 9.09210938 -0.04882812 7.98046875 C-0.03705727 5.32025617 -0.02061399 2.66015635 0 0 Z " fill="#FFFFFF" transform="translate(105,235)"/>
<path d="M0 0 C4.5163793 1.40163496 5.4284754 3.04636553 7.6796875 7.01953125 C9.69743906 11.51361427 9.81604865 15.57756199 9.875 20.5 C9.90078125 21.78648437 9.9265625 23.07296875 9.953125 24.3984375 C9.60250999 28.38042225 8.72688711 30.75091805 6.625 34.125 C4.25 35.6875 4.25 35.6875 1.625 36.125 C-2.96516312 34.33371683 -5.08506746 31.38901231 -7.375 27.125 C-10.24660577 18.36416884 -10.2898576 10.53469411 -6.375 2.125 C-3.375 0.125 -3.375 0.125 0 0 Z " fill="#FFFFFF" transform="translate(29.375,110.875)"/>
<path d="M0 0 C6.27 0 12.54 0 19 0 C19 2.64 19 5.28 19 8 C15.7 8 12.4 8 9 8 C9 9.32 9 10.64 9 12 C11.97 12 14.94 12 18 12 C18 14.64 18 17.28 18 20 C15.03 20 12.06 20 9 20 C9 21.32 9 22.64 9 24 C12.3 24 15.6 24 19 24 C19 26.64 19 29.28 19 32 C12.73 32 6.46 32 0 32 C0 21.44 0 10.88 0 0 Z " fill="#FFFFFF" transform="translate(149,235)"/>
<path d="M0 0 C1 1 1 1 1.375 3.8125 C1 7 1 7 -1 9.1875 C-8.8803694 13.94855651 -18.38803871 16.48268223 -27.578125 14.421875 C-32.31676136 12.68323864 -32.31676136 12.68323864 -34 11 C-34.375 8.1875 -34.375 8.1875 -34 5 C-25.47009847 -4.04686526 -10.67219257 -5.55843363 0 0 Z " fill="#FFFFFF" transform="translate(139,190)"/>
<path d="M0 0 C2.97 0 5.94 0 9 0 C9 7.92 9 15.84 9 24 C12.3 24 15.6 24 19 24 C19 26.64 19 29.28 19 32 C12.73 32 6.46 32 0 32 C0 21.44 0 10.88 0 0 Z " fill="#FFFFFF" transform="translate(6,235)"/>
<path d="M0 0 C4.62 0 9.24 0 14 0 C14 10.56 14 21.12 14 32 C10.7 32 7.4 32 4 32 C4 24.08 4 16.16 4 8 C2.68 8 1.36 8 0 8 C0 5.36 0 2.72 0 0 Z " fill="#FFFFFF" transform="translate(199,235)"/>
<path d="M0 0 C3.3 0 6.6 0 10 0 C10 10.56 10 21.12 10 32 C6.7 32 3.4 32 0 32 C0 21.44 0 10.88 0 0 Z " fill="#FFFFFF" transform="translate(37,235)"/>
<path d="M0 0 C14.19638303 2.04283107 27.91012666 15.65269418 37 26 C39.59285491 29.51952664 42.10197859 33.05321181 44 37 C43.505 37.99 43.505 37.99 43 39 C36.07667071 33.59391096 29.47424307 27.93390412 23 22 C21.12572518 20.29087107 19.2507154 18.58254781 17.375 16.875 C16.46363281 16.04355469 15.55226562 15.21210937 14.61328125 14.35546875 C12.29159088 12.26282407 9.93762185 10.2189122 7.5625 8.1875 C4.67881521 5.68870127 2.25399991 3.09924987 0 0 Z " fill="#FFFFFF" transform="translate(142,35)"/>
<path d="M0 0 C0.33 0.66 0.66 1.32 1 2 C-23.84175084 14.38608305 -23.84175084 14.38608305 -31 12 C-21.6986294 5.49351239 -11.12770744 2.00169592 0 0 Z " fill="#FFFFFF" transform="translate(93,29)"/>
</svg>
