<?xml version="1.0" encoding="UTF-8"?>
<svg version="1.1" xmlns="http://www.w3.org/2000/svg" width="124" height="69">
<path d="M0 0 C0.99 0 1.98 0 3 0 C5 0 7 0 9 0 C9.0543251 3.02107902 9.09382927 6.04116528 9.125 9.0625 C9.14175781 9.91005859 9.15851563 10.75761719 9.17578125 11.63085938 C9.26828247 23.60976686 9.26828247 23.60976686 5.18359375 27.9140625 C1.25674282 29.8669508 -2.72551106 29.53862704 -7 29 C-10.125 27.5 -10.125 27.5 -12 26 C-11.34 24.68 -10.68 23.36 -10 22 C-6.33333333 22 -2.66666667 22 1 22 C1.33 21.34 1.66 20.68 2 20 C1.40832031 20.05800781 0.81664063 20.11601563 0.20703125 20.17578125 C-4.21828577 20.42845025 -6.31294805 20.50097538 -10 17.8125 C-12.05465755 14.92313782 -12.91427397 13.51476723 -13 10 C-12.24101867 6.28099147 -11.36927758 4.38979301 -8.75 1.625 C-5.51057543 -0.28920543 -3.70253633 -0.32195968 0 0 Z M-6 8 C-5.99077298 10.54713404 -5.99077298 10.54713404 -5 13 C-3.03241727 14.36020151 -3.03241727 14.36020151 -1 15 C0.32 13.68 1.64 12.36 3 11 C2.34 9.35 1.68 7.7 1 6 C-2.95457848 5.65176193 -2.95457848 5.65176193 -6 8 Z " fill="#000000" transform="translate(74,40)"/>
<path d="M0 0 C0.33 1.32 0.66 2.64 1 4 C1.680625 3.34 2.36125 2.68 3.0625 2 C6.78198762 -0.5324171 8.576184 -0.69849726 13 0 C15.77996657 1.37779045 16.8634814 2.55082014 19 5 C19.375 8.8125 19.375 8.8125 19 12 C13.06 12.495 13.06 12.495 7 13 C11.54607296 14.28547093 11.54607296 14.28547093 14.1875 13.4375 C14.785625 13.293125 15.38375 13.14875 16 13 C18 15 18 15 18 17 C17 19 17 19 14.375 20.3125 C9.52944328 21.29955785 5.82704826 21.20200544 1.625 18.4375 C-0.72095685 14.91856473 -0.7958722 12.21864118 -1 8 C-0.67 7.34 -0.34 6.68 0 6 C-1.65 6.66 -3.3 7.32 -5 8 C-5.33 11.96 -5.66 15.92 -6 20 C-7.98 20 -9.96 20 -12 20 C-12 13.73 -12 7.46 -12 1 C-10.02 1 -8.04 1 -6 1 C-4 0 -4 0 0 0 Z M7 6 C6.67 6.66 6.34 7.32 6 8 C8.31 8 10.62 8 13 8 C12.67 7.34 12.34 6.68 12 6 C10.35 6 8.7 6 7 6 Z " fill="#000000" transform="translate(33,9)"/>
<path d="M0 0 C2.30816714 0.18067845 4.57893166 0.51997751 6.87109375 0.84375 C9.05346605 1.18638525 9.05346605 1.18638525 11 0 C13.875 -0.375 13.875 -0.375 17 0 C20.10777188 2.90170098 20.94825082 4.50062038 21.390625 8.76953125 C21.36431837 10.11774585 21.31701804 11.46569518 21.25 12.8125 C21.23195313 13.50537109 21.21390625 14.19824219 21.1953125 14.91210938 C21.14851064 16.60867664 21.07677624 18.30452476 21 20 C19.02 20 17.04 20 15 20 C14.505 13.565 14.505 13.565 14 7 C13.01 7 12.02 7 11 7 C10.67 11.29 10.34 15.58 10 20 C8.02 20 6.04 20 4 20 C3.67 15.38 3.34 10.76 3 6 C2.01 6.33 1.02 6.66 0 7 C-0.33 11.29 -0.66 15.58 -1 20 C-2.98 20 -4.96 20 -7 20 C-7 13.73 -7 7.46 -7 1 C-5.02 1 -3.04 1 -1 1 C-0.67 0.67 -0.34 0.34 0 0 Z " fill="#000000" transform="translate(61,9)"/>
<path d="M0 0 C13 0 13 0 18 3 C20.32826375 6.21522137 20.39711181 9.10830425 20 13 C18.63717556 16.1560145 17.68648902 17.6103711 14.6875 19.3125 C11.69573139 20.07783616 9.07603375 20.14307134 6 20 C6 22.97 6 25.94 6 29 C4.02 29 2.04 29 0 29 C0 19.43 0 9.86 0 0 Z M6 6 C6 8.64 6 11.28 6 14 C7.98 13.67 9.96 13.34 12 13 C12.67958603 10.60280568 12.67958603 10.60280568 13 8 C11.16116119 5.71271266 11.16116119 5.71271266 8.375 5.875 C7.199375 5.936875 7.199375 5.936875 6 6 Z " fill="#000000" transform="translate(0,0)"/>
<path d="M0 0 C0.99 0 1.98 0 3 0 C4.65 0 6.3 0 8 0 C8 6.6 8 13.2 8 20 C5.628125 20.103125 3.25625 20.20625 0.8125 20.3125 C-0.29387817 20.38078003 -0.29387817 20.38078003 -1.42260742 20.45043945 C-5.35619453 20.53277652 -6.85396972 20.11951477 -9.92578125 17.60546875 C-12.94295022 13.81554087 -13.3798675 11.84331062 -13 7 C-11.72311154 4.19084539 -10.68900183 2.49893236 -8.1875 0.6875 C-5.37701506 -0.19579527 -2.93161807 -0.12474971 0 0 Z M-4 6 C-6.28728734 7.83883881 -6.28728734 7.83883881 -6.125 10.625 C-6.08375 11.40875 -6.0425 12.1925 -6 13 C-3.67145537 14.19838209 -3.67145537 14.19838209 -1 15 C-0.01 14.34 0.98 13.68 2 13 C2.41666667 10.5 2.41666667 10.5 2 8 C1.34 7.34 0.68 6.68 0 6 C-1.32 6 -2.64 6 -4 6 Z " fill="#000000" transform="translate(52,40)"/>
<path d="M0 0 C2.5625 2.1875 2.5625 2.1875 4 5 C4 6.98 4 8.96 4 11 C-0.29 11 -4.58 11 -9 11 C-9 11.66 -9 12.32 -9 13 C-5.65747276 13.07427838 -3.1964086 13.06546953 0 12 C0.99 13.32 1.98 14.64 3 16 C0.08128156 19.41907017 -2.359466 19.77501267 -6.70703125 20.13671875 C-10.33260805 19.92054296 -12.35818019 18.37763783 -15 16 C-16.51687471 11.44937587 -16.71895824 7.61765604 -14.75 3.1875 C-10.73527472 -1.8309066 -5.83257419 -1.64810353 0 0 Z M-8 5 C-8.33 5.66 -8.66 6.32 -9 7 C-7.02 7 -5.04 7 -3 7 C-3 6.34 -3 5.68 -3 5 C-4.65 5 -6.3 5 -8 5 Z " fill="#000000" transform="translate(107,10)"/>
<path d="M0 0 C3.4203866 1.17013226 3.91540482 1.87310723 6 5 C6.07905064 7.33199388 6.08798769 9.66832622 6 12 C0.06 12.495 0.06 12.495 -6 13 C-1.45392704 14.28547093 -1.45392704 14.28547093 1.1875 13.4375 C1.785625 13.293125 2.38375 13.14875 3 13 C3.66 13.66 4.32 14.32 5 15 C4.75 17.0625 4.75 17.0625 4 19 C0.28676584 20.85661708 -3.94713442 20.43969768 -8 20 C-11.0625 18.5 -11.0625 18.5 -13 16 C-14.42767845 11.77981843 -14.29665296 8.80096298 -12.75 4.625 C-9.37599435 -0.43600847 -5.65983767 -0.56026676 0 0 Z M-5 5 C-5.99 6.485 -5.99 6.485 -7 8 C-4.69 8 -2.38 8 0 8 C-0.66 7.01 -1.32 6.02 -2 5 C-2.99 5 -3.98 5 -5 5 Z " fill="#000000" transform="translate(118,40)"/>
<path d="M0 0 C3.4203866 1.17013226 3.91540482 1.87310723 6 5 C6.07905064 7.33199388 6.08798769 9.66832622 6 12 C0.06 12.495 0.06 12.495 -6 13 C-1.45392704 14.28547093 -1.45392704 14.28547093 1.1875 13.4375 C1.785625 13.293125 2.38375 13.14875 3 13 C3.66 13.66 4.32 14.32 5 15 C4.75 17.0625 4.75 17.0625 4 19 C0.28676584 20.85661708 -3.94713442 20.43969768 -8 20 C-11.0625 18.5 -11.0625 18.5 -13 16 C-14.42767845 11.77981843 -14.29665296 8.80096298 -12.75 4.625 C-9.37599435 -0.43600847 -5.65983767 -0.56026676 0 0 Z M-5 5 C-5.99 6.485 -5.99 6.485 -7 8 C-4.69 8 -2.38 8 0 8 C-0.66 7.01 -1.32 6.02 -2 5 C-2.99 5 -3.98 5 -5 5 Z " fill="#000000" transform="translate(32,40)"/>
<path d="M0 0 C1.98 0 3.96 0 6 0 C6.33 4.62 6.66 9.24 7 14 C8.65 13.67 10.3 13.34 12 13 C12.33 8.71 12.66 4.42 13 0 C14.98 0 16.96 0 19 0 C19.1081866 2.58445773 19.18737237 5.16437352 19.25 7.75 C19.30027344 8.84441406 19.30027344 8.84441406 19.3515625 9.9609375 C19.41495641 13.44760248 19.29005346 15.57622923 17.296875 18.48828125 C14.61744688 20.25178241 13.18409443 20.51030704 10 20.4375 C9.154375 20.43621094 8.30875 20.43492188 7.4375 20.43359375 C4.52438073 19.91539465 3.13550595 19.0258706 1 17 C-0.18681726 13.43954823 -0.09689832 10.56191663 -0.0625 6.8125 C-0.05347656 5.54019531 -0.04445313 4.26789062 -0.03515625 2.95703125 C-0.02355469 1.98121094 -0.01195313 1.00539062 0 0 Z " fill="#000000" transform="translate(84,40)"/>
<path d="M0 0 C1.98 0 3.96 0 6 0 C6 7.59 6 15.18 6 23 C9.96 23 13.92 23 18 23 C18 24.98 18 26.96 18 29 C12.06 29 6.12 29 0 29 C0 19.43 0 9.86 0 0 Z " fill="#000000" transform="translate(0,31)"/>
<path d="M0 0 C0 1.98 0 3.96 0 6 C-1.65 6.33 -3.3 6.66 -5 7 C-5.33 11.29 -5.66 15.58 -6 20 C-7.98 20 -9.96 20 -12 20 C-12 13.73 -12 7.46 -12 1 C-9.69 1 -7.38 1 -5 1 C-3 0 -3 0 0 0 Z " fill="#000000" transform="translate(124,9)"/>
<path d="M0 0 C1.98 0 3.96 0 6 0 C6 6.27 6 12.54 6 19 C4.02 19 2.04 19 0 19 C0 12.73 0 6.46 0 0 Z " fill="#000000" transform="translate(84,10)"/>
<path d="M0 0 C1.98 0 3.96 0 6 0 C6 1.98 6 3.96 6 6 C3.625 6.625 3.625 6.625 1 7 C0.34 6.34 -0.32 5.68 -1 5 C-0.625 2.375 -0.625 2.375 0 0 Z " fill="#000000" transform="translate(84,1)"/>
</svg>
