<?xml version="1.0" encoding="UTF-8"?>
<svg version="1.1" xmlns="http://www.w3.org/2000/svg" width="24" height="24">
<path d="M0 0 C1.98 0 3.96 0 6 0 C6.69937202 1.4317616 7.38412718 2.87067032 8.0625 4.3125 C8.44535156 5.11300781 8.82820313 5.91351563 9.22265625 6.73828125 C10 9 10 9 9 12 C8.01 12.66 7.02 13.32 6 14 C6.99 14.33 7.98 14.66 9 15 C9.33 16.65 9.66 18.3 10 20 C5.38 20 0.76 20 -4 20 C-3.67 18.35 -3.34 16.7 -3 15 C-1.68 14.67 -0.36 14.34 1 14 C-0.65 13.01 -2.3 12.02 -4 11 C-2.7874262 7.27566618 -1.49140021 3.62197194 0 0 Z " fill="#FFFFFF" transform="translate(9,2)"/>
</svg>
