<?xml version="1.0" encoding="UTF-8"?>
<svg version="1.1" xmlns="http://www.w3.org/2000/svg" width="843" height="384">
<path d="M0 0 C2.87695765 0.2563327 5.75064267 0.52952063 8.625 0.8125 C9.43324219 0.88275391 10.24148438 0.95300781 11.07421875 1.02539062 C19.27996986 1.85930842 24.04134026 4.4504845 29.29931641 10.77880859 C32.00631764 14.3143092 34.37033129 18.01338329 36.6875 21.8125 C37.60763094 23.29845085 38.52823257 24.78411032 39.44921875 26.26953125 C39.9601709 27.09791504 40.47112305 27.92629883 40.99755859 28.77978516 C45.6205903 36.21428749 50.31863596 43.60213657 55 51 C55.00586624 50.44733963 55.01173248 49.89467926 55.01777649 49.32527161 C55.08177822 43.56604053 55.16621516 37.80736474 55.26245117 32.04858398 C55.29567746 29.90022102 55.32371653 27.75177125 55.34643555 25.60327148 C55.38002331 22.51248224 55.43234221 19.42248688 55.48828125 16.33203125 C55.49467117 15.37351761 55.5010611 14.41500397 55.50764465 13.42744446 C55.70193305 4.58808862 55.70193305 4.58808862 59 1 C60.99291992 0.43237305 60.99291992 0.43237305 63.23046875 0.51171875 C63.95387451 0.52420654 64.67728027 0.53669434 65.42260742 0.54956055 C66.33502197 0.59508057 67.24743652 0.64060059 68.1875 0.6875 C69.75945952 0.74496622 71.33148692 0.80059452 72.90356445 0.85473633 C74.26904297 0.90315755 75.63452148 0.95157878 77 1 C77.81397587 19.01326108 78.15991362 36.99348897 78.13037109 55.0246582 C78.12581014 58.34731643 78.1280632 61.66982275 78.13394356 64.99246883 C78.13840783 68.21243006 78.13529713 71.43238152 78.1328125 74.65234375 C78.13483673 75.83755112 78.13686096 77.02275848 78.13894653 78.24388123 C78.13421829 79.88454308 78.13421829 79.88454308 78.12939453 81.55834961 C78.12859894 82.51615829 78.12780334 83.47396698 78.12698364 84.46080017 C78.01049605 86.79011808 77.66055588 88.77103883 77 91 C60.11422729 91.50657318 60.11422729 91.50657318 54.4375 86.9375 C53.633125 85.968125 52.82875 84.99875 52 84 C51.525625 83.45214844 51.05125 82.90429688 50.5625 82.33984375 C43.83709036 74.20791815 38.55492347 64.94349145 33 56 C28.05 48.08 28.05 48.08 23 40 C22.67 56.83 22.34 73.66 22 91 C6 91 6 91 1 90 C-0.0004328 69.19046567 -0.08894425 48.39065559 -0.0625 27.5625 C-0.06164398 26.88352535 -0.06078796 26.2045507 -0.05990601 25.50500107 C-0.04840167 17.00331023 -0.02816407 8.50165205 0 0 Z " fill="#FFFFFF" transform="translate(589,163)"/>
<path d="M0 0 C7.3814218 -0.37889428 14.27558907 -0.35429749 21 3 C27.12899281 8.57304937 31.56158987 15.56196547 35.875 22.5625 C36.42285156 23.43712891 36.97070312 24.31175781 37.53515625 25.21289062 C39.36458799 28.13705098 41.18191868 31.0687691 43 34 C46.3 39.28 49.6 44.56 53 50 C53.33 33.83 53.66 17.66 54 1 C60.93 1 67.86 1 75 1 C75 30.37 75 59.74 75 90 C64.53211009 90 64.53211009 90 60.3125 89.3125 C59.44238281 89.18488281 58.57226562 89.05726563 57.67578125 88.92578125 C51.26406558 86.70742123 47.73562591 81.68281049 44.25 76.1875 C43.82807373 75.5387793 43.40614746 74.89005859 42.97143555 74.22167969 C41.63441807 72.15589736 40.31445045 70.08020607 39 68 C38.34862061 66.96963623 38.34862061 66.96963623 37.68408203 65.91845703 C35.55616627 62.5422914 33.44260233 59.15750984 31.33984375 55.765625 C28.27067227 50.81559257 25.13901357 45.90600797 22 41 C20.88000755 44.35997736 20.80859515 47.04103332 20.71875 50.58203125 C20.70034058 51.23266037 20.68193115 51.88328949 20.66296387 52.55363464 C20.60433841 54.63983258 20.55164669 56.72611849 20.5 58.8125 C20.24300215 68.90386886 19.81209671 78.93453431 19 89 C16.62492145 89.02719556 14.25016036 89.04693247 11.875 89.0625 C10.87726563 89.07506836 10.87726563 89.07506836 9.859375 89.08789062 C5.78340603 89.10787087 2.00405897 88.71695975 -2 88 C-2.02325008 78.26354176 -2.04097934 68.5270932 -2.05181217 58.79061317 C-2.05701341 54.26876464 -2.06406054 49.7469352 -2.07543945 45.22509766 C-2.0863669 40.85493153 -2.09229758 36.48478369 -2.09487724 32.11460495 C-2.09671382 30.45379728 -2.10029994 28.79299052 -2.10573006 27.1321907 C-2.17718936 4.35437873 -2.17718936 4.35437873 0 0 Z " fill="#FFFFFF" transform="translate(200,164)"/>
<path d="M0 0 C0.85559509 -0.0033284 1.71119019 -0.0066568 2.5927124 -0.01008606 C4.41531842 -0.01516506 6.23793379 -0.01749409 8.06054688 -0.01733398 C10.80615473 -0.01948947 13.55134004 -0.03754686 16.296875 -0.05664062 C44.7320549 -0.1520308 44.7320549 -0.1520308 55.3515625 9.80078125 C61.27265425 16.13428735 64.18868421 23.80416123 64.859375 32.35546875 C64.18431076 42.6501984 60.14251031 50.17291453 52.609375 57.16796875 C50.63368923 58.86808606 48.63128403 60.52222884 46.609375 62.16796875 C49.28268796 67.06800875 52.19474492 71.4348267 55.671875 75.79296875 C63.609375 85.79445463 63.609375 85.79445463 63.609375 89.16796875 C60.25537651 89.25586415 56.9016786 89.30865754 53.546875 89.35546875 C52.60392578 89.38060547 51.66097656 89.40574219 50.68945312 89.43164062 C44.139047 89.50011177 39.10063079 89.03578601 33.859375 84.73046875 C19.83389494 67.19861868 19.83389494 67.19861868 20.609375 57.23046875 C21.34689022 51.7646615 23.27754316 48.56137667 27.609375 45.16796875 C29.48297714 44.10688452 31.38073212 43.0876506 33.296875 42.10546875 C36.76938741 40.31717217 38.46979055 39.34527872 40.921875 36.23046875 C41.82715919 32.19783916 41.24611386 29.93958438 39.609375 26.16796875 C36.92361142 23.48220517 35.41240335 23.11872584 31.609375 22.16796875 C25.339375 22.16796875 19.069375 22.16796875 12.609375 22.16796875 C12.609375 44.60796875 12.609375 67.04796875 12.609375 90.16796875 C-2.015625 90.16796875 -2.015625 90.16796875 -9.390625 89.16796875 C-9.41374741 77.71146859 -9.43153957 66.25497394 -9.44243717 54.79845524 C-9.44766622 49.47931662 -9.45476427 44.16019391 -9.46606445 38.84106445 C-9.47689255 33.7123289 -9.48290167 28.58360869 -9.48550224 23.45486259 C-9.48735663 21.49355261 -9.49097751 19.53224351 -9.49635506 17.57094002 C-9.50356446 14.83381428 -9.50461599 12.09675278 -9.50415039 9.35961914 C-9.50774567 8.54034943 -9.51134094 7.72107971 -9.51504517 6.87698364 C-9.50024269 -1.11098724 -7.20739731 0.00967489 0 0 Z " fill="#FFFFFF" transform="translate(441.390625,163.83203125)"/>
<path d="M0 0 C8.33825547 6.88434207 13.57690281 15.58854551 15.25 26.3515625 C16.57251517 41.46602163 15.95591451 56.59088301 6.49609375 69.1640625 C3.93359375 72.0390625 3.93359375 72.0390625 1.49609375 74.1640625 C0.73296875 74.8446875 -0.03015625 75.5253125 -0.81640625 76.2265625 C-9.03598434 82.15230485 -16.10633592 83.36626372 -26.06640625 83.4140625 C-27.11376953 83.4346875 -28.16113281 83.4553125 -29.24023438 83.4765625 C-41.48046326 83.53742131 -49.78005649 80.58740501 -58.6015625 72.16015625 C-68.12456962 62.20994882 -71.42788956 50.79917831 -71.53515625 37.203125 C-71.15266091 22.97089835 -67.30448416 10.4719333 -56.87890625 0.4140625 C-40.91331998 -12.78824922 -16.31546808 -11.96297971 0 0 Z M-43.19140625 17.7890625 C-49.70879328 25.73393032 -50.3779415 34.12514337 -49.50390625 44.1640625 C-48.2972796 51.78237193 -44.18277185 57.08469327 -38.50390625 62.1640625 C-33.61263692 64.82236105 -27.96981996 64.75123806 -22.50390625 64.1640625 C-19.94474973 63.39396769 -17.89393228 62.40886772 -15.50390625 61.1640625 C-14.84390625 60.8340625 -14.18390625 60.5040625 -13.50390625 60.1640625 C-13.50390625 59.5040625 -13.50390625 58.8440625 -13.50390625 58.1640625 C-12.84390625 58.1640625 -12.18390625 58.1640625 -11.50390625 58.1640625 C-5.56248953 48.05707686 -4.53117987 39.36811001 -6.78515625 27.890625 C-8.62034253 20.92888574 -12.6251497 16.2287248 -18.50390625 12.1640625 C-27.86403524 9.0440195 -36.43537123 10.75269408 -43.19140625 17.7890625 Z " fill="#FFFFFF" transform="translate(173.50390625,170.8359375)"/>
<path d="M0 0 C7.32734867 5.0105108 13.05346672 11.91636789 14.73828125 20.71484375 C13.49092558 21.36576965 12.24026293 22.01036044 10.98828125 22.65234375 C10.2921875 23.01199219 9.59609375 23.37164062 8.87890625 23.7421875 C6.82053171 24.67747082 4.94320614 25.24267802 2.73828125 25.71484375 C1.68640625 25.94171875 0.63453125 26.16859375 -0.44921875 26.40234375 C-5.8532159 25.42785246 -7.67414967 22.32121713 -10.953125 18.09765625 C-14.25770992 14.68683256 -17.28255042 13.80039858 -21.97265625 13.59765625 C-28.82382544 14.22048981 -34.9416168 15.12371307 -39.79296875 20.37109375 C-44.62249152 27.22227721 -45.86393717 35.19820253 -44.76171875 43.40234375 C-43.19407958 50.51779688 -39.25932537 55.66587586 -33.26171875 59.71484375 C-25.80748303 62.4385068 -19.35613561 62.67345593 -12.09375 59.63671875 C-9.45146573 58.30712581 -7.35144911 56.80457411 -5.26171875 54.71484375 C-5.26171875 53.72484375 -5.26171875 52.73484375 -5.26171875 51.71484375 C-6.43089844 51.55628906 -7.60007812 51.39773438 -8.8046875 51.234375 C-10.3530286 50.99977786 -11.90119722 50.76404042 -13.44921875 50.52734375 C-14.21814453 50.42615234 -14.98707031 50.32496094 -15.77929688 50.22070312 C-21.09700999 49.37625941 -23.75430091 48.05190081 -27.26171875 43.71484375 C-29.27851634 40.64162837 -29.46428902 38.36110866 -29.26171875 34.71484375 C-26.18983416 33.17890145 -22.958001 33.53109592 -19.5859375 33.51171875 C-18.44267754 33.50316864 -18.44267754 33.50316864 -17.27632141 33.4944458 C-15.66152333 33.48499294 -14.04670593 33.47846068 -12.43188477 33.47460938 C-9.96921783 33.46492242 -7.50739219 33.43391072 -5.04492188 33.40234375 C-3.47526537 33.39581165 -1.90560289 33.39056199 -0.3359375 33.38671875 C0.39756424 33.37437195 1.13106598 33.36202515 1.88679504 33.3493042 C7.36670088 33.37300487 10.51656969 34.65182588 14.48828125 38.33984375 C17.98142901 44.9768245 16.76954053 51.88237291 14.8125 58.8515625 C13.18210996 63.19729304 10.91005595 66.36268376 7.73828125 69.71484375 C7.23554688 70.26914062 6.7328125 70.8234375 6.21484375 71.39453125 C-1.49012421 78.94915837 -11.36413103 80.11228041 -21.69921875 80.21484375 C-33.76001563 80.09549322 -44.9453929 77.88077309 -54.26171875 69.71484375 C-62.55441921 60.92011882 -66.21283788 49.65139863 -66.51171875 37.71484375 C-66.13340373 24.89195563 -61.88287675 12.647635 -52.51171875 3.58984375 C-47.55764571 -0.4855252 -42.41628655 -2.63345115 -36.26171875 -4.28515625 C-35.63185059 -4.45877686 -35.00198242 -4.63239746 -34.35302734 -4.8112793 C-22.99707481 -7.38446443 -10.04677095 -5.70878695 0 0 Z " fill="#FFFFFF" transform="translate(479.26171875,287.28515625)"/>
<path d="M0 0 C6.60018637 4.27070883 10.52283302 11.04566604 14 18 C14.25 21 14.25 21 14 24 C10.88267271 26.07821819 9.63895363 26.53545273 6 27 C5.27554688 27.12375 4.55109375 27.2475 3.8046875 27.375 C-0.52863336 27.80969049 -3.04231429 27.68486482 -6.66015625 25.09765625 C-8.3432022 23.53138272 -9.98614815 21.92047315 -11.578125 20.26171875 C-15.50378148 16.59566213 -19.47085599 14.57087402 -24.875 14.5 C-30.32463594 14.70456591 -34.01319389 16.28637975 -38 20 C-45.24719193 29.01556992 -46.04340355 37.76376336 -45 49 C-44.132023 52.39095678 -42.91415506 55.08256366 -41 58 C-40.38125 58.94875 -39.7625 59.8975 -39.125 60.875 C-35.39674996 64.60325004 -31.85200837 66.16760284 -26.625 66.4375 C-18.12614656 66.08278992 -12.4670198 61.01055522 -6.19921875 55.70703125 C-2.55562666 52.87887896 0.52390444 52.83992706 5 52.8125 C6.051875 52.79832031 7.10375 52.78414062 8.1875 52.76953125 C11 53 11 53 14 55 C13.33659436 64.28767899 9.91288951 71.63954443 3 78 C-6.35845819 85.23539599 -18.25739771 88.2713795 -30 87 C-38.63396061 85.73185401 -45.17232422 83.45413944 -52 78 C-52.83402344 77.37996094 -53.66804687 76.75992188 -54.52734375 76.12109375 C-62.20119708 69.53830961 -67.24312234 58.71120873 -68.22314453 48.7265625 C-69.25360035 32.34263808 -66.59416789 18.98781674 -55.6875 6.3125 C-39.44116585 -7.6669038 -19.29083104 -9.99743799 0 0 Z " fill="#FFFFFF" transform="translate(745,168)"/>
<path d="M0 0 C5.92118576 4.58073907 9.20713122 10.57526679 11.19140625 17.6953125 C10.87890625 20.6953125 10.87890625 20.6953125 10.19140625 22.6953125 C4.70079568 25.06963059 -0.95137128 26.03228719 -6.80859375 24.6953125 C-9.68654692 22.65397362 -12.04626072 20.39518443 -14.53515625 17.8984375 C-18.60850784 13.95106586 -22.07435447 12.88800575 -27.74609375 12.2578125 C-33.4607175 12.50193235 -38.00799133 14.94472682 -42.05859375 18.8828125 C-42.63609375 19.8109375 -43.21359375 20.7390625 -43.80859375 21.6953125 C-44.17984375 22.27539062 -44.55109375 22.85546875 -44.93359375 23.453125 C-48.81591461 30.54375268 -49.09054963 38.83459214 -47.80859375 46.6953125 C-45.99091224 52.36622981 -43.62145348 57.8612559 -38.62109375 61.3828125 C-34.70794161 63.20895016 -31.71997617 63.87485142 -27.43359375 63.9453125 C-26.49773438 63.97109375 -25.561875 63.996875 -24.59765625 64.0234375 C-19.29557211 63.3996629 -15.93309135 60.07812693 -12.12109375 56.5703125 C-7.16016309 52.01792907 -4.41336011 51.53555698 2.25390625 51.5703125 C3.37249023 51.56451172 3.37249023 51.56451172 4.51367188 51.55859375 C10.06477124 51.56867749 10.06477124 51.56867749 11.19140625 52.6953125 C11.88210113 60.17235871 8.1948374 65.63466534 4.19140625 71.6953125 C-3.15370057 80.44604952 -11.97363898 83.54220527 -23.12109375 84.5703125 C-36.95985188 85.10419352 -47.44060391 83.36464664 -57.8671875 73.80859375 C-66.85141642 64.283379 -70.72005456 51.80584199 -71.24609375 38.8828125 C-70.8969742 27.42258383 -67.81961504 15.87275643 -60.80859375 6.6953125 C-60.33035156 6.06367188 -59.85210937 5.43203125 -59.359375 4.78125 C-43.83421814 -12.97295961 -18.57907054 -11.86913334 0 0 Z " fill="#FFFFFF" transform="translate(83.80859375,170.3046875)"/>
<path d="M0 0 C0 6.93 0 13.86 0 21 C-1.711875 21.04898438 -3.42375 21.09796875 -5.1875 21.1484375 C-7.4583483 21.22350687 -9.72918088 21.29905287 -12 21.375 C-13.12535156 21.4059375 -14.25070312 21.436875 -15.41015625 21.46875 C-25.53252236 21.41251115 -25.53252236 21.41251115 -34.51513672 25.27807617 C-37.24158488 28.35450826 -38.45464519 31.13661296 -40 35 C-27.46 35 -14.92 35 -2 35 C-3.22900763 46.0610687 -3.22900763 46.0610687 -8.0625 51.1875 C-16.84691126 56.60766865 -28.97785226 55.58513985 -39 56 C-38.79503906 56.54269531 -38.59007812 57.08539063 -38.37890625 57.64453125 C-38.10949219 58.35996094 -37.84007812 59.07539063 -37.5625 59.8125 C-37.29566406 60.52019531 -37.02882813 61.22789062 -36.75390625 61.95703125 C-36.13774814 63.62672396 -35.56280765 65.31157704 -35 67 C-27.30496387 70.51919033 -18.61170851 70.52440494 -10.3125 70.6875 C-9.12205078 70.72166016 -7.93160156 70.75582031 -6.70507812 70.79101562 C-3.80369562 70.8725806 -0.9018662 70.93798517 2 71 C2 77.6 2 84.2 2 91 C-40.37670965 91.35912466 -40.37670965 91.35912466 -54.75 77.3125 C-64.10426294 65.30364892 -63.23386771 46.20066062 -61.78173828 31.84179688 C-60.2402784 21.36312055 -56.08470915 14.15695454 -47.984375 7.47265625 C-41.48945364 2.65260634 -35.22231982 1.9044946 -27.36328125 1.46484375 C-26.64262985 1.42186661 -25.92197845 1.37888947 -25.17948914 1.33460999 C-22.89067113 1.19897552 -20.60160202 1.06824391 -18.3125 0.9375 C-16.76235165 0.84600999 -15.21222119 0.75421628 -13.66210938 0.66210938 C-2.41921907 0 -2.41921907 0 0 0 Z " fill="#FFFFFF" transform="translate(575,163)"/>
<path d="M0 0 C1.19947266 0.00451172 2.39894531 0.00902344 3.63476562 0.01367188 C6.56903227 0.02536218 9.50327292 0.04329415 12.4375 0.0625 C12.4375 6.3325 12.4375 12.6025 12.4375 19.0625 C9.22 19.12244141 9.22 19.12244141 5.9375 19.18359375 C3.83521033 19.25284482 1.734005 19.33702181 -0.36767578 19.42260742 C-1.81610322 19.473681 -3.26515993 19.50948679 -4.71435547 19.52905273 C-13.47468495 19.53242132 -13.47468495 19.53242132 -21.27734375 23.02783203 C-24.42657747 26.50095846 -26.46376851 29.86503702 -28.5625 34.0625 C-15.6925 34.0625 -2.8225 34.0625 10.4375 34.0625 C7.74184783 47.54076087 7.74184783 47.54076087 2.0625 51.875 C-4.15931092 54.68962875 -11.22186025 54.36070708 -17.9375 54.625 C-19.47083984 54.68977539 -19.47083984 54.68977539 -21.03515625 54.75585938 C-23.54415288 54.86137792 -26.05323943 54.96349213 -28.5625 55.0625 C-27.62454715 56.51350176 -26.68069458 57.96069096 -25.734375 59.40625 C-25.2094043 60.21255859 -24.68443359 61.01886719 -24.14355469 61.84960938 C-21.80616296 65.12109156 -19.13625283 67.27562359 -15.5625 69.0625 C-13.38575217 69.21719367 -11.2046652 69.31252106 -9.0234375 69.37890625 C-7.72148437 69.42080078 -6.41953125 69.46269531 -5.078125 69.50585938 C-3.69791955 69.54567299 -2.31771117 69.58538522 -0.9375 69.625 C0.45053415 69.66819407 1.83855528 69.71180865 3.2265625 69.75585938 C6.63008129 69.86221934 10.033777 69.96288918 13.4375 70.0625 C13.7675 76.6625 14.0975 83.2625 14.4375 90.0625 C5.05103879 90.26010971 -4.19718583 89.93208301 -13.5625 89.25 C-14.6362085 89.17990723 -15.70991699 89.10981445 -16.81616211 89.03759766 C-25.64687578 88.34550731 -32.93887175 86.20254477 -39.5625 80.0625 C-47.98411128 70.12708669 -50.08176244 61.19706517 -49.875 48.375 C-49.86227051 47.22394775 -49.84954102 46.07289551 -49.83642578 44.88696289 C-49.58327239 30.07330504 -48.95854826 19.03768352 -37.875 8.25 C-27.03824939 -0.66343419 -13.26465792 -0.09542919 0 0 Z " fill="#FFFFFF" transform="translate(406.5625,163.9375)"/>
<path d="M0 0 C0 6.27 0 12.54 0 19 C-1.94003906 19.10957031 -3.88007812 19.21914062 -5.87890625 19.33203125 C-8.44014567 19.49152235 -11.00134145 19.65171545 -13.5625 19.8125 C-14.83931641 19.88275391 -16.11613281 19.95300781 -17.43164062 20.02539062 C-26.72648107 20.38463436 -26.72648107 20.38463436 -35 24 C-37.29890661 27.19079872 -39.20855235 30.50241174 -41 34 C-39.79839233 33.98428955 -39.79839233 33.98428955 -38.57250977 33.96826172 C-34.90253911 33.92639188 -31.23261894 33.90057574 -27.5625 33.875 C-26.30244141 33.85824219 -25.04238281 33.84148437 -23.74414062 33.82421875 C-16.83057668 33.78811659 -10.65772753 34.07744767 -4 36 C-3.67 36.33 -3.34 36.66 -3 37 C-3.31858784 42.41599322 -4.43928984 45.87707245 -8 50 C-14.45526704 53.67205038 -21.14102616 53.75361258 -28.4375 54.1875 C-29.64599609 54.26935547 -30.85449219 54.35121094 -32.09960938 54.43554688 C-35.06585945 54.63486012 -38.03236868 54.82266166 -41 55 C-40.58427734 55.81404297 -40.58427734 55.81404297 -40.16015625 56.64453125 C-39.79792969 57.35996094 -39.43570313 58.07539063 -39.0625 58.8125 C-38.70285156 59.52019531 -38.34320312 60.22789062 -37.97265625 60.95703125 C-37 63 -37 63 -36 66 C-28.64881799 69.80202411 -19.93113006 69.53655538 -11.875 69.6875 C-10.63234375 69.72166016 -9.3896875 69.75582031 -8.109375 69.79101562 C-5.07300703 69.87276399 -2.03690132 69.94215122 1 70 C1.02690104 72.79173055 1.04679053 75.58320348 1.0625 78.375 C1.07087891 79.1690625 1.07925781 79.963125 1.08789062 80.78125 C1.11328125 86.7734375 1.11328125 86.7734375 0 89 C-40.6011691 89.59532506 -40.6011691 89.59532506 -53.65625 77.54296875 C-62.01612108 68.47250862 -62.23053432 58.26538441 -62.29516602 46.55517578 C-62.30663739 45.1123673 -62.3270121 43.66959962 -62.35668945 42.22705078 C-62.5884447 30.93448522 -61.95149342 20.35714971 -53.875 11.625 C-39.60028872 -2.99787497 -18.83994265 -0.26618443 0 0 Z " fill="#FFFFFF" transform="translate(829,164)"/>
<path d="M0 0 C1.0204541 0.00374634 1.0204541 0.00374634 2.06152344 0.00756836 C2.91262695 0.01667236 3.76373047 0.02577637 4.640625 0.03515625 C6.11230201 0.04665307 7.58398196 0.05777828 9.05566406 0.06860352 C10.95396973 0.08298462 10.95396973 0.08298462 12.890625 0.09765625 C20.47396341 14.0787205 26.26735644 28.83382161 32.17529297 43.57421875 C33.61620214 47.16891989 35.06954489 50.75844787 36.52633667 54.34673691 C37.6551317 57.131095 38.77734974 59.91806679 39.89758301 62.70587921 C40.43138705 64.03197152 40.96725174 65.35723634 41.50524902 66.681633 C42.25108655 68.52040273 42.98710348 70.36314669 43.72265625 72.20605469 C44.14264893 73.2503363 44.5626416 74.29461792 44.99536133 75.37054443 C45.890625 78.09765625 45.890625 78.09765625 45.890625 82.09765625 C43.11338575 82.8845407 40.66452423 83.21715549 37.78125 83.1953125 C37.02714844 83.19208984 36.27304687 83.18886719 35.49609375 83.18554688 C34.71878906 83.17716797 33.94148438 83.16878906 33.140625 83.16015625 C32.34785156 83.15564453 31.55507813 83.15113281 30.73828125 83.14648438 C28.78902992 83.1347419 26.83981762 83.11680771 24.890625 83.09765625 C24.47103516 82.15792969 24.47103516 82.15792969 24.04296875 81.19921875 C21.52316353 75.81083036 21.52316353 75.81083036 16.640625 72.78515625 C15.403125 72.55828125 14.165625 72.33140625 12.890625 72.09765625 C7.80266875 70.2006004 2.60322592 68.14776635 -1.109375 64.09765625 C-2.18722169 61.37866611 -2.6368531 59.02729203 -3.109375 56.09765625 C-2.614375 55.10765625 -2.614375 55.10765625 -2.109375 54.09765625 C2.840625 54.09765625 7.790625 54.09765625 12.890625 54.09765625 C9.920625 46.17765625 6.950625 38.25765625 3.890625 30.09765625 C-1.61798995 40.49805836 -5.77360549 51.22636989 -9.921875 62.22265625 C-10.93982996 64.90384038 -11.95951419 67.58435965 -12.97990417 70.26461792 C-13.6094101 71.91995686 -14.23717395 73.57595959 -14.86299133 75.23269653 C-17.00192267 80.88275159 -17.00192267 80.88275159 -18.109375 83.09765625 C-21.21352202 83.12669202 -24.31763409 83.14446695 -27.421875 83.16015625 C-28.30294922 83.16853516 -29.18402344 83.17691406 -30.09179688 83.18554688 C-30.93935547 83.18876953 -31.78691406 83.19199219 -32.66015625 83.1953125 C-33.44044189 83.20054932 -34.22072754 83.20578613 -35.0246582 83.21118164 C-37.109375 83.09765625 -37.109375 83.09765625 -40.109375 82.09765625 C-39.43076538 77.94214734 -38.11288057 74.2978108 -36.546875 70.39453125 C-36.28357391 69.7353067 -36.02027283 69.07608215 -35.74899292 68.3968811 C-34.87421318 66.21172051 -33.99247109 64.02946827 -33.109375 61.84765625 C-32.65501068 60.72197235 -32.65501068 60.72197235 -32.19146729 59.57354736 C-30.55101072 55.51017715 -28.90495859 51.44912132 -27.25488281 47.38964844 C-25.77592971 43.74824404 -24.30766996 40.1027494 -22.84667969 36.45410156 C-20.94718126 31.71064054 -19.03213595 26.97373035 -17.10644531 22.24084473 C-16.35872307 20.39618663 -15.61619965 18.54941265 -14.87890625 16.70056152 C-13.84250271 14.10546038 -12.78703135 11.51893606 -11.7265625 8.93359375 C-11.41975555 8.15295563 -11.11294861 7.3723175 -10.79684448 6.56802368 C-9.90185547 4.41943359 -9.90185547 4.41943359 -8.109375 1.09765625 C-5.37380527 0.13280268 -2.88623549 -0.02186542 0 0 Z " fill="#FFFFFF" transform="translate(365.109375,282.90234375)"/>
<path d="M0 0 C2.40382702 2.1553868 4.79483733 4.32296086 7.171875 6.5078125 C5.55804743 9.90993549 3.58583734 12.61105769 1.171875 15.5078125 C-2.34148271 14.54962403 -4.38612555 13.09596653 -6.828125 10.5078125 C-28.39561671 -11.84479133 -59.75610697 -24.82663435 -89.078125 -33.2421875 C-90.10425903 -33.54056519 -90.10425903 -33.54056519 -91.15112305 -33.8449707 C-101.73051331 -36.75683263 -112.36971668 -37.80237084 -123.3125 -37.79296875 C-125.02231049 -37.79939644 -125.02231049 -37.79939644 -126.7666626 -37.80595398 C-129.15986472 -37.81165266 -131.55308415 -37.81223085 -133.94628906 -37.80786133 C-137.55564764 -37.80470714 -141.16418009 -37.82819871 -144.7734375 -37.85351562 C-157.44839241 -37.88892967 -169.47719585 -37.44243426 -181.828125 -34.4921875 C-182.77365234 -34.26781006 -183.71917969 -34.04343262 -184.69335938 -33.81225586 C-187.05435235 -33.20426791 -189.37610429 -32.53105547 -191.703125 -31.8046875 C-192.52844727 -31.55122559 -193.35376953 -31.29776367 -194.20410156 -31.03662109 C-203.34200929 -28.1417347 -212.11953575 -24.48108677 -220.828125 -20.4921875 C-221.88773437 -20.00878906 -221.88773437 -20.00878906 -222.96875 -19.515625 C-240.45328653 -11.43067014 -255.73685388 -0.54761503 -269.6015625 12.8203125 C-271.828125 14.5078125 -271.828125 14.5078125 -275.828125 14.5078125 C-277.84436139 12.72503506 -279.20157118 10.67655093 -280.828125 8.5078125 C-270.09364621 -15.52460271 -230.66871871 -30.9246266 -207.765625 -39.7421875 C-137.97564197 -65.49352471 -55.46809312 -48.87934173 0 0 Z " fill="#FFFFFF" transform="translate(557.828125,62.4921875)"/>
<path d="M0 0 C1.54494141 0.00386719 1.54494141 0.00386719 3.12109375 0.0078125 C4.63896484 0.00394531 4.63896484 0.00394531 6.1875 0 C8.76929149 0.101716 11.21508909 0.30968136 13.76928711 0.64111328 C15.0197583 0.80337402 16.27022949 0.96563477 17.55859375 1.1328125 C17.57072403 2.06456299 17.57072403 2.06456299 17.58309937 3.01513672 C17.66943478 9.50459596 17.76894989 15.99375989 17.87597656 22.48291016 C17.91416112 24.90180485 17.94903201 27.32075429 17.98046875 29.73974609 C18.02634797 33.22513336 18.08430504 36.71014716 18.14453125 40.1953125 C18.15608246 41.26958496 18.16763367 42.34385742 18.17953491 43.45068359 C18.25484708 53.55329455 18.25484708 53.55329455 22.37109375 62.5078125 C27.0459325 65.98054986 30.65113288 66.53860702 36.33984375 65.7421875 C40.56285775 64.58234563 43.41008471 62.03892313 45.68188477 58.26855469 C49.93188235 47.91517712 47.89784366 32.9797089 48.12109375 21.8828125 C48.1643763 19.86587815 48.20799336 17.84895095 48.25195312 15.83203125 C48.35864261 10.93236718 48.45846699 6.03263246 48.55859375 1.1328125 C54.82859375 1.1328125 61.09859375 1.1328125 67.55859375 1.1328125 C67.62675832 8.37468667 67.68163162 15.61638132 67.71403027 22.85851002 C67.72959122 26.22244638 67.75065059 29.58614918 67.78491211 32.94995117 C67.82156358 36.82997652 67.83838183 40.70967603 67.8515625 44.58984375 C67.86704636 45.77987503 67.88253021 46.96990631 67.89848328 48.19599915 C67.9006524 59.11234402 66.59888528 68.17527989 58.81640625 76.1875 C50.68037894 83.19743356 43.25742668 84.34234159 32.87109375 84.4453125 C31.91525391 84.47431641 30.95941406 84.50332031 29.97460938 84.53320312 C20.81750418 84.61434993 13.80500037 81.73230852 6.55859375 76.1328125 C-5.77415958 62.93963452 -3.74226489 45.06695284 -3.6472168 28.1965332 C-3.62870194 24.78264061 -3.62670936 21.36901621 -3.62695312 17.95507812 C-3.62204623 15.78906013 -3.61622157 13.62304398 -3.609375 11.45703125 C-3.60826218 10.43429611 -3.60714935 9.41156097 -3.60600281 8.35783386 C-3.59643303 6.95420341 -3.59643303 6.95420341 -3.58666992 5.5222168 C-3.58285812 4.69618454 -3.57904633 3.87015228 -3.57511902 3.01908875 C-3.36964374 0.12046395 -2.91160564 0.15839135 0 0 Z " fill="#FFFFFF" transform="translate(507.44140625,282.8671875)"/>
<path d="M0 0 C0 6.6 0 13.2 0 20 C-2.39636719 20.04898438 -4.79273438 20.09796875 -7.26171875 20.1484375 C-9.59177704 20.20250296 -11.92173556 20.25978849 -14.25170898 20.31738281 C-15.8665417 20.35558072 -17.48145684 20.39044945 -19.09643555 20.421875 C-21.42266217 20.46772609 -23.74832592 20.52568584 -26.07421875 20.5859375 C-27.15107185 20.60326431 -27.15107185 20.60326431 -28.24967957 20.62094116 C-32.51275562 20.74544877 -34.89878552 21.35951421 -39 23 C-39.99 26.63 -40.98 30.26 -42 34 C-30.45 34 -18.9 34 -7 34 C-8.00330476 42.02643804 -9.09727887 46.89783705 -15.4375 51.9375 C-20.92968847 54.21474888 -26.53279347 54.1311697 -32.375 54.0625 C-33.11105469 54.05798828 -33.84710938 54.05347656 -34.60546875 54.04882812 C-36.40368158 54.03715142 -38.20185197 54.01922011 -40 54 C-39.98839844 55.30453125 -39.97679687 56.6090625 -39.96484375 57.953125 C-39.8620549 73.7463289 -39.8620549 73.7463289 -40.25 81 C-40.31960938 82.3303125 -40.31960938 82.3303125 -40.390625 83.6875 C-41.24969875 86.94757472 -42.26926774 87.98843406 -45 90 C-48.09720399 90.49342136 -51.12387286 90.37699892 -54.25 90.25 C-55.09046875 90.23195313 -55.9309375 90.21390625 -56.796875 90.1953125 C-58.86507395 90.14830798 -60.93268441 90.07656724 -63 90 C-63.02343064 82.73134869 -63.04106848 75.46270586 -63.05181217 68.19402409 C-63.05697512 64.81691182 -63.06451433 61.4398455 -63.07543945 58.06274414 C-63.21668111 13.23928903 -63.21668111 13.23928903 -59 5 C-53.29077485 -0.38298372 -42.3312119 0.73281353 -34.875 0.4375 C-33.32329102 0.37381226 -33.32329102 0.37381226 -31.74023438 0.30883789 C-21.15478717 -0.09044621 -10.59220241 -0.06968554 0 0 Z " fill="#FFFFFF" transform="translate(353,164)"/>
<path d="M0 0 C0.74617584 0.0028299 1.49235168 0.00565979 2.26113892 0.00857544 C4.62478238 0.01969563 6.98803518 0.04478429 9.3515625 0.0703125 C10.96223408 0.08035288 12.57291165 0.08947688 14.18359375 0.09765625 C18.11485187 0.1178996 22.04527421 0.15706213 25.9765625 0.1953125 C25.9765625 6.1353125 25.9765625 12.0753125 25.9765625 18.1953125 C24.02492188 18.22109375 22.07328125 18.246875 20.0625 18.2734375 C17.49216525 18.3297222 14.92185362 18.38706945 12.3515625 18.4453125 C11.06636719 18.45949219 9.78117188 18.47367187 8.45703125 18.48828125 C-0.63933626 18.48455716 -0.63933626 18.48455716 -8.0234375 23.1953125 C-9.3434375 25.8353125 -10.6634375 28.4753125 -12.0234375 31.1953125 C-0.4734375 31.5253125 11.0765625 31.8553125 22.9765625 32.1953125 C21.78887019 41.69685096 21.78887019 41.69685096 16.9765625 46.1953125 C11.17263903 49.31070884 6.05851907 49.71853534 -0.4609375 49.8828125 C-1.38326172 49.91697266 -2.30558594 49.95113281 -3.25585938 49.98632812 C-5.51159701 50.06814244 -7.76697869 50.13750372 -10.0234375 50.1953125 C-11.10007964 53.47482111 -11.14321314 53.95077057 -9.5234375 57.2578125 C-5.89184986 61.52492798 -2.4994231 62.93545939 2.96582031 63.5090332 C6.42922607 63.67755462 9.88449914 63.76714833 13.3515625 63.8203125 C15.71362971 63.87105508 18.07562079 63.92552863 20.4375 63.984375 C21.47696777 64.00193848 22.51643555 64.01950195 23.58740234 64.03759766 C25.9765625 64.1953125 25.9765625 64.1953125 26.9765625 65.1953125 C27.04981418 68.05798817 27.06894455 70.8960315 27.0390625 73.7578125 C27.03455078 74.56412109 27.03003906 75.37042969 27.02539062 76.20117188 C27.01356768 78.19925006 26.99563164 80.19729033 26.9765625 82.1953125 C12.22544619 84.82568274 -8.22413273 84.21180995 -21.09765625 75.84765625 C-28.0970475 70.34499018 -30.58022931 63.75813169 -32.0234375 55.1953125 C-33.61012706 40.18236913 -34.79934981 25.27330998 -26.55859375 12.05859375 C-25.0234375 10.1953125 -25.0234375 10.1953125 -22.0234375 9.1953125 C-22.0234375 8.5353125 -22.0234375 7.8753125 -22.0234375 7.1953125 C-20.484375 5.9765625 -20.484375 5.9765625 -18.3984375 4.6953125 C-17.72554687 4.2725 -17.05265625 3.8496875 -16.359375 3.4140625 C-10.94162651 0.58741111 -6.04175478 -0.08750228 0 0 Z " fill="#FFFFFF" transform="translate(619.0234375,283.8046875)"/>
<path d="M0 0 C0 5.94 0 11.88 0 18 C-3.8053125 17.938125 -3.8053125 17.938125 -7.6875 17.875 C-21.15045344 17.4956874 -21.15045344 17.4956874 -33.25 22.3125 C-34.996698 24.99492907 -35.7282141 26.82916446 -36 30 C-32.57030588 31.02714089 -29.34402657 31.18269314 -25.7734375 31.28125 C-23.9790625 31.33732422 -23.9790625 31.33732422 -22.1484375 31.39453125 C-19.62500609 31.46506194 -17.10156853 31.5353731 -14.578125 31.60546875 C-12.78761719 31.66154297 -12.78761719 31.66154297 -10.9609375 31.71875 C-9.86571777 31.74904297 -8.77049805 31.77933594 -7.64208984 31.81054688 C-5 32 -5 32 -3 33 C-3.33451901 39.46736758 -4.21642778 42.5353326 -9 47 C-14.54388066 49.46004213 -20.40502505 49.6551052 -26.375 50.125 C-27.39722656 50.21136719 -28.41945313 50.29773438 -29.47265625 50.38671875 C-31.98130112 50.59772626 -34.49030455 50.80194994 -37 51 C-34.37191236 57.84553461 -34.37191236 57.84553461 -28.7980957 62.04833984 C-25.61687807 63.13030358 -22.96161687 63.31862701 -19.60546875 63.4140625 C-18.40341797 63.45273437 -17.20136719 63.49140625 -15.96289062 63.53125 C-14.71701172 63.5621875 -13.47113281 63.593125 -12.1875 63.625 C-10.92228516 63.66367187 -9.65707031 63.70234375 -8.35351562 63.7421875 C-5.23591325 63.8363038 -2.1179768 63.91923441 1 64 C1 69.94 1 75.88 1 82 C-3.43766796 82.05437578 -7.87465713 82.09385724 -12.3125 82.125 C-13.55580078 82.14175781 -14.79910156 82.15851563 -16.08007812 82.17578125 C-29.15502109 82.24441612 -39.27831849 81.40620425 -49.0078125 72.07421875 C-57.42455012 63.00597633 -58.19402934 53.8247355 -58.25 41.875 C-58.270625 40.79734375 -58.29125 39.7196875 -58.3125 38.609375 C-58.36330048 28.06827604 -56.82273109 16.98481996 -49.17578125 9.125 C-34.97110634 -3.86213135 -17.87973471 -1.3368026 0 0 Z " fill="#FFFFFF" transform="translate(318,284)"/>
<path d="M0 0 C2.20826378 -0.02722517 4.41662638 -0.04649729 6.625 -0.0625 C7.85476562 -0.07410156 9.08453125 -0.08570313 10.3515625 -0.09765625 C13.68352633 -0.00847092 16.72703602 0.41683934 20 1 C20.01030746 1.65653061 20.02061493 2.31306122 20.03123474 2.98948669 C20.13981479 9.85205006 20.25436749 16.71449567 20.37231445 23.5769043 C20.41549899 26.13449631 20.45718495 28.69211409 20.49731445 31.24975586 C20.55541817 34.93611401 20.6189952 38.62234438 20.68359375 42.30859375 C20.70030624 43.44332626 20.71701874 44.57805878 20.73423767 45.74717712 C20.84760104 51.88811739 21.02517486 57.92887236 22 64 C25.0549278 65.5274639 28.2763314 65.23991832 31.6328125 65.31640625 C32.38464813 65.33718735 33.13648376 65.35796844 33.91110229 65.37937927 C36.31564085 65.44482705 38.72028967 65.50373738 41.125 65.5625 C42.75391771 65.60568977 44.38282422 65.64930421 46.01171875 65.69335938 C50.00770106 65.80130385 54.00376564 65.90041198 58 66 C58 71.94 58 77.88 58 84 C51.16830245 84.19841838 44.33829719 84.34324163 37.50439453 84.43945312 C35.18215708 84.47957538 32.86012036 84.53408866 30.53857422 84.60351562 C27.19187854 84.70106183 23.84786249 84.74603968 20.5 84.78125 C19.4694751 84.82254028 18.4389502 84.86383057 17.37719727 84.90637207 C11.92065268 84.90973505 8.52530517 84.2755193 4.34375 80.62646484 C0.14694698 75.7542321 -0.12489391 71.43657394 0 65.1953125 C-0.01092178 64.16565369 -0.02184357 63.13599487 -0.03309631 62.07513428 C-0.05942659 58.75736276 -0.03045704 55.44269057 0 52.125 C-0.00747164 49.85691929 -0.01846271 47.58884747 -0.03295898 45.32080078 C-0.05982276 39.84665906 -0.0443547 34.37373903 -0.01287842 28.8996582 C0.00485503 24.90685916 -0.01185621 20.91461084 -0.03515625 16.921875 C-0.06181908 11.28046451 -0.0504683 5.64123455 0 0 Z " fill="#FFFFFF" transform="translate(198,282)"/>
<path d="M0 0 C2.21579983 0.01605652 4.4297632 0.00005828 6.64550781 -0.01904297 C38.64248344 -0.06809233 67.12769155 12.64112883 89.72363281 35.07861328 C91.1066888 36.50836409 92.48508962 37.94274136 93.84863281 39.39111328 C92.94690814 40.56936686 92.02661779 41.73342905 91.09863281 42.89111328 C90.33292969 43.86564453 90.33292969 43.86564453 89.55175781 44.85986328 C87.84863281 46.39111328 87.84863281 46.39111328 83.84863281 46.39111328 C82.85863281 44.41111328 82.85863281 44.41111328 81.84863281 42.39111328 C81.18863281 42.39111328 80.52863281 42.39111328 79.84863281 42.39111328 C78.1605004 40.74619245 76.49738629 39.07550264 74.84863281 37.39111328 C51.59760644 17.82793853 22.98930685 9.38134665 -7.15136719 11.39111328 C-35.94435711 14.17695188 -58.37553828 28.20919717 -79.15136719 47.39111328 C-82.68722733 44.21790546 -84.7371475 42.22367633 -85.15136719 37.39111328 C-84.49136719 37.39111328 -83.83136719 37.39111328 -83.15136719 37.39111328 C-82.91417969 36.82005859 -82.67699219 36.24900391 -82.43261719 35.66064453 C-73.46354924 19.77336258 -47.123662 8.36698404 -30.15136719 3.39111328 C-20.03399089 0.79215423 -10.41557893 -0.08927639 0 0 Z " fill="#FFFFFF" transform="translate(417.1513671875,97.60888671875)"/>
<path d="M0 0 C1.60725635 3.21451269 1.05748185 6.43612536 1 10 C-5.4055959 13.12831428 -12.05029175 14.52645284 -19 16 C-19.33 17.65 -19.66 19.3 -20 21 C-14.85789679 21.2235697 -10.4302331 20.56202183 -5.4296875 19.33984375 C-2.66065977 18.95253601 -0.67006669 19.19158881 2 20 C3.11445498 22.22890995 3.16480286 23.53055106 3.1875 26 C3.20167969 26.70125 3.21585937 27.4025 3.23046875 28.125 C3 30 3 30 1 32 C-0.87939453 32.50244141 -0.87939453 32.50244141 -3.1328125 32.8515625 C-3.93847656 32.98046875 -4.74414062 33.109375 -5.57421875 33.2421875 C-6.83685547 33.43167969 -6.83685547 33.43167969 -8.125 33.625 C-9.39923828 33.82609375 -9.39923828 33.82609375 -10.69921875 34.03125 C-12.79834644 34.36144986 -14.89903911 34.68167259 -17 35 C-16.67 36.65 -16.34 38.3 -16 40 C-7.99305886 39.4017071 0.00605711 38.7529365 8 38 C9.50576582 42.51729745 10.13905625 45.388017 9 50 C7.10454608 50.48066535 5.20861961 50.95946743 3.3125 51.4375 C2.25675781 51.70433594 1.20101562 51.97117188 0.11328125 52.24609375 C-4.67211968 53.40491731 -9.06175231 54.17441458 -14 54.25 C-15.010625 54.27578125 -16.02125 54.3015625 -17.0625 54.328125 C-21.25040815 53.86032675 -23.72172601 52.29334797 -26.65625 49.32421875 C-28.57611061 46.00352961 -29.52317425 42.49260695 -30.5 38.8125 C-30.71285645 38.02528564 -30.92571289 37.23807129 -31.14501953 36.42700195 C-32.60126685 30.88630658 -33.83879613 25.32154869 -34.875 19.6875 C-35.00712891 18.98923096 -35.13925781 18.29096191 -35.27539062 17.5715332 C-36.5162516 10.32047346 -36.5162516 10.32047346 -35 7 C-29.58741053 3.94450595 -23.51188658 2.68707048 -17.5 1.25 C-16.13294922 0.90001953 -16.13294922 0.90001953 -14.73828125 0.54296875 C-9.45633446 -0.72988134 -5.29992573 -1.39621699 0 0 Z " fill="#FFFFFF" transform="translate(402,35)"/>
<path d="M0 0 C7.86105355 3.40357703 12.8286697 11.93880907 17.8125 18.625 C18.28051025 19.24592529 18.74852051 19.86685059 19.23071289 20.5065918 C24.45650697 27.64142935 27.10074345 34.01555343 26 43 C23.07812072 50.74298008 18.13858555 55.1888455 11 59 C4.97986846 61.00671051 -2.34652406 61.14463668 -8.1875 58.625 C-9.115625 57.75875 -10.04375 56.8925 -11 56 C-11.721875 55.34 -12.44375 54.68 -13.1875 54 C-18.22239951 49.21684546 -22.72325786 44.10033234 -27.0625 38.6875 C-27.53969482 38.1011377 -28.01688965 37.51477539 -28.50854492 36.91064453 C-31.04342548 33.67098861 -32.61981709 31.13545901 -33 27 C-27.76683874 22.01024159 -27.76683874 22.01024159 -24.66015625 21.96875 C-20.88877453 23.43078344 -18.71243385 26.07776504 -16.125 29.0625 C-15.5997876 29.64942627 -15.0745752 30.23635254 -14.53344727 30.84106445 C-11.10490628 34.68489797 -7.71878572 38.57080679 -4.40234375 42.51171875 C-2.87147083 44.2483082 -2.87147083 44.2483082 0 46 C4.18503495 45.92390846 6.28838175 45.63863176 9.4375 42.8125 C11.29758678 39.46434379 11.36305907 37.78618745 11 34 C9.71286401 31.40992973 9.71286401 31.40992973 7.75 29 C6.67492187 27.59814453 6.67492187 27.59814453 5.578125 26.16796875 C0.87081865 20.31762031 -4.05308124 14.64773225 -9 9 C-7.63783758 5.78034336 -6.27468847 4.18312565 -3.375 2.25 C-2.74335938 1.82203125 -2.11171875 1.3940625 -1.4609375 0.953125 C-0.97882813 0.63859375 -0.49671875 0.3240625 0 0 Z " fill="#FFFFFF" transform="translate(327,57)"/>
<path d="M0 0 C2.625 1.8125 2.625 1.8125 4 5 C3.69116211 7.21118164 3.69116211 7.21118164 2.96484375 9.91015625 C2.67802734 10.97806396 2.39121094 12.04597168 2.09570312 13.14624023 C1.73296369 14.43153357 1.36750019 15.71605979 1 17 C0.78633789 17.74790802 0.57267578 18.49581604 0.35253906 19.26638794 C-1.14679513 24.48253753 -2.68576664 29.68624458 -4.2434082 34.88525391 C-5.07058642 37.65204793 -5.88790304 40.42164361 -6.70507812 43.19140625 C-7.2311724 44.9533038 -7.75784365 46.7150292 -8.28515625 48.4765625 C-8.52790787 49.30354645 -8.77065948 50.1305304 -9.02076721 50.98257446 C-10.77129215 56.77129215 -10.77129215 56.77129215 -13 59 C-18.82837351 54.14754019 -21.50589678 50.83497488 -22.4375 43.27734375 C-23.3906788 39.41829348 -25.76489744 38.10984949 -29 36 C-27.63016497 32.83884224 -27.0109362 32.0072908 -24 30 C-20.8125 29.875 -20.8125 29.875 -18 30 C-16.02 24.555 -16.02 24.555 -14 19 C-15.64295733 19.98192372 -17.28578253 20.96406914 -18.92797852 21.94726562 C-20.31325557 22.77644053 -21.69916486 23.60456006 -23.08569336 24.43164062 C-26.62942902 26.55160252 -30.12077701 28.71674346 -33.5625 31 C-37.01996372 33.01161526 -39.00966642 34.08490071 -43 34 C-45.77369387 32.96846096 -47.54324853 31.7823491 -50 30 C-50.69921875 27.85546875 -50.69921875 27.85546875 -51 26 C-44.41586195 21.56795886 -37.76047964 17.25770253 -31.0625 13 C-30.13759766 12.40960938 -29.21269531 11.81921875 -28.25976562 11.2109375 C-7.67733549 -1.88566135 -7.67733549 -1.88566135 0 0 Z " fill="#FFFFFF" transform="translate(530,69)"/>
<path d="M0 0 C0.495 0.495 0.495 0.495 1 1 C0.40366972 8.39449541 0.40366972 8.39449541 -2 12 C-8.34892311 11.47666144 -14.51041093 10.59869319 -20.75 9.3046875 C-23.03083571 8.78075387 -23.03083571 8.78075387 -25 10 C-24.828688 11.96543508 -24.828688 11.96543508 -24 14 C-22.1144033 15.10432657 -22.1144033 15.10432657 -19.74609375 15.703125 C-18.46508789 16.08984375 -18.46508789 16.08984375 -17.15820312 16.484375 C-16.26037109 16.73703125 -15.36253906 16.9896875 -14.4375 17.25 C-13.53580078 17.518125 -12.63410156 17.78625 -11.70507812 18.0625 C-9.47403646 18.72354938 -7.23955997 19.36853204 -5 20 C-6.75 27.625 -6.75 27.625 -9 31 C-14.57688222 30.51945233 -19.61163068 29.58481451 -25 28 C-26.32 28 -27.64 28 -29 28 C-30.98 33.94 -32.96 39.88 -35 46 C-43.87581699 43.46405229 -43.87581699 43.46405229 -46 41 C-46.34938908 35.81632189 -45.54965779 31.47733651 -44.171875 26.4921875 C-43.98159729 25.80367706 -43.79131958 25.11516663 -43.59527588 24.40579224 C-43.19292919 22.96081556 -42.78593847 21.51712462 -42.37451172 20.07470703 C-41.75087334 17.87807615 -41.15009528 15.67603109 -40.55078125 13.47265625 C-40.15501223 12.0621159 -39.75792113 10.6519457 -39.359375 9.2421875 C-39.00327148 7.9722998 -38.64716797 6.70241211 -38.28027344 5.39404297 C-36.96065189 1.89568698 -35.57947585 -0.31289223 -33 -3 C-22.67540742 -7.54282074 -10.30342253 -2.9757177 0 0 Z " fill="#FFFFFF" transform="translate(482,43)"/>
</svg>
