<?xml version="1.0" encoding="UTF-8"?>
<svg version="1.1" xmlns="http://www.w3.org/2000/svg" width="300" height="300">
<path d="M0 0 C-1.28497537 2.56995074 -2.49912373 2.90434463 -5.0625 4.125 C-6.16271484 4.65480469 -6.16271484 4.65480469 -7.28515625 5.1953125 C-7.85105469 5.46085937 -8.41695313 5.72640625 -9 6 C-1.3999389 9.44126081 6.18154349 12.07658112 14.21069336 14.29956055 C17.65624297 15.26210519 20.88173261 16.22161313 24 18 C24 16.02 24 14.04 24 12 C28.08700977 13.51002352 29.5028309 15.9271004 31.75 19.5625 C34.89334763 24.46259705 38.23302937 28.74836155 42.23828125 32.96484375 C44.17905471 35.2068459 45.68129507 37.34125187 47 40 C46.67 40.99 46.34 41.98 46 43 C44.02 42.01 42.04 41.02 40 40 C40.06058594 40.60360352 40.12117188 41.20720703 40.18359375 41.82910156 C42.38016122 63.98908797 42.38016122 63.98908797 42 74 C45.03882334 72.22445183 47.6288106 70.62078829 50 68 C49.65988795 74.12201682 48.06646131 78.29376052 45.19921875 83.69140625 C43.79424978 86.39608594 42.86947879 89.08103549 42 92 C41.46236725 93.62633908 40.92045306 95.25126704 40.375 96.875 C40.11460937 97.65617187 39.85421875 98.43734375 39.5859375 99.2421875 C39.39257812 99.82226562 39.19921875 100.40234375 39 101 C35.48283697 101 34.62878252 100.17554415 32 98 C31.18015625 98.433125 30.3603125 98.86625 29.515625 99.3125 C28.43796875 99.869375 27.3603125 100.42625 26.25 101 C25.18265625 101.556875 24.1153125 102.11375 23.015625 102.6875 C20 104 20 104 16 104 C16 107.3 16 110.6 16 114 C23.60769452 111.8092006 23.60769452 111.8092006 31 109 C29.02519529 114.92441412 22.16257124 117.82463026 16.90234375 120.68359375 C6.6298564 125.68877896 -3.5348821 128.5829721 -15 128 C-12.3144406 125.3144406 -9.62378672 124.93950026 -6 124 C-6 123.34 -6 122.68 -6 122 C-6.78375 121.71125 -7.5675 121.4225 -8.375 121.125 C-11 120 -11 120 -13 118 C-15.36509361 117.69940057 -17.74441881 117.50484988 -20.125 117.375 C-21.40632813 117.30023438 -22.68765625 117.22546875 -24.0078125 117.1484375 C-25.48894531 117.07496094 -25.48894531 117.07496094 -27 117 C-26.34 120.3 -25.68 123.6 -25 127 C-30.43920947 125.44594015 -34.9802507 123.2760851 -38.78515625 118.98828125 C-41.52407774 116.52953163 -43.76248489 115.96773299 -47.3125 115.0625 C-52.86060801 113.48803692 -56.63810422 111.75325916 -61 108 C-61 107.67 -61 107.34 -61 107 C-55.06 106.505 -55.06 106.505 -49 106 C-49.433125 105.09636719 -49.86625 104.19273438 -50.3125 103.26171875 C-50.869375 102.08222656 -51.42625 100.90273437 -52 99.6875 C-52.8353125 97.92986328 -52.8353125 97.92986328 -53.6875 96.13671875 C-55 93 -55 93 -55 90 C-56.051875 89.62875 -56.051875 89.62875 -57.125 89.25 C-60.37002459 87.83911974 -63.10316737 86.02104602 -66 84 C-67.32 86.97 -68.64 89.94 -70 93 C-70.66 93 -71.32 93 -72 93 C-73.42689678 88.71930966 -74.1444533 84.88669812 -74.4375 80.375 C-74.75405898 76.0897294 -75.51158605 73.57033306 -78 70 C-78 68.68 -78 67.36 -78 66 C-76.33629627 64.99507828 -74.66924507 63.99569004 -73 63 C-71.37712684 60.42105841 -71.37712684 60.42105841 -70.25 57.5 C-69.63898438 56.06140625 -69.63898438 56.06140625 -69.015625 54.59375 C-67.11440131 49.7383172 -67.1484141 47.9012568 -69 43 C-72.33557632 45.9905167 -74.15083921 48.93184627 -76 53 C-76.33 53 -76.66 53 -77 53 C-77 39.85570123 -70.05760563 28.25350795 -61.078125 19.015625 C-60.39234375 18.35046875 -59.7065625 17.6853125 -59 17 C-58.25234375 16.25234375 -57.5046875 15.5046875 -56.734375 14.734375 C-56.16203125 14.16203125 -55.5896875 13.5896875 -55 13 C-54.34 13.33 -53.68 13.66 -53 14 C-54.65 16.97 -56.3 19.94 -58 23 C-53.79674772 23.0894309 -51.86744196 22.73605417 -48.6015625 19.96484375 C-47.01493116 18.34483667 -45.45260455 16.70059566 -43.91796875 15.03125 C-42 13 -42 13 -40 12 C-40.66 9.69 -41.32 7.38 -42 5 C-38.38399353 3.902605 -34.88801244 3.79206821 -31.125 3.625 C-24.61683852 3.2809949 -18.54124586 2.12016664 -12.1875 0.6328125 C-8.01203592 -0.19613993 -4.24015078 -0.21931814 0 0 Z M-8.03515625 13.06640625 C-14.24721956 13.19098687 -14.24721956 13.19098687 -19.5625 16 C-23.62759659 24.19344947 -23.62759659 24.19344947 -23 33 C-21.70102096 35.34255628 -20.38566516 37.56896952 -18.9375 39.8125 C-18.56044922 40.40998047 -18.18339844 41.00746094 -17.79492188 41.62304688 C-16.87010434 43.08636577 -15.93597935 44.54379523 -15 46 C-2.66086326 44.42926999 8.46445124 42.51229054 16.53125 32.3046875 C18.1392135 29.98764898 18.1392135 29.98764898 19 27 C10.58304489 17.33694573 10.58304489 17.33694573 -0.6875 12.625 C-5.8424749 13.01843253 -5.8424749 13.01843253 -8.03515625 13.06640625 Z M-60 31 C-63.4273964 34.92690485 -64.12516038 38.31284447 -64.1328125 43.44140625 C-64.13410156 44.27220703 -64.13539062 45.10300781 -64.13671875 45.95898438 C-64.13285156 46.81814453 -64.12898438 47.67730469 -64.125 48.5625 C-64.12886719 49.42552734 -64.13273437 50.28855469 -64.13671875 51.17773438 C-64.13542969 52.00724609 -64.13414063 52.83675781 -64.1328125 53.69140625 C-64.13168457 54.44623291 -64.13055664 55.20105957 -64.12939453 55.97875977 C-64.07307558 58.20572927 -64.07307558 58.20572927 -63 61 C-53.17754437 60.82051991 -45.06057239 58.72322808 -36 55 C-34.75992188 54.66613281 -33.51984375 54.33226562 -32.2421875 53.98828125 C-28.5951363 51.75171612 -28.37989669 51.25361447 -27.34375 47.31640625 C-27.01355114 45.40625589 -26.73445537 43.48674956 -26.5 41.5625 C-26.30229004 40.07919189 -26.30229004 40.07919189 -26.10058594 38.56591797 C-25.50453355 32.05527405 -26.03551713 27.72287849 -30.25 22.625 C-32.67171283 19.91260915 -32.67171283 19.91260915 -35 18 C-43.76601733 18 -53.7366862 25.51141665 -60 31 Z M17.35546875 38.91015625 C12.58061129 39.24568677 9.94480886 40.81449423 6.76953125 44.296875 C0.28232508 51.98923811 0.28232508 51.98923811 -4 61 C-3.41992188 61.56847656 -2.83984375 62.13695313 -2.2421875 62.72265625 C1.95361335 66.86999075 5.97192049 70.96256065 9.515625 75.6875 C13.73135116 79.41508944 21.54388261 78.45806461 26.8125 78.38671875 C30.16208585 78.28463702 30.16208585 78.28463702 32.5625 75.75 C33.32023816 74.05202172 33.32023816 74.05202172 34 72 C34.43699219 71.04480469 34.87398437 70.08960937 35.32421875 69.10546875 C38.62171181 62.31982365 38.62171181 62.31982365 39 55 C37.75907789 52.07388902 36.20584979 49.40376059 34.5625 46.6875 C34.16095703 45.94693359 33.75941406 45.20636719 33.34570312 44.44335938 C32.04125124 42.28254977 30.92127486 40.64176537 29 39 C25.06612689 38.13610267 21.32688654 39.04507886 17.35546875 38.91015625 Z M-56 69 C-57.2684375 70.0209375 -57.2684375 70.0209375 -58.5625 71.0625 C-60.26068303 72.94926666 -60.26068303 72.94926666 -60 75.625 C-59.67 76.73875 -59.34 77.8525 -59 79 C-58.82984375 79.73347656 -58.6596875 80.46695313 -58.484375 81.22265625 C-55.89217884 89.92305931 -49.21025905 94.98377179 -42 100 C-40.10348822 101.23941296 -40.10348822 101.23941296 -38 101 C-32.73894494 98.52638113 -27.76584445 95.26438581 -25 90 C-23.97295549 83.21654719 -25.27062003 75.28641739 -28 69 C-30.20303584 66.87987305 -30.20303584 66.87987305 -33 66 C-33.90878906 65.61457031 -34.81757813 65.22914062 -35.75390625 64.83203125 C-36.68074219 64.49558594 -37.60757813 64.15914063 -38.5625 63.8125 C-39.49191406 63.46832031 -40.42132813 63.12414062 -41.37890625 62.76953125 C-48.58158439 60.65488506 -51.11830181 64.39782645 -56 69 Z M-13 73 C-15.36722279 75.73588863 -17.12410735 78.91278973 -19 82 C-19.47179687 82.73089844 -19.94359375 83.46179688 -20.4296875 84.21484375 C-25.34720719 92.26037153 -26.35069836 100.70649347 -26 110 C-24.08588443 110.98414433 -22.1686033 111.96213349 -20.25 112.9375 C-18.64898437 113.75541016 -18.64898437 113.75541016 -17.015625 114.58984375 C-10.36053186 117.70187565 -3.22472334 118.43242077 4 117 C8.22711833 114.01236865 11.0419644 110.182638 14 106 C14.88056711 104.83683839 15.76341433 103.6753997 16.6484375 102.515625 C21.14569209 97.19416282 21.14569209 97.19416282 22.9765625 90.83984375 C21.72601196 88.48380654 20.25194094 87.18525791 18.1875 85.5 C14.10080527 82.12636833 14.10080527 82.12636833 12.3671875 79.953125 C8.69137388 76.92027548 4.52041885 76.28579829 -0.0625 75.25 C-0.97322266 75.02957031 -1.88394531 74.80914062 -2.82226562 74.58203125 C-7.8571015 73.37801618 -7.8571015 73.37801618 -13 73 Z " fill="#FFFFFF" transform="translate(164,11)"/>
</svg>
