<?xml version="1.0" standalone="no"?>
<!DOCTYPE svg PUBLIC "-//W3C//DTD SVG 20010904//EN"
 "http://www.w3.org/TR/2001/REC-SVG-20010904/DTD/svg10.dtd">
<svg version="1.0" xmlns="http://www.w3.org/2000/svg"
 width="632.000000pt" height="288.000000pt" viewBox="0 0 632.000000 288.000000"
 preserveAspectRatio="xMidYMid meet">

<g transform="translate(0.000000,288.000000) scale(0.100000,-0.100000)"
fill="#000000" stroke="none">
<path d="M2916 2774 c-214 -33 -424 -112 -604 -228 -83 -53 -232 -176 -232
-191 0 -6 11 -21 23 -34 l24 -22 49 46 c175 161 428 288 679 341 71 15 132 19
295 19 163 0 224 -4 295 -19 249 -52 504 -178 674 -332 l64 -58 24 28 24 29
-33 34 c-18 19 -71 63 -118 97 -279 207 -588 307 -937 305 -76 -1 -178 -7
-227 -15z"/>
<path d="M2955 2615 c-5 -2 -54 -13 -107 -25 -89 -19 -98 -24 -98 -44 0 -46
50 -266 66 -290 27 -42 71 -50 166 -31 114 22 107 18 98 60 -5 20 -11 39 -13
42 -3 2 -42 -3 -87 -12 -87 -18 -99 -14 -100 26 0 18 15 23 91 34 64 9 69 15
62 58 -6 42 -8 43 -103 22 -69 -15 -83 -10 -78 30 3 16 17 22 83 35 85 16 94
25 81 76 -6 23 -29 30 -61 19z"/>
<path d="M3372 2574 c-13 -9 -28 -28 -33 -43 -16 -40 -69 -244 -69 -264 0 -15
51 -47 73 -47 3 0 13 32 23 70 20 78 21 79 100 55 72 -22 81 -20 94 21 7 19
10 37 8 39 -2 2 -37 12 -78 22 -75 19 -90 32 -71 63 9 12 18 12 73 1 35 -8 73
-16 84 -18 18 -4 24 2 34 32 7 20 10 39 7 41 -10 11 -153 44 -187 44 -20 0
-46 -7 -58 -16z"/>
<path d="M2422 2421 l-33 -28 70 -84 c39 -46 76 -94 82 -107 16 -29 3 -68 -33
-95 -43 -32 -69 -17 -154 86 -43 50 -82 93 -88 94 -6 2 -24 -9 -39 -23 -25
-21 -27 -27 -15 -42 76 -98 156 -187 182 -203 83 -50 216 13 245 117 9 34 3
72 -17 110 -13 25 -152 198 -160 201 -4 1 -22 -11 -40 -26z"/>
<path d="M3761 2270 c-84 -55 -158 -101 -165 -104 -14 -6 29 -44 59 -52 17 -4
46 10 114 55 50 34 94 61 99 61 8 0 2 -25 -23 -99 -4 -11 -8 -11 -20 -1 -12
10 -20 9 -40 -4 -32 -21 -31 -27 5 -51 26 -17 30 -25 25 -50 -4 -26 1 -37 30
-65 l34 -33 9 24 c5 13 31 98 57 189 26 91 50 170 52 176 6 17 -37 54 -61 53
-12 0 -90 -45 -175 -99z"/>
<path d="M2993 2136 c-127 -24 -247 -73 -349 -143 -47 -31 -154 -130 -154
-141 1 -4 10 -18 20 -31 l20 -23 65 60 c242 227 604 281 910 138 90 -43 186
-111 238 -169 l27 -31 28 27 27 28 -60 57 c-109 103 -242 176 -395 216 -88 23
-285 29 -377 12z"/>
<path d="M365 1661 c-106 -26 -189 -92 -229 -180 -66 -148 -36 -338 69 -430
69 -61 111 -76 210 -76 116 0 179 26 236 97 39 50 68 122 55 136 -4 4 -34 7
-66 7 -58 0 -61 -1 -110 -50 -49 -49 -52 -50 -110 -50 -70 0 -103 20 -140 86
-36 64 -34 168 4 232 30 53 57 74 103 83 60 11 103 -4 151 -53 44 -46 44 -46
99 -40 31 3 60 10 66 16 13 13 -16 91 -48 129 -33 39 -110 78 -179 91 -66 12
-68 12 -111 2z"/>
<path d="M982 1645 c-24 -7 -61 -25 -82 -40 -151 -104 -175 -389 -45 -533 64
-71 126 -96 240 -97 79 0 97 3 147 28 115 57 170 157 170 312 1 116 -25 188
-91 255 -79 82 -219 113 -339 75z m194 -144 c52 -32 77 -83 82 -172 4 -65 1
-85 -18 -123 -32 -67 -71 -91 -147 -91 -47 0 -68 5 -90 21 -110 82 -104 295
11 365 41 25 121 25 162 0z"/>
<path d="M5265 1632 c-103 -49 -164 -135 -183 -257 -26 -162 49 -315 183 -377
77 -35 200 -33 277 5 67 33 109 77 133 141 25 64 17 76 -50 76 -52 0 -58 -3
-109 -49 -100 -91 -201 -77 -259 34 -31 61 -30 166 3 225 34 60 80 90 139 90
50 0 76 -14 129 -69 32 -32 35 -33 89 -28 31 3 60 10 66 16 14 14 2 52 -35
107 -49 72 -124 108 -237 112 -78 3 -92 0 -146 -26z"/>
<path d="M1508 1644 c-17 -5 -18 -29 -18 -328 l0 -323 73 -6 c39 -3 73 -4 74
-3 2 2 14 355 13 390 0 5 45 -64 100 -155 56 -90 116 -179 134 -198 31 -30 41
-34 105 -39 l71 -5 0 332 0 331 -75 0 -75 0 0 -196 c0 -107 -3 -193 -8 -190
-4 2 -54 81 -112 176 -69 112 -115 178 -135 190 -31 19 -116 33 -147 24z"/>
<path d="M2403 1640 c-149 -5 -164 -7 -184 -26 -33 -33 -38 -87 -39 -371 l0
-263 70 0 c66 0 71 1 80 26 6 14 10 75 10 135 l0 109 78 0 c42 0 88 6 101 13
32 16 59 55 67 95 l7 32 -133 0 -133 0 6 41 c9 70 19 74 172 74 l135 0 0 73 0
72 -37 -2 c-21 -1 -111 -4 -200 -8z"/>
<path d="M2898 1640 c-83 -11 -150 -59 -191 -135 -18 -34 -22 -61 -25 -176 -3
-123 -2 -141 18 -187 24 -56 83 -116 134 -137 17 -7 95 -16 174 -20 l143 -7
-3 73 -3 73 -105 -3 c-96 -2 -108 0 -139 21 -37 25 -76 81 -67 97 3 5 47 9 97
10 51 1 103 7 117 14 33 16 60 54 68 95 l7 32 -147 0 -147 0 6 23 c4 12 22 37
41 56 l33 35 116 4 116 5 -3 66 -3 66 -90 1 c-49 1 -116 -2 -147 -6z"/>
<path d="M3245 1639 c-3 -8 -4 -158 -3 -334 l3 -320 78 -3 77 -3 0 255 0 255
46 7 c72 10 135 -2 162 -31 42 -49 25 -106 -42 -136 -72 -32 -96 -61 -96 -117
0 -42 7 -59 40 -108 78 -115 73 -112 178 -118 58 -3 92 -1 92 5 0 5 -31 51
-69 101 l-69 92 37 26 c57 42 88 85 100 140 14 65 14 66 -4 128 -19 62 -63
115 -118 144 -35 17 -65 21 -223 26 -152 4 -184 3 -189 -9z"/>
<path d="M4128 1640 c-107 -5 -115 -7 -160 -38 -92 -63 -118 -126 -118 -286 0
-174 36 -248 148 -303 52 -26 68 -28 190 -31 l132 -4 0 71 0 71 -100 0 c-139
0 -192 25 -206 98 l-6 32 92 0 c105 0 146 14 173 59 9 16 17 41 17 55 l0 26
-144 0 -144 0 11 30 c6 17 23 42 37 55 23 22 34 24 140 27 l115 3 3 73 3 73
-35 -3 c-19 -2 -86 -5 -148 -8z"/>
<path d="M4422 1319 l3 -334 78 -3 78 -3 -3 201 c-2 110 0 199 4 198 4 -2 56
-81 115 -177 59 -96 120 -183 136 -195 18 -14 47 -21 91 -24 l63 -4 7 32 c8
42 8 228 -1 458 l-6 182 -58 0 c-96 0 -90 14 -89 -202 1 -104 0 -191 -2 -193
-2 -3 -53 74 -112 170 -59 96 -120 184 -136 195 -18 13 -52 22 -99 26 l-71 7
2 -334z"/>
<path d="M5990 1640 c-82 -8 -142 -39 -180 -91 -53 -74 -63 -114 -58 -251 4
-142 17 -177 90 -245 59 -54 89 -62 243 -65 l130 -3 3 68 3 67 -106 0 c-126 0
-170 17 -198 75 -9 20 -15 40 -12 44 2 5 51 10 107 13 114 5 140 15 163 64 33
69 23 74 -152 74 -68 0 -123 2 -123 5 0 15 31 62 53 83 22 21 38 24 141 29
l116 6 0 68 0 69 -77 -1 c-43 -1 -107 -5 -143 -9z"/>
<path d="M3357 759 c-164 -26 -265 -161 -255 -337 11 -187 128 -293 321 -293
104 0 169 22 221 75 69 68 90 193 41 241 -23 24 -29 25 -164 25 -77 0 -142 -3
-144 -7 -9 -17 15 -74 38 -89 14 -9 54 -19 90 -22 73 -5 79 -15 39 -56 -52
-52 -159 -58 -225 -13 -104 71 -97 271 11 329 22 11 56 18 93 18 53 0 62 -3
91 -32 18 -18 37 -41 43 -51 9 -18 12 -18 72 -2 34 10 64 22 67 26 9 15 -34
84 -74 121 -64 58 -165 84 -265 67z"/>
<path d="M1492 480 l3 -282 33 -29 32 -29 178 0 177 0 -2 62 -1 63 -132 0
c-105 0 -132 3 -140 15 -5 8 -10 117 -10 246 l0 231 -70 2 -71 2 3 -281z"/>
<path d="M2165 750 c-63 -9 -101 -29 -141 -72 -53 -55 -67 -94 -72 -198 -7
-138 9 -201 65 -261 61 -65 106 -79 255 -79 l118 0 0 63 0 62 -104 0 c-114 0
-148 11 -172 57 -26 51 -22 55 80 61 103 6 129 17 151 63 30 63 29 64 -115 64
-143 0 -145 1 -115 59 21 43 66 56 173 54 l92 -2 0 64 0 65 -62 0 c-35 0 -72
2 -83 4 -11 2 -43 0 -70 -4z"/>
<path d="M2750 753 l-65 -4 -123 -297 c-67 -163 -122 -300 -122 -304 0 -5 35
-8 78 -8 l77 0 21 53 c12 28 48 121 80 205 32 83 62 152 66 152 3 0 12 -17 18
-37 7 -21 23 -64 36 -95 13 -32 24 -60 24 -63 0 -3 -27 -5 -60 -5 -56 0 -60
-2 -60 -23 0 -12 7 -33 16 -46 20 -28 88 -60 126 -61 22 0 32 -8 48 -40 l20
-40 75 0 c41 0 75 4 75 8 0 8 -137 348 -212 526 -18 44 -38 80 -43 81 -6 0
-39 -1 -75 -2z"/>
<path d="M3787 754 c-11 -11 -8 -359 3 -429 13 -81 50 -132 122 -169 49 -24
68 -28 136 -28 91 0 133 15 190 66 64 59 72 95 72 343 l0 213 -70 0 -70 0 0
-194 c0 -114 -4 -206 -11 -223 -26 -69 -94 -98 -163 -69 -59 25 -66 53 -66
286 l0 200 -39 0 c-21 0 -51 3 -67 6 -16 3 -32 2 -37 -2z"/>
<path d="M4533 726 c-57 -27 -106 -84 -124 -146 -18 -58 -7 -267 15 -310 46
-89 101 -119 240 -131 56 -5 118 -7 139 -3 l38 6 -3 61 -3 62 -105 0 c-120 0
-152 12 -175 68 -19 45 -4 59 59 56 100 -5 124 0 156 29 16 15 33 42 36 60 l7
32 -130 0 c-71 0 -132 3 -136 6 -9 9 22 66 47 86 17 14 42 18 129 18 l107 0 0
65 0 65 -122 0 c-109 0 -129 -3 -175 -24z"/>
</g>
</svg>
