<?xml version="1.0" encoding="UTF-8"?>
<svg version="1.1" xmlns="http://www.w3.org/2000/svg" width="2383" height="2886">
<path d="M0 0 C1.22589844 0.03996094 2.45179688 0.07992187 3.71484375 0.12109375 C12.74008137 0.49008137 12.74008137 0.49008137 15 2.75 C17.12417313 3.32396034 17.12417313 3.32396034 19.5625 3.6875 C32.28202847 6.03202847 32.28202847 6.03202847 36 9.75 C38.24483884 10.56359434 40.51471383 11.20976099 42.80859375 11.87109375 C45.18794584 12.82537935 46.32696786 13.8393775 48 15.75 C48.556875 16.306875 49.11375 16.86375 49.6875 17.4375 C50.120625 17.870625 50.55375 18.30375 51 18.75 C50.67 19.08 50.34 19.41 50 19.75 C50.886875 20.28625 51.77375 20.8225 52.6875 21.375 C56.13266695 23.64751623 58.36996816 26.58047445 61 29.75 C61.86625 30.20375 62.7325 30.6575 63.625 31.125 C66.66371044 33.20411767 67.1704246 35.08365405 68.2265625 38.51953125 C69.22655468 41.40334709 70.62870332 44.024721 72 46.75 C77.19003211 58.59759053 76.81654061 71.04280142 77 83.75 C77.04001829 85.50261211 77.0803592 87.25521689 77.12109375 89.0078125 C77.14568285 90.54683775 77.16798367 92.08590206 77.1875 93.625 C77.20071289 94.32592773 77.21392578 95.02685547 77.22753906 95.74902344 C77.23007125 97.41773828 77.1249085 99.0859647 77 100.75 C76.34 101.41 75.68 102.07 75 102.75 C74.01 102.75 73.02 102.75 72 102.75 C69.23802645 108.71062276 69.79553597 114.3025676 70 120.75 C70.00870117 121.40516602 70.01740234 122.06033203 70.02636719 122.73535156 C70.05444868 124.7407571 70.12081432 126.7455068 70.1875 128.75 C70.22230469 129.966875 70.25710938 131.18375 70.29296875 132.4375 C71.17881196 136.58774886 72.92246487 137.92618533 76 140.75 C77.109375 143.06640625 77.109375 143.06640625 77.75 145.3125 C78.08257813 146.42818359 78.08257813 146.42818359 78.421875 147.56640625 C78.61265625 148.28699219 78.8034375 149.00757813 79 149.75 C79.1959375 150.348125 79.391875 150.94625 79.59375 151.5625 C81.8734565 163.83784271 78.35606465 179.41033384 72.37890625 190.04296875 C70.6850661 192.13987568 69.57853954 192.93596371 67 193.75 C63.75 193.375 63.75 193.375 61 192.75 C60.65623559 194.85248769 60.32564271 196.95712942 60 199.0625 C59.814375 200.23425781 59.62875 201.40601563 59.4375 202.61328125 C59.03930893 205.70509526 58.96970549 208.7040193 59.00390625 211.8203125 C59.07108012 218.68442108 58.47245062 225.47373644 57.9375 232.3125 C57.24701968 241.54011001 56.84342785 250.57903506 57.61523438 259.81420898 C57.9887221 264.42403613 57.8572747 268.77178882 57.4375 273.375 C56.76033414 281.6435515 56.15108627 292.52276566 60.9296875 299.61328125 C63.13387604 301.88817017 65.2462218 303.20519759 68 304.75 C69.67423683 306.07381517 71.34211215 307.40576661 73 308.75 C79.31827078 311.90913539 88.31103981 309.33380063 94.875 307.875 C96.62990092 307.50375222 98.38510911 307.13395383 100.140625 306.765625 C101.39456055 306.49975586 101.39456055 306.49975586 102.67382812 306.22851562 C106.46470976 305.44869531 110.27751722 304.83328598 114.1015625 304.2421875 C121.86578891 302.92373396 129.38715005 301.17226522 136.9375 298.9375 C138.78608459 298.4023531 140.63505166 297.86852587 142.484375 297.3359375 C143.40669922 297.07006836 144.32902344 296.80419922 145.27929688 296.53027344 C172.75541997 288.65036592 197.10372877 284.6135832 225.22705078 292.0234375 C227.8937787 292.72216811 230.56657887 293.38348815 233.24609375 294.03125 C245.60915571 297.03640104 257.90894368 300.28799166 270.2144165 303.5189209 C275.69982919 304.9585728 281.18620797 306.39454171 286.67269897 307.83007812 C290.37897962 308.80011159 294.08456673 309.7723898 297.78808594 310.75292969 C312.69766951 314.69761772 327.65153474 317.68754154 342.86621094 320.21386719 C345.57988425 320.67812604 348.27717801 321.1866856 350.9765625 321.7265625 C373.1451246 326.01601512 394.74608346 324.11171456 416.70678711 319.96191406 C424.32678796 318.52464973 431.79045012 317.27735234 439.5625 317.0625 C452.8238321 316.66189726 463.67319997 311.07200573 475.28125 305.046875 C478.16427117 303.67164076 479.85284421 303.40031602 483 303.75 C483.66 304.08 484.32 304.41 485 304.75 C487.36229041 303.94401543 487.36229041 303.94401543 490.0234375 302.65234375 C491.54735107 301.94851563 491.54735107 301.94851563 493.10205078 301.23046875 C494.18212402 300.72128906 495.26219727 300.21210937 496.375 299.6875 C497.4666748 299.17960937 498.55834961 298.67171875 499.68310547 298.1484375 C507.87853188 294.32056027 515.99755938 290.37465716 524.0078125 286.171875 C526.64188371 284.92017536 528.93015489 284.16237972 531.75 283.5 C535.69301025 282.37929322 538.47203623 280.89058144 541.75 278.4375 C546.43777387 274.9773055 551.12154951 272.80240535 556.50390625 270.609375 C562.52386197 268.1554886 568.44068544 265.46501421 574.375 262.8125 C587.6428226 256.88777785 587.6428226 256.88777785 592.94921875 254.62890625 C601.53169739 250.97536825 609.52868348 246.96934789 617.125 241.5 C620.72907419 239.30621571 623.87973504 238.60246861 628 237.75 C625.81482901 240.15575607 623.74080329 241.54535581 620.8125 242.9375 C620.09707031 243.28167969 619.38164063 243.62585938 618.64453125 243.98046875 C618.10183594 244.23441406 617.55914063 244.48835937 617 244.75 C617.95777344 244.38648438 618.91554688 244.02296875 619.90234375 243.6484375 C623.50969072 242.2834086 627.12306357 240.93500171 630.73876953 239.59228516 C632.1629938 239.06177622 633.58602712 238.52804811 635.00732422 237.98974609 C645.35754181 234.07791481 655.85089239 231.05175091 666.56396484 228.28540039 C676.97363096 225.58170538 686.93691889 222.7286666 696.3125 217.375 C704.00839364 213.14221501 711.78342428 209.84554713 720 206.75 C723.33999259 205.43308864 726.66991541 204.09173311 730 202.75 C730.83789062 202.41871094 731.67578125 202.08742188 732.5390625 201.74609375 C759.70396655 190.78725823 759.70396655 190.78725823 784.171875 174.98828125 C786.88361232 173.15148482 789.77328549 172.37757741 792.890625 171.453125 C796.93582576 170.10472475 799.98829123 168.04164761 802.609375 164.6953125 C804.51640205 160.65627206 804.60251924 156.91375926 804.875 152.5 C805.49202622 145.09987812 806.60811296 139.8681779 811 133.75 C816.3275008 124.75772158 820.62609755 115.28470034 824.4375 105.5625 C826.02194505 101.67203141 827.74549641 98.56619694 830.3125 95.25 C834.48213422 89.68140353 836.70522396 83.45305988 839.0715332 76.96875 C841.10341245 71.5179094 843.5066665 67.39630565 847 62.75 C848.15732326 60.45827328 848.15732326 60.45827328 848.9375 58.3125 C850.95410127 53.52817473 853.71324992 49.73912407 857 45.75 C857.598125 44.925 858.19625 44.1 858.8125 43.25 C862.32368157 40.84233264 865.88899425 41.00047962 870 41.75 C874.23544645 44.68223216 875.46691654 48.51104947 876.625 53.375 C877.61197301 62.2577571 877.62485993 69.84174504 873 77.75 C871.03938532 80.17945733 869.00555728 82.43120371 866.8046875 84.64453125 C863.06898129 89.00285516 862.68561485 93.12494171 862.625 98.75 C862.58246094 100.544375 862.58246094 100.544375 862.5390625 102.375 C863.0834206 106.36080843 864.19796095 107.92258016 867 110.75 C874.88744449 115.72251935 885.13059016 114.58278935 893.9375 112.75 C904.39745411 109.77540691 913.71678557 104.14946471 921.94921875 97.1484375 C927.14576687 93.06305908 932.72237822 89.53378423 938.24389648 85.90625 C943.00510908 82.77084835 947.65535857 79.58237647 952.1875 76.125 C958.74402037 71.28294217 965.70009654 67.71251207 974 68.75 C976.46278801 71.21278801 976.99771255 73.45676982 978 76.75 C981.153368 77.45074844 983.72724974 77.75 987 77.75 C989.15571379 80.05438371 990.00175474 81.76383332 989.99609375 84.9453125 C989.6760602 88.02373048 989.23699258 90.95140682 988.35546875 93.921875 C988.23816406 94.52515625 988.12085937 95.1284375 988 95.75 C988.515625 96.306875 989.03125 96.86375 989.5625 97.4375 C991.2684054 100.18178259 991.11535532 100.90082067 990.5625 104 C988.12738414 113.05744316 979.85346884 121.80522332 972 126.75 C971.34 126.75 970.68 126.75 970 126.75 C969.26694336 130.73636205 969.26694336 130.73636205 969 134.75 C970.43750191 136.43798827 970.43750191 136.43798827 972 137.75 C971.79773618 142.62118702 969.43912795 144.70843242 966 147.9375 C962.55497294 151.00987953 962.55497294 151.00987953 960 154.75 C959.34 154.75 958.68 154.75 958 154.75 C957.77699219 155.29140625 957.55398438 155.8328125 957.32421875 156.390625 C955.57929599 159.49957292 953.24743767 161.92922144 950.8125 164.5 C949.80634829 165.57463835 948.8011382 166.6501591 947.796875 167.7265625 C947.31154297 168.24637695 946.82621094 168.76619141 946.32617188 169.30175781 C944.67298289 171.10711809 943.11953176 172.98652089 941.5625 174.875 C932.46380349 185.23089346 920.89707423 192.26485577 909.24755859 199.37646484 C907.22703622 200.6112529 905.21506629 201.85832688 903.20703125 203.11328125 C900.15040035 205.01606086 897.09471168 206.90979421 894 208.75 C893.35909424 209.13679932 892.71818848 209.52359863 892.05786133 209.92211914 C885.93760098 213.48911671 879.60780519 215.96247272 872.9375 218.3125 C871.83494873 218.70453613 870.73239746 219.09657227 869.59643555 219.50048828 C859.89076755 222.89445569 850.25414906 225.51445528 840.1640625 227.5078125 C833.60577618 228.81397015 828.52563874 229.95789498 823 233.75 C821.58401691 234.68853214 820.16729009 235.62594275 818.75 236.5625 C817.986875 237.07683594 817.22375 237.59117187 816.4375 238.12109375 C812.01045052 241.0795547 807.5068849 243.91521734 803 246.75 C801.989375 247.39066406 800.97875 248.03132812 799.9375 248.69140625 C790.75852215 254.43951615 781.29710358 259.53899152 771.65234375 264.45703125 C764.63188244 268.09948202 758.23884459 272.26798159 751.8828125 276.94140625 C748.24109065 279.60824661 744.50450149 282.11921232 740.75488281 284.63110352 C733.86293814 289.25730458 727.40348994 293.90919869 721.32421875 299.5859375 C711.02274827 309.17755876 700.22502384 314.76455183 687.515625 320.6640625 C677.75566878 325.21967411 668.38587148 330.47742796 659 335.75 C657.93023926 336.34603027 657.93023926 336.34603027 656.83886719 336.95410156 C651.35336531 340.01111212 645.93145005 343.10011594 640.71875 346.609375 C636.00892015 349.77558909 631.18712251 352.72072613 626.3125 355.625 C625.44036865 356.14674805 624.5682373 356.66849609 623.66967773 357.20605469 C618.66400305 360.19168569 613.63456229 363.12876096 608.5625 366 C603.15868149 369.06363168 597.85282161 372.2547107 592.578125 375.53515625 C589.85098032 377.23059919 587.10816251 378.89847371 584.359375 380.55859375 C583.55532227 381.04545654 582.75126953 381.53231934 581.92285156 382.03393555 C580.3430652 382.9898623 578.76175344 383.94327405 577.17871094 384.89379883 C573.21650501 387.29729781 569.59349372 389.81195953 566 392.75 C563.50608537 394.51877988 560.97031729 396.22505779 558.4375 397.9375 C553.46263754 401.32149425 548.58440877 404.77267406 543.8125 408.4375 C536.09522783 414.29342468 527.92803551 419.27052123 519.3125 423.6875 C514.29037891 426.35915162 510.46260733 429.76373784 506.33203125 433.640625 C497.39611091 441.72336701 486.45078053 444.95020499 474.8125 447 C454.65374176 450.79430179 434.76359256 456.12178059 415.1476593 462.09988403 C413.00282591 462.74914457 410.85497836 463.3872182 408.70581055 464.02197266 C395.39772361 467.96143123 382.18928014 472.18091578 369 476.5 C367.38792664 477.02756897 367.38792664 477.02756897 365.74328613 477.5657959 C285.75795762 499.54310887 285.75795762 499.54310887 226 550.75 C222.83045893 558.76441098 221.6718165 567.40189164 220.14453125 575.8515625 C219.88451576 577.28769394 219.88451576 577.28769394 219.61924744 578.75283813 C213.58033909 612.1851109 208.17099179 645.57387903 204.49731445 679.35522461 C203.46651634 688.82483245 202.28911338 698.25704166 200.9375 707.6875 C199.02913197 721.00351038 197.83123796 733.94049252 197.86962891 747.39208984 C197.87497433 749.61432773 197.86965992 751.83636208 197.86328125 754.05859375 C197.86034854 760.34698196 197.92180129 766.59413482 198.48046875 772.86328125 C199.00157887 778.8235942 199.14856917 784.75922724 199.24609375 790.73828125 C199.26275085 791.73303467 199.27940796 792.72778809 199.29656982 793.75268555 C199.36294057 797.89389016 199.42453172 802.03510592 199.47680664 806.17651367 C199.69465353 822.71330986 200.41637428 838.4224667 204.9375 854.4375 C205.47106139 856.41248802 206.0036209 858.38774699 206.53515625 860.36328125 C206.78797363 861.29092285 207.04079102 862.21856445 207.30126953 863.17431641 C210.71023881 875.74057284 213.33381349 885.70570069 207 897.75 C206.0655932 898.95641741 205.10850717 900.1457641 204.125 901.3125 C202.62367427 903.28001506 201.96775193 904.23311097 202.12409973 906.73913574 C202.307202 907.45363892 202.49030426 908.16814209 202.67895508 908.90429688 C202.88203278 909.69900391 203.08511047 910.49371094 203.29434204 911.3125 C204.40886412 915.16230788 205.67106819 918.94231088 207.01171875 922.71875 C207.6075611 924.42819881 208.20308965 926.13775702 208.79833984 927.84741211 C209.10713074 928.72928192 209.41592163 929.61115173 209.73406982 930.51974487 C215.4125893 946.78082755 220.83330892 963.02605556 225 979.75 C225.15621826 980.37525574 225.31243652 981.00051147 225.47338867 981.64471436 C234.25396404 1016.87500877 241.74663932 1052.87659723 244 1089.1875 C245.90532839 1119.57320488 251.65934643 1148.39391428 260.38745117 1177.52441406 C263.61819917 1188.49447121 265.95904792 1199.6477725 268.36523438 1210.82128906 C272.12663254 1228.17580154 276.94765123 1246.19698033 284.6875 1262.25 C287.19381447 1268.93350525 286.41710226 1274.39206171 283.68359375 1280.8203125 C280.25018288 1286.79492538 275.63243471 1291.97921274 271.15161133 1297.19116211 C264.56806714 1306.10274354 270.02111199 1325.66660126 271.203125 1335.7734375 C271.94067027 1342.11248178 272.57329724 1348.45473125 273.125 1354.8125 C273.2082251 1355.76157227 273.2914502 1356.71064453 273.37719727 1357.68847656 C273.72823002 1361.85730818 274.0346267 1366.01347889 274.16796875 1370.1953125 C274.58371174 1383.03174588 276.93265637 1395.36230342 279.30175781 1407.96777344 C281.17018875 1418.08865876 282.82647362 1428.24728602 284.4609375 1438.40820312 C284.78853726 1440.43908423 285.12064253 1442.46925438 285.4609375 1444.49804688 C291.66024303 1481.72312209 295.55079673 1523.53128506 286.0625 1560.375 C278.89987098 1588.43514183 277.18826094 1617.72737855 285.37304688 1645.59033203 C290.48439805 1663.19742412 295.4371941 1680.86975205 297.5078125 1699.125 C297.88310077 1701.88902792 298.35259071 1704.53032397 298.92724609 1707.25292969 C300.07155491 1712.91680408 300.88754596 1718.60276563 301.65625 1724.328125 C301.87794861 1725.95992706 301.87794861 1725.95992706 302.10412598 1727.62469482 C302.41495776 1729.9204752 302.72413454 1732.2164802 303.03173828 1734.51269531 C303.49320362 1737.94938504 303.96305747 1741.38485456 304.43359375 1744.8203125 C306.21398177 1757.95760104 307.70283783 1771.08134373 308.7956543 1784.29345703 C309.10802702 1788.04864743 309.44499715 1791.80157332 309.78125 1795.5546875 C309.90241463 1796.91405618 310.02350955 1798.27343108 310.14453125 1799.6328125 C310.20334473 1800.2918457 310.2621582 1800.95087891 310.32275391 1801.62988281 C310.44186486 1802.97061934 310.56001404 1804.31144163 310.67724609 1805.65234375 C311.45603197 1814.54543839 312.40618398 1823.39689688 313.54931641 1832.25 C313.89402711 1834.9270166 314.22324242 1837.60335862 314.52734375 1840.28515625 C316.5504513 1857.68388116 320.80820145 1874.43008854 325.13769531 1891.37451172 C325.91742138 1894.42674633 326.68967795 1897.48077482 327.4609375 1900.53515625 C327.88983119 1902.21114084 328.31945951 1903.8869377 328.75 1905.5625 C329.0291626 1906.67093262 329.0291626 1906.67093262 329.31396484 1907.80175781 C333.19996022 1922.71256909 341.42263201 1931.44881904 354.45068359 1939.28076172 C360.45396277 1942.74060984 366.6085187 1945.93342928 372.73434448 1949.16983032 C381.30123221 1953.69908429 389.66417494 1958.4182362 397.8046875 1963.68359375 C400.58646146 1965.48256493 403.39461883 1967.19668035 406.25 1968.875 C415.9998346 1974.71196565 425.07845409 1981.18249508 433.94946289 1988.26977539 C438.17202667 1991.58398249 442.01667921 1993.7760479 447 1995.75 C448.9765625 1997.00390625 448.9765625 1997.00390625 450.625 1998.3125 C451.29273438 1998.828125 451.96046875 1999.34375 452.6484375 1999.875 C454.43495204 2001.29946342 456.2087742 2002.73986234 457.9765625 2004.1875 C464.13392508 2009.15817088 469.58330883 2012.61765907 477.06640625 2015.41015625 C484.20373679 2018.66994903 490.2265082 2023.88403119 494 2030.75 C494.680625 2031.719375 495.36125 2032.68875 496.0625 2033.6875 C499.67241549 2039.39349545 501.09827466 2045.0615073 500 2051.75 C497.86980461 2056.93620646 495.14631776 2062.11788645 490.01953125 2064.77734375 C489.29121094 2065.07769531 488.56289062 2065.37804688 487.8125 2065.6875 C484.05557881 2067.27837868 480.43403361 2069.0184645 476.82421875 2070.91796875 C463.59045569 2076.95392492 444.33490036 2072.49744892 431 2068.75 C430.12456543 2068.26418457 430.12456543 2068.26418457 429.23144531 2067.76855469 C426.09756262 2066.33807782 422.8645402 2065.90940408 419.48828125 2065.3828125 C417.99278765 2065.13442079 416.49734659 2064.88571261 415.00195312 2064.63671875 C412.66387072 2064.25498103 410.32530151 2063.87703352 407.9855957 2063.50537109 C397.27234886 2061.79116078 388.29530109 2059.52816013 379 2053.75 C373.88123096 2050.79231373 368.9885434 2049.77246715 363.25 2048.75 C357.2055348 2047.60828577 351.30471065 2046.42212749 345.4453125 2044.5234375 C340.40441804 2042.92903318 335.26608539 2041.66153706 330.15380859 2040.31787109 C327.8578316 2039.71251602 325.56361999 2039.10075132 323.26953125 2038.48828125 C319.22595707 2037.40991375 315.17641433 2036.35614979 311.12451172 2035.30957031 C309.34878499 2034.84186569 307.58138573 2034.34269234 305.81640625 2033.8359375 C297.09903092 2031.49395607 288.27197368 2031.0638795 279.28686523 2030.65942383 C267.9337883 2030.01200647 260.73101283 2026.10978282 253 2017.75 C247.84649136 2010.53069259 244.85001271 2004.16729608 244.4375 1995.25 C244.36693534 1993.83197861 244.29530367 1992.41400996 244.22265625 1990.99609375 C244.1880127 1990.2882373 244.15336914 1989.58038086 244.11767578 1988.85107422 C243.8797293 1984.60259412 243.47067084 1980.36617214 243.0859375 1976.12890625 C243.05757812 1975.34386719 243.02921875 1974.55882813 243 1973.75 C243.33 1973.42 243.66 1973.09 244 1972.75 C244.35894767 1970.69246068 244.6603733 1968.62483538 244.9375 1966.5546875 C245.11023437 1965.28109375 245.28296875 1964.0075 245.4609375 1962.6953125 C245.64074834 1961.33855801 245.82043478 1959.98178702 246 1958.625 C246.17929513 1957.29161385 246.35897805 1955.95827978 246.5390625 1954.625 C246.87308642 1952.14724047 247.20530444 1949.66923636 247.53515625 1947.19091797 C247.85846044 1944.79771981 248.1980523 1942.40668874 248.55029297 1940.01757812 C248.99822091 1936.76292691 249.13326976 1933.65809659 249.125 1930.375 C249.12757812 1929.33601563 249.13015625 1928.29703125 249.1328125 1927.2265625 C249.27966303 1924.80692102 249.27966303 1924.80692102 248 1923.75 C247.86726456 1922.02425023 247.77330362 1920.29549513 247.6953125 1918.56640625 C247.13422999 1911.23658896 245.14493533 1904.65046048 242.875 1897.6875 C242.46161328 1896.39831584 242.04861362 1895.10900751 241.63598633 1893.81958008 C240.44592401 1890.12238802 239.22525502 1886.43568404 238 1882.75 C237.54681396 1881.36458008 237.54681396 1881.36458008 237.08447266 1879.95117188 C232.14816765 1865.00916295 225.72009669 1849.3711712 216.76953125 1836.375 C215.03397116 1833.8003943 213.96220804 1831.46029465 212.875 1828.5625 C207.58575778 1815.4768824 200.31902136 1803.16629642 193.3996582 1790.88818359 C191.11490712 1786.82270561 188.96851892 1782.71801693 186.90991211 1778.53369141 C185.96100662 1776.61618065 185.96100662 1776.61618065 184.52734375 1774.34765625 C182.22817406 1770.43730371 180.41906497 1766.32269905 178.5625 1762.1875 C178.15926514 1761.29144043 177.75603027 1760.39538086 177.34057617 1759.47216797 C174.87623332 1753.9217559 172.73795972 1748.38695074 170.953125 1742.578125 C169.85521154 1739.32038179 168.47845183 1736.25725708 167.0625 1733.125 C155.23108641 1705.90677327 151.59333855 1672.51047761 159.0234375 1643.65625 C162.36200406 1630.60926844 162.49396254 1618.1759486 162 1604.75 C161.97244629 1603.96383301 161.94489258 1603.17766602 161.91650391 1602.36767578 C161.985842 1592.40867619 161.985842 1592.40867619 158 1583.75 C157.81224323 1581.24657638 157.67417943 1578.75689458 157.5625 1576.25 C156.90559749 1564.87284808 154.31486284 1556.79234614 148.98095703 1546.64453125 C148.01889313 1544.78648848 147.0951304 1542.91453308 146.18359375 1541.03125 C142.36881929 1533.17593899 138.21502754 1525.60499153 133.8125 1518.0625 C129.418323 1510.46116023 125.70487312 1503.13067246 123 1494.75 C122.40558636 1493.00889649 121.81046476 1491.2680346 121.21484375 1489.52734375 C117.33850686 1477.99067214 114.0901678 1466.3948302 111.25 1454.5625 C106.95343738 1436.6809756 101.38055032 1419.2420029 95.66131592 1401.77178955 C95.05309528 1399.91232405 94.44849321 1398.05167596 93.84423828 1396.19091797 C92.90234714 1393.29186205 91.95423716 1390.39501288 91 1387.5 C90.61896118 1386.34238159 90.61896118 1386.34238159 90.23022461 1385.16137695 C88.68170307 1380.54480505 86.92922484 1376.03913089 85.10205078 1371.52636719 C82.93223911 1366.06001843 80.93781695 1360.53011164 78.9375 1355 C78.50373047 1353.82695313 78.06996094 1352.65390625 77.62304688 1351.4453125 C73.9277271 1341.20865802 70.77283611 1331.02870868 71 1320.0625 C70.71620149 1314.12456191 68.60336063 1311.4702697 64.4375 1307.5625 C63.42051978 1306.66728646 62.3987009 1305.77752593 61.37109375 1304.89453125 C60.58863281 1304.18683594 59.80617188 1303.47914062 59 1302.75 C59 1302.09 59 1301.43 59 1300.75 C58.42765625 1300.53601562 57.8553125 1300.32203125 57.265625 1300.1015625 C54.22070386 1298.28510954 52.78605901 1296.01796155 50.75 1293.125 C48.05439936 1289.37266151 45.32169039 1285.91391764 41.9375 1282.75 C33.47173613 1274.59699409 28.7441693 1265.04386136 25.75 1253.8125 C25.41484375 1252.61463867 25.0796875 1251.41677734 24.734375 1250.18261719 C22.38238738 1241.34658559 21.04701204 1232.57193661 20 1223.5 C18.74980126 1212.88480282 16.68437472 1204.99294573 11.20654297 1195.88525391 C8.68606078 1191.42468386 6.65299267 1186.70807995 4.5 1182.0625 C0.94965888 1174.53342341 -2.78434701 1167.33577501 -7.34375 1160.37109375 C-12 1153.00235849 -12 1153.00235849 -12 1149.75 C-13.12695482 1150.87695482 -14.25283727 1152.00499213 -15.375 1153.13671875 C-16.54735162 1154.30061592 -17.73715422 1155.44702687 -18.9375 1156.58203125 C-19.618125 1157.23558594 -20.29875 1157.88914062 -21 1158.5625 C-21.639375 1159.16707031 -22.27875 1159.77164062 -22.9375 1160.39453125 C-28.83949498 1167.13487779 -31.53771301 1174.42074469 -34.0625 1182.9375 C-34.40539063 1184.08371826 -34.74828125 1185.22993652 -35.1015625 1186.41088867 C-40.48470513 1204.84891974 -43.79304485 1222.83585485 -41.62353516 1242.09130859 C-40.62356919 1251.8257768 -41.79450951 1259.92864241 -44.17773438 1269.35302734 C-44.7602788 1271.66580825 -45.3038835 1273.98551712 -45.84375 1276.30859375 C-46.20092102 1277.78699254 -46.56021338 1279.26488083 -46.921875 1280.7421875 C-47.16584015 1281.77942459 -47.16584015 1281.77942459 -47.41473389 1282.83761597 C-47.90917969 1284.75341797 -47.90917969 1284.75341797 -49 1287.75 C-49.99 1288.08 -50.98 1288.41 -52 1288.75 C-52 1289.41 -52 1290.07 -52 1290.75 C-53.46875 1291.828125 -53.46875 1291.828125 -55.5 1293 C-59.10268422 1295.1641343 -62.43613039 1297.51448894 -65.77734375 1300.05859375 C-68.46170502 1302.10135022 -71.16246814 1304.11977762 -73.875 1306.125 C-74.80054688 1306.81335937 -75.72609375 1307.50171875 -76.6796875 1308.2109375 C-79 1309.75 -79 1309.75 -81 1309.75 C-81.2475 1310.45125 -81.495 1311.1525 -81.75 1311.875 C-83.52515669 1315.95786039 -85.71634897 1319.47960982 -88.890625 1322.62109375 C-91.12180381 1324.87293162 -92.98782998 1327.20345732 -94.875 1329.75 C-95.51179688 1330.595625 -96.14859375 1331.44125 -96.8046875 1332.3125 C-102.87896562 1341.31864498 -106.65791335 1351.59382798 -110.3125 1361.75 C-110.78936966 1363.05749081 -111.26634111 1364.3649445 -111.7434082 1365.67236328 C-114.97279479 1374.58529921 -117.87600239 1383.57113954 -120.6875 1392.625 C-123.49744816 1401.64559345 -126.69623913 1409.94645914 -131.16796875 1418.2578125 C-135.12377725 1425.79830887 -137.92342484 1433.86798273 -140.90234375 1441.83203125 C-144.34625806 1451.01552459 -147.89971111 1459.9906909 -152.1640625 1468.828125 C-153.96488187 1472.60257956 -155.57466199 1476.44742405 -157.18579102 1480.3059082 C-162.72615939 1493.55357125 -169.19422035 1506.14964829 -176.34448242 1518.59545898 C-182.05437132 1528.54472039 -186.91817937 1538.8519329 -191.80322266 1549.22607422 C-194.11884025 1554.10956151 -196.55912788 1558.92815445 -199 1563.75 C-200.30862116 1566.39648526 -201.61722268 1569.04296203 -202.921875 1571.69140625 C-204 1573.75 -204 1573.75 -206 1576.75 C-206.66 1576.75 -207.32 1576.75 -208 1576.75 C-208.08636719 1577.41902344 -208.17273437 1578.08804688 -208.26171875 1578.77734375 C-209.03942993 1584.09289261 -210.05831613 1589.1357011 -211.72558594 1594.24975586 C-214.77094467 1603.62968974 -216.13659136 1612.97152533 -217.4074707 1622.73583984 C-218.70612098 1632.40306745 -220.65335744 1641.8146534 -222.86132812 1651.31054688 C-224.27198034 1657.39956467 -225.51958637 1663.44345954 -226.4375 1669.625 C-229.49077248 1689.47948516 -234.73219927 1709.03541312 -242 1727.75 C-242.47373047 1728.98387451 -242.47373047 1728.98387451 -242.95703125 1730.24267578 C-245.22113503 1736.11378555 -247.57832983 1741.94223601 -250 1747.75 C-250.31549805 1748.51022461 -250.63099609 1749.27044922 -250.95605469 1750.05371094 C-256.13599306 1762.42651709 -262.34020601 1774.114869 -269 1785.75 C-269.90298828 1787.33554688 -269.90298828 1787.33554688 -270.82421875 1788.953125 C-274.4814286 1795.21165734 -278.66520803 1800.89788246 -283.25439453 1806.50390625 C-289.43193003 1814.13998163 -294.079065 1821.95162114 -298.125 1830.9375 C-298.42059814 1831.58306854 -298.71619629 1832.22863708 -299.02075195 1832.89376831 C-308.09252464 1852.7785421 -313.37392527 1873.17860304 -317.546875 1894.58984375 C-319.12376234 1902.59048358 -321.07426475 1910.49027316 -323.17236328 1918.36938477 C-325.54086564 1927.68968843 -325.39527441 1936.29314011 -324 1945.75 C-321.80338485 1962.39607111 -324.13512289 1975.79423783 -334 1989.75 C-334.87785156 1991.01263672 -334.87785156 1991.01263672 -335.7734375 1992.30078125 C-343.56922971 2002.78532628 -353.09176098 2009.29062615 -366 2011.75 C-373.02374448 2012.69271287 -379.99899393 2012.80164865 -387.0703125 2012.70703125 C-387.88301102 2012.69691513 -388.69570953 2012.68679901 -389.53303528 2012.67637634 C-392.90194713 2012.6309406 -396.27036999 2012.58267046 -399.63867188 2012.50317383 C-411.31284265 2012.24230487 -421.70257088 2013.34978656 -433.0100708 2016.2562561 C-435.87497822 2016.96710077 -438.76285524 2017.51771721 -441.6640625 2018.05859375 C-457.39835082 2021.03306303 -471.80884707 2024.73840741 -486.4921875 2031.27734375 C-490.79710789 2033.08464329 -495.17079069 2034.50867076 -499.61450195 2035.92797852 C-503.29924056 2037.12466993 -506.76653161 2038.49691411 -510.25 2040.1875 C-515.28580278 2042.5764727 -520.44729255 2044.314663 -525.75 2046 C-526.55469727 2046.25837646 -527.35939453 2046.51675293 -528.18847656 2046.78295898 C-535.75809621 2049.13455614 -541.78823258 2050.39302781 -549.5 2047.8125 C-550.53278076 2047.47569214 -550.53278076 2047.47569214 -551.58642578 2047.13208008 C-565.65802291 2042.30831218 -581.5273603 2034.16622442 -589 2020.75 C-592.4240963 2012.83421843 -592.94666833 2005.26487971 -591.1875 1996.875 C-587.29228368 1987.79841104 -577.90590214 1980.2860971 -570.2421875 1974.47265625 C-568.32728714 1973.00145232 -566.62128879 1971.47283157 -564.875 1969.8125 C-559.59916984 1965.23183805 -553.13519925 1962.20003736 -547.03271484 1958.87597656 C-545.18438523 1957.85213604 -543.36402172 1956.79538357 -541.55078125 1955.7109375 C-534.87093537 1951.74255569 -528.18634284 1948.45380716 -521.0625 1945.375 C-512.76068111 1941.74920327 -505.54967983 1937.46307932 -498.16894531 1932.25292969 C-493.69829749 1929.15507872 -489.12181647 1926.21501549 -484.5625 1923.25 C-483.07061157 1922.27752319 -483.07061157 1922.27752319 -481.54858398 1921.28540039 C-474.10406595 1916.4422669 -466.59887457 1911.70743429 -459.05126953 1907.02734375 C-454.26732062 1904.04833629 -449.5060749 1901.03291761 -444.74682617 1898.01464844 C-441.342452 1895.85593137 -437.93796649 1893.70152736 -434.4921875 1891.609375 C-433.04199219 1890.71992188 -433.04199219 1890.71992188 -431.5625 1889.8125 C-430.75941406 1889.32910156 -429.95632813 1888.84570312 -429.12890625 1888.34765625 C-424.34080373 1884.75438299 -422.41028241 1880.73407877 -420.625 1875.125 C-419.07208314 1870.52836609 -417.39898998 1866.42895277 -414.9375 1862.25 C-408.29023546 1850.4946594 -406.41443625 1836.16399428 -403.46484375 1823.1171875 C-402.49886311 1818.85311025 -401.46507187 1814.61389826 -400.37890625 1810.37890625 C-399.32423233 1806.19720466 -398.49920192 1802.10251652 -398 1797.8125 C-397.76796875 1795.93884766 -397.76796875 1795.93884766 -397.53125 1794.02734375 C-397.4075 1793.01583252 -397.4075 1793.01583252 -397.28125 1791.98388672 C-396.73036299 1787.60835191 -396.11468427 1783.24194756 -395.5 1778.875 C-395.38140625 1778.0075415 -395.2628125 1777.14008301 -395.140625 1776.24633789 C-394.35562914 1770.6740405 -393.30865489 1765.22232446 -392 1759.75 C-391.71640625 1758.56019531 -391.4328125 1757.37039063 -391.140625 1756.14453125 C-390.30826368 1752.79683243 -389.46360808 1749.452856 -388.60498047 1746.11181641 C-388.19092911 1744.49537863 -387.78130907 1742.87780108 -387.37548828 1741.25927734 C-377.97993105 1703.96516948 -361.31343449 1672.00033112 -338.92578125 1640.83203125 C-338.42320801 1640.12369141 -337.92063477 1639.41535156 -337.40283203 1638.68554688 C-336.17427989 1636.99046136 -334.87918397 1635.34401661 -333.57421875 1633.70703125 C-331.51143858 1629.83228041 -331.93791364 1626.81277957 -332.5 1622.625 C-333.72407181 1609.20607695 -327.83371486 1599.01524305 -322.125 1587.203125 C-318.13756299 1578.91564704 -315.04052667 1571.47084562 -314.68359375 1562.19921875 C-314.64145752 1561.11987061 -314.59932129 1560.04052246 -314.5559082 1558.9284668 C-314.5168335 1557.77644775 -314.47775879 1556.62442871 -314.4375 1555.4375 C-314.3964917 1554.24358643 -314.3554834 1553.04967285 -314.31323242 1551.81958008 C-314.05918082 1543.85982266 -313.86970946 1535.90118522 -313.8125 1527.9375 C-313.79952881 1527.01606201 -313.78655762 1526.09462402 -313.77319336 1525.14526367 C-313.76463157 1518.76901142 -314.53181818 1512.69085923 -315.4987793 1506.39379883 C-316.33900903 1500.28545555 -316.64952942 1494.15257289 -317 1488 C-317.50798235 1479.701938 -318.04571421 1471.43984011 -319.0625 1463.1875 C-323.39597661 1426.29346975 -319.90239277 1388.50345206 -309.703125 1352.84375 C-308.42078086 1348.35135486 -307.32150182 1343.85988729 -306.33618164 1339.29467773 C-304.66644337 1331.57963065 -302.52046251 1324.12463434 -299.98828125 1316.65234375 C-299.71528702 1315.84623657 -299.44229279 1315.04012939 -299.161026 1314.20959473 C-297.77379967 1310.13407275 -296.36320746 1306.06807396 -294.92504883 1302.01025391 C-294.40043725 1300.49776163 -293.87593702 1298.98523073 -293.3515625 1297.47265625 C-293.09977737 1296.78284164 -292.84799225 1296.09302704 -292.58857727 1295.38230896 C-290.82604791 1290.25009972 -290.84488596 1286.66862881 -292.83203125 1281.64770508 C-293.15558594 1281.02790771 -293.47914063 1280.40811035 -293.8125 1279.76953125 C-294.16570313 1279.08052734 -294.51890625 1278.39152344 -294.8828125 1277.68164062 C-295.25148438 1276.98232422 -295.62015625 1276.28300781 -296 1275.5625 C-296.73083801 1274.15320923 -297.46007082 1272.74308457 -298.1875 1271.33203125 C-298.51105469 1270.71561768 -298.83460938 1270.0992041 -299.16796875 1269.46411133 C-301.81503685 1264.01074715 -301.57183347 1258.99918557 -299.625 1253.375 C-299.34527344 1252.60542969 -299.06554687 1251.83585937 -298.77734375 1251.04296875 C-298.0557038 1248.91431222 -297.59512834 1246.89373585 -297.1875 1244.6875 C-296.45512168 1241.13546515 -295.31442444 1237.88775077 -293.96824646 1234.52201843 C-287.01669114 1217.07499627 -284.3076544 1199.90032328 -284.36776733 1181.17581177 C-284.38021519 1175.92518125 -284.30451438 1170.67579717 -284.23046875 1165.42578125 C-284.21705948 1164.40312668 -284.20365021 1163.38047211 -284.18983459 1162.326828 C-283.99423024 1150.019507 -282.75319952 1137.93022407 -281 1125.75 C-280.85159668 1124.64672363 -280.70319336 1123.54344727 -280.55029297 1122.40673828 C-278.96835974 1110.71586592 -277.15510083 1099.74578267 -272.75683594 1088.74707031 C-271.12206483 1084.43338397 -269.77216112 1080.02001094 -268.375 1075.625 C-268.04363037 1074.58899658 -267.71226074 1073.55299316 -267.37084961 1072.4855957 C-265.26397171 1065.85666221 -263.22296105 1059.21016134 -261.21484375 1052.55078125 C-260.97485657 1051.75704102 -260.73486938 1050.96330078 -260.48760986 1050.14550781 C-259.29849702 1046.21185207 -258.11571387 1042.2765214 -256.94482422 1038.33740234 C-254.70117413 1030.85420311 -252.27326132 1023.61311217 -249.15893555 1016.43481445 C-247.35934063 1012.26583504 -245.79768849 1008.017707 -244.25 1003.75 C-243.91637451 1002.83138184 -243.58274902 1001.91276367 -243.23901367 1000.96630859 C-238.82930535 988.6705362 -234.9183851 976.20911619 -231 963.75 C-230.74089844 962.92709473 -230.48179687 962.10418945 -230.21484375 961.25634766 C-229.20012133 958.02880557 -228.19274759 954.79935145 -227.1953125 951.56640625 C-226.27496171 948.62790061 -225.33067948 945.70171417 -224.3671875 942.77734375 C-223.948927 941.49355835 -223.948927 941.49355835 -223.5222168 940.18383789 C-222.98132809 938.52573477 -222.43372548 936.86980073 -221.87817383 935.21655273 C-219.6625526 928.38292611 -219.16994183 923.69943827 -222.4375 917.0625 C-223.78635062 914.2840983 -225.02242128 911.68273617 -226 908.75 C-226.66 908.75 -227.32 908.75 -228 908.75 C-229.60261431 906.76168188 -231.05947448 904.78845815 -232.5 902.6875 C-232.90347656 902.12611328 -233.30695312 901.56472656 -233.72265625 900.98632812 C-241.38650543 889.92053929 -240.04939397 875.69737378 -237.83613586 862.99519348 C-236.63310749 856.40106114 -235.26125799 849.84242415 -233.77050781 843.30761719 C-230.42913582 828.46325408 -228.66931242 813.77595713 -227.4375 798.625 C-226.16923406 783.28157963 -224.45260446 768.28275879 -221.46188354 753.17390442 C-218.54512228 737.86712287 -217.41568833 722.3954859 -216.3125 706.875 C-216.21230057 705.49025986 -216.21230057 705.49025986 -216.1100769 704.07754517 C-214.76217294 685.20290743 -214.99947712 667.39727487 -217.4375 648.625 C-217.89963522 644.99802644 -218.35563893 641.37031815 -218.80859375 637.7421875 C-218.91833023 636.87347519 -219.02806671 636.00476288 -219.14112854 635.10972595 C-219.76355213 630.07124623 -220.22150334 625.06376487 -220.5234375 619.99609375 C-220.85646935 614.734268 -221.64555857 609.97134387 -223.1875 604.9375 C-223.4045459 604.19105225 -223.6215918 603.44460449 -223.84521484 602.67553711 C-225.65179565 596.59031324 -227.73965231 590.60830133 -229.91552734 584.64648438 C-231.26479111 580.93405921 -232.41809774 577.29123322 -233.3125 573.4375 C-238.08908805 555.32511987 -247.72755997 540.42130614 -261.140625 527.5625 C-264.28904696 524.49345002 -267.3571329 521.26831683 -270 517.75 C-270 517.09 -270 516.43 -270 515.75 C-270.57492187 515.52054688 -271.14984375 515.29109375 -271.7421875 515.0546875 C-274.5948685 513.40625246 -276.09056523 511.46496308 -278.125 508.875 C-278.90101563 507.89917969 -279.67703125 506.92335938 -280.4765625 505.91796875 C-280.88422852 505.40282715 -281.29189453 504.88768555 -281.71191406 504.35693359 C-283.92670415 501.59390319 -286.21764408 498.89474942 -288.5 496.1875 C-292.88045541 490.98908918 -292.88045541 490.98908918 -294 488.75 C-314.99410822 477.86440202 -341.47300334 474.16728513 -364.45874023 469.54223633 C-372.34849819 467.93951355 -380.12680525 465.9916474 -387.92089844 463.97998047 C-395.17557596 462.13494911 -402.45872967 460.64146632 -409.8125 459.25 C-419.86149211 457.3327171 -429.43778303 454.67893061 -439.11279297 451.37841797 C-441.55317351 450.56579966 -444.02157147 449.87401307 -446.5 449.1875 C-451.01649934 447.86559775 -455.1473419 445.89702705 -459.3828125 443.86328125 C-461.81151842 442.830175 -463.91167577 442.30638737 -466.5 441.875 C-470 440.75 -470 440.75 -472.0625 437.5 C-473.63572409 431.20710365 -471.8744719 426.99898875 -468.9375 421.375 C-468.38964844 420.31539062 -467.84179688 419.25578125 -467.27734375 418.1640625 C-466.64505859 416.96910156 -466.64505859 416.96910156 -466 415.75 C-469.27713806 413.5652413 -472.54330756 412.41878607 -476.23828125 411.17578125 C-477.71429805 410.66762359 -479.19020577 410.159149 -480.66601562 409.65039062 C-482.97011329 408.86132273 -485.27508556 408.07514855 -487.58227539 407.29516602 C-496.74813009 404.1881135 -505.34709736 400.73271478 -513.93383789 396.26489258 C-517.88278037 394.31384647 -521.80659164 393.02089646 -526.0625 391.9375 C-533.66549092 389.88920564 -533.66549092 389.88920564 -536.515625 388.703125 C-539.82664226 387.43286052 -543.20693905 386.89951323 -546.6875 386.3125 C-556.840067 384.46762434 -564.60527518 382.26991357 -573.28125 376.4453125 C-576.55539626 374.40367532 -579.86472885 373.11210221 -583.46484375 371.765625 C-591.88749327 368.39137404 -599.04557572 363.49734472 -606 357.75 C-606.99 357.0075 -607.98 356.265 -609 355.5 C-611.83714997 353.14477688 -613.92993713 350.34236408 -616.1875 347.4375 C-620.82354258 341.66940051 -625.86908207 337.81972589 -632 333.75 C-634.11363245 332.31326569 -636.22252114 330.86981474 -638.32983398 329.42382812 C-639.75167624 328.45002054 -641.17686503 327.48107716 -642.60571289 326.51757812 C-643.58979126 325.84952148 -643.58979126 325.84952148 -644.59375 325.16796875 C-645.17833984 324.77375732 -645.76292969 324.3795459 -646.36523438 323.97338867 C-648.07685905 322.69248197 -649.50740126 321.27666437 -651 319.75 C-655.17314427 316.78746126 -659.6852266 314.35623958 -664.1875 311.9375 C-673.54975653 306.8823973 -682.47640318 301.11585865 -691.39746094 295.328125 C-697.14784976 291.61532559 -702.99874544 288.07032742 -708.87182617 284.55541992 C-711.93182195 282.70798449 -714.81456162 280.89952013 -717.6015625 278.65234375 C-720.47371883 276.37426536 -723.55849932 274.77172675 -726.8125 273.125 C-738.29887627 267.14500878 -749.1614124 260.27983825 -759.5546875 252.5546875 C-766.41798403 247.48944309 -773.66532997 243.09024052 -781 238.75 C-782.77151654 237.68863951 -784.54236225 236.62615844 -786.3125 235.5625 C-787.09238281 235.09457031 -787.87226562 234.62664062 -788.67578125 234.14453125 C-789.44277344 233.68433594 -790.20976563 233.22414063 -791 232.75 C-791.81984375 232.26144531 -792.6396875 231.77289062 -793.484375 231.26953125 C-795.99180305 229.75495126 -798.46786506 228.20039116 -800.9375 226.625 C-802.38576172 225.70460938 -802.38576172 225.70460938 -803.86328125 224.765625 C-805.9955489 223.39545052 -808.11767355 222.00938923 -810.23046875 220.609375 C-823.39207158 211.90790121 -837.07200422 204.86873986 -851.69360352 198.93164062 C-856.4969092 196.95449076 -860.78267591 194.73035727 -865.13793945 191.90576172 C-876.72434293 184.71420094 -890.52862032 183.58163927 -903.78344727 182.39428711 C-922.74763564 180.45769753 -934.51980798 169.62366937 -947.5 156.5625 C-948.42200195 155.63630859 -949.34400391 154.71011719 -950.29394531 153.75585938 C-956.83414427 147.10661843 -962.69085959 140.41544431 -968 132.75 C-968.86074049 131.54728964 -969.72277027 130.34550117 -970.5859375 129.14453125 C-977 120.1230868 -977 120.1230868 -977 117.75 C-977.58523438 117.50378906 -978.17046875 117.25757813 -978.7734375 117.00390625 C-983.53341418 114.3232878 -986.96289028 109.34907254 -988.96484375 104.33203125 C-990.1176895 99.83367234 -990.27774721 96.94585013 -988 92.75 C-987.14098312 90.86096872 -987.14098312 90.86096872 -987 88.75 C-988.20556143 86.78905721 -988.20556143 86.78905721 -990.0625 85 C-993.20053489 81.64942888 -995.95389759 78.20323121 -998.64453125 74.48828125 C-1000.04499256 72.5774629 -1000.04499256 72.5774629 -1002.375 70.6875 C-1004 68.75 -1004 68.75 -1004.4375 65.375 C-1003.77357913 59.87394134 -1001.43909969 56.00793295 -998 51.75 C-998.474375 51.21375 -998.94875 50.6775 -999.4375 50.125 C-1001.38420783 47.1660041 -1001.86098294 45.29493492 -1002 41.75 C-999.37226277 33.99817518 -999.37226277 33.99817518 -996 31.75 C-990.36377558 30.10037334 -986.55982033 31.58764526 -981.3125 33.625 C-980.17458008 34.04845703 -980.17458008 34.04845703 -979.01367188 34.48046875 C-977.6086572 35.00378401 -976.20577928 35.53290145 -974.8059082 36.06982422 C-973.21777023 36.6679792 -971.609961 37.21334633 -970 37.75 C-969.9071875 36.63625 -969.9071875 36.63625 -969.8125 35.5 C-968.69546359 31.71926138 -967.39762089 30.73194552 -964 28.75 C-949.63549108 24.91946429 -931.60664026 33.20499505 -919 39.75 C-916.07851542 41.61801245 -913.38207126 43.59554964 -910.66796875 45.75 C-907.59742288 48.05178549 -904.35483134 49.90626068 -901 51.75 C-896.62239799 54.16881261 -892.50059529 56.73778708 -888.5 59.75 C-879.78060842 66.27025299 -870.5426049 71.811897 -860 74.75 C-859.01 75.08 -858.02 75.41 -857 75.75 C-853.54230809 76.33342353 -853.54230809 76.33342353 -850 75.75 C-847.9694037 73.65968028 -847.17312545 72.35155175 -846 69.75 C-845.61561768 68.89970215 -845.23123535 68.0494043 -844.83520508 67.17333984 C-840.95107181 57.79784574 -839.31201265 48.54796102 -837.8125 38.5625 C-837.56451519 36.97179194 -837.31517212 35.38129503 -837.06445312 33.79101562 C-836.5210098 30.34368228 -836.5210098 30.34368228 -835.98059082 26.89587402 C-833.59715631 11.71463712 -833.59715631 11.71463712 -831.375 8.125 C-827.92443011 6.12730164 -824.8252399 6.039704 -821 6.75 C-815.49250457 9.34176255 -812.52756082 13.34156857 -810 18.75 C-808.26705286 24.30765202 -806.9881624 29.9397117 -805.75 35.625 C-805.5746875 36.40967651 -805.399375 37.19435303 -805.21875 38.00280762 C-802.70507389 49.2964448 -800.80731779 60.12885423 -801 71.75 C-801.0039308 73.91832577 -801.00004874 76.08655899 -800.99609375 78.25488281 C-800.99973203 80.17134834 -801.0300565 82.0877119 -801.0625 84.00390625 C-801.31835096 86.66192718 -801.31835096 86.66192718 -800 87.75 C-800.0663597 90.2022925 -800.19889895 92.61767219 -800.375 95.0625 C-800.41375244 95.78727539 -800.45250488 96.51205078 -800.49243164 97.25878906 C-800.68966452 100.65254191 -800.99732261 103.73871764 -801.78515625 107.05859375 C-802.52246241 110.38309398 -802.82163549 112.42734218 -802 115.75 C-798.64813536 120.06304109 -794.06689112 123.20483713 -789.71191406 126.43066406 C-787.5816164 128.07243938 -785.76491266 129.90519154 -783.9375 131.875 C-770.12395922 146.0714321 -751.66575659 156.53930815 -734.140625 165.3828125 C-733.12559402 165.89713837 -732.11056305 166.41146423 -731.06477356 166.94137573 C-727.79643969 168.59248434 -724.52394578 170.23504946 -721.25 171.875 C-719.57476761 172.71587158 -719.57476761 172.71587158 -717.86569214 173.57373047 C-701.48691894 181.77317837 -685.11110375 189.09276433 -667.98583984 195.57080078 C-661.80847432 198.01043083 -655.87185569 200.95349457 -649.91015625 203.87109375 C-646.59905153 205.4880338 -643.24352821 206.90225923 -639.8125 208.25 C-635.21826926 210.1104736 -630.97015065 212.39613376 -626.6875 214.875 C-619.98620796 218.73992355 -613.14934979 222.25224817 -606.1875 225.625 C-605.24543701 226.08922363 -604.30337402 226.55344727 -603.33276367 227.03173828 C-589.74145528 233.53777284 -577.30899956 234.9027926 -562.4375 234.6875 C-552.39894202 234.61578095 -542.92443061 235.18641356 -533 236.75 C-530.56272267 237.04352157 -528.12521849 237.33516511 -525.6875 237.625 C-512.06358782 239.491875 -499.04335425 242.57336164 -485.99072266 246.89233398 C-475.40133226 250.35867169 -464.63801776 253.13324475 -453.86328125 255.953125 C-452.70393066 256.25798828 -451.54458008 256.56285156 -450.35009766 256.87695312 C-448.17057299 257.44494469 -445.98804125 258.00156037 -443.80224609 258.54492188 C-442.82980957 258.79306641 -441.85737305 259.04121094 -440.85546875 259.296875 C-440.01008545 259.50666992 -439.16470215 259.71646484 -438.29370117 259.93261719 C-435.76576826 260.83347077 -434.0846936 262.08230091 -432 263.75 C-429.93921048 264.60367894 -429.93921048 264.60367894 -427.6875 265.1875 C-426.37265625 265.56068359 -426.37265625 265.56068359 -425.03125 265.94140625 C-422.8470046 266.52405934 -420.65899561 267.09266816 -418.46875 267.65234375 C-408.94553739 270.10201311 -399.49632935 272.7660859 -390.8125 277.48046875 C-389.884375 277.89941406 -388.95625 278.31835938 -388 278.75 C-384.98352894 277.53379415 -384.98352894 277.53379415 -382 275.75 C-377.29828418 274.78102812 -373.91995329 274.7450995 -369.3125 276 C-350.32797534 280.34103462 -330.96602795 281.11655846 -311.57275391 280.81518555 C-310.2944873 280.79625244 -309.0162207 280.77731934 -307.69921875 280.7578125 C-306.57346436 280.73348145 -305.44770996 280.70915039 -304.2878418 280.68408203 C-301 280.75 -301 280.75 -297.65869141 281.24121094 C-293.32701289 281.84358769 -289.12808186 281.89351157 -284.76171875 281.8828125 C-283.88207962 281.88376923 -283.00244049 281.88472595 -282.09614563 281.88571167 C-280.2362155 281.8863898 -278.37628296 281.8845612 -276.51635742 281.88037109 C-273.73415484 281.87508858 -270.95211901 281.88029164 -268.16992188 281.88671875 C-256.74448629 281.89104322 -245.39926375 281.50481611 -234 280.75 C-231.27098425 280.58079813 -228.54173123 280.41570829 -225.8125 280.25 C-222.00757532 280.01406471 -218.20655707 279.76638985 -214.40625 279.46484375 C-194.96156903 277.96422163 -176.2966361 278.94315516 -157 281.75 C-156.22253418 281.85683105 -155.44506836 281.96366211 -154.64404297 282.07373047 C-140.05746324 284.12291779 -125.63207369 288.91408847 -113.12890625 296.78125 C-111.06692706 297.94047411 -111.06692706 297.94047411 -108.90234375 297.5078125 C-103.92872485 295.52653516 -100.2807757 292.79296784 -97.80253601 287.96775818 C-94.55374208 278.9899189 -94.6916963 268.85980731 -94.69921875 259.43359375 C-94.69493362 258.21527359 -94.6906485 256.99695343 -94.68623352 255.74171448 C-94.68053314 253.18629575 -94.67995793 250.63086081 -94.68432617 248.07543945 C-94.68749478 244.19388964 -94.66394145 240.3130971 -94.63867188 236.43164062 C-94.63639911 233.93229262 -94.63569528 231.43294258 -94.63671875 228.93359375 C-94.62290413 227.21746132 -94.62290413 227.21746132 -94.60881042 225.46665955 C-94.65441824 217.42467781 -95.34387213 209.06225574 -99 201.75 C-100.89263593 201.62343181 -102.7906726 201.57416561 -104.6875 201.5625 C-109.08797504 201.26425139 -111.63343764 200.97465462 -114.625 197.625 C-121.91221208 187.15363954 -121.39447813 169.78665747 -119.50390625 157.53515625 C-117.68755582 150.87520468 -114.78596504 145.44342973 -108.8125 141.8125 C-106 140.75 -106 140.75 -104 140.75 C-104.59167969 139.64398437 -105.18335938 138.53796875 -105.79296875 137.3984375 C-108.2111486 132.54074405 -109.84555489 127.59070236 -111.3125 122.375 C-111.58102783 121.42125488 -111.84955566 120.46750977 -112.1262207 119.48486328 C-113.99084614 112.24417192 -114.35561286 105.78866246 -113.39770508 98.38525391 C-112.77716498 94.34208509 -112.77716498 94.34208509 -114.39453125 90.7578125 C-114.92433594 90.09523438 -115.45414063 89.43265625 -116 88.75 C-117.47362575 82.27160757 -116.6067504 77.30974392 -114.75 71 C-114.35868896 69.64757202 -114.35868896 69.64757202 -113.95947266 68.26782227 C-110.37611447 56.73758114 -104.78648733 44.22564462 -96 35.75 C-96.061875 34.5125 -96.061875 34.5125 -96.125 33.25 C-96.08375 32.425 -96.0425 31.6 -96 30.75 C-93.4375 28.8125 -93.4375 28.8125 -91.76953125 27.84765625 C-89.84119927 26.65149447 -88.29594304 25.2826581 -86.625 23.75 C-83.55795336 21.0365818 -80.46617993 19.44491065 -76.765625 17.75 C-74.7380789 16.75589603 -74.7380789 16.75589603 -73.0625 14.1875 C-70.02136581 10.59343232 -66.44398624 9.9406243 -62 8.75 C-60.865625 8.42 -59.73125 8.09 -58.5625 7.75 C-57.386875 7.42 -56.21125 7.09 -55 6.75 C-54.21625 6.50121094 -53.4325 6.25242187 -52.625 5.99609375 C-48.62042952 4.73245642 -44.81038246 3.62396447 -40.625 3.1875 C-37.16611497 2.9935576 -37.16611497 2.9935576 -35.03125 1.69140625 C-32.59186056 0.56084307 -31.48302289 0.74956756 -28.875 1.25 C-25.44679013 1.75371908 -22.91310917 1.63439075 -19.5703125 0.765625 C-13.0218884 -0.64133406 -6.65588143 -0.30874099 0 0 Z " fill="#010101" transform="translate(1234,548.25)"/>
<path d="M0 0 C-0.33 0.66 -0.66 1.32 -1 2 C-1.66 2 -2.32 2 -3 2 C-3.66 2.66 -4.32 3.32 -5 4 C-5.66 4.66 -6.32 5.32 -7 6 C-7.46072107 8.02713674 -7.46072107 8.02713674 -7.6328125 10.3515625 C-7.71660156 11.20234375 -7.80039062 12.053125 -7.88671875 12.9296875 C-8.00466797 14.26386719 -8.00466797 14.26386719 -8.125 15.625 C-8.21136719 16.5221875 -8.29773438 17.419375 -8.38671875 18.34375 C-8.5990924 20.5618748 -8.80317085 22.78045069 -9 25 C-9.33 25 -9.66 25 -10 25 C-10.33 23.35 -10.66 21.7 -11 20 C-10.96519531 20.59425781 -10.93039062 21.18851563 -10.89453125 21.80078125 C-10.70214351 27.69151059 -11.49851593 32.55820889 -13.2109375 38.18359375 C-14.27258375 41.97293506 -14.83174009 45.79413731 -15.375 49.6875 C-16.08624884 52.31912072 -17.04104535 53.18246721 -19 55 C-18.20524247 49.98620214 -17.40543905 44.97324222 -16.60131836 39.9609375 C-16.32948441 38.26225596 -16.05893636 36.56336804 -15.78979492 34.86425781 C-14.89773215 29.23612247 -13.97264693 23.61479104 -13 18 C-12.87836487 17.29057251 -12.75672974 16.58114502 -12.63140869 15.85021973 C-12.29026563 13.90971874 -11.9212964 11.97417004 -11.55078125 10.0390625 C-11.24587769 8.42185303 -11.24587769 8.42185303 -10.93481445 6.77197266 C-8.95044662 0.88779601 -5.99566193 -0.54506018 0 0 Z " fill="#1F1F1F" transform="translate(411,555)"/>
<path d="M0 0 C3.89006773 1.38780795 6.96558708 3.2152227 10.3125 5.625 C11.19550781 6.25664063 12.07851563 6.88828125 12.98828125 7.5390625 C13.98408203 8.26222656 13.98408203 8.26222656 15 9 C14.01 9.495 14.01 9.495 13 10 C14.32 11.65 15.64 13.3 17 15 C14.36 15 11.72 15 9 15 C8.5978125 14.0409375 8.5978125 14.0409375 8.1875 13.0625 C7.11332248 10.66868314 7.11332248 10.66868314 4 10 C4 9.34 4 8.68 4 8 C3.4225 7.9175 2.845 7.835 2.25 7.75 C-0.6159304 6.79468987 -1.9990764 5.21530827 -4 3 C-3.34 2.67 -2.68 2.34 -2 2 C0.03144641 2.93446535 2.03533587 3.93224776 4 5 C3.01 4.319375 3.01 4.319375 2 3.625 C1.34 3.08875 0.68 2.5525 0 2 C0 1.34 0 0.68 0 0 Z " fill="#171717" transform="translate(333,601)"/>
<path d="M0 0 C0 0.66 0 1.32 0 2 C-4.89793495 4.33630311 -9.80505095 6.65111279 -14.72558594 8.93945312 C-16.14248707 9.6001464 -17.55754964 10.26481535 -18.96972656 10.93554688 C-26.31999658 14.41538485 -32.74726461 16.44476207 -40.81640625 17.36328125 C-45.51431962 18.30286392 -49.32305835 20.46939744 -53.44140625 22.85546875 C-56 24 -56 24 -58.33984375 23.67578125 C-59.16162109 23.34126953 -59.16162109 23.34126953 -60 23 C-58.98679687 22.52949219 -57.97359375 22.05898438 -56.9296875 21.57421875 C-55.57810425 20.9453571 -54.22654291 20.31644834 -52.875 19.6875 C-51.87726563 19.2244043 -51.87726563 19.2244043 -50.859375 18.75195312 C-47.76772258 17.31221303 -44.71097593 15.85072757 -41.6796875 14.28515625 C-38.81795267 12.91269159 -37.12820778 12.65242136 -34 13 C-33.34 13.33 -32.68 13.66 -32 14 C-29.53890317 13.14443187 -29.53890317 13.14443187 -26.765625 11.796875 C-25.71632813 11.31089844 -24.66703125 10.82492187 -23.5859375 10.32421875 C-22.48507812 9.80472656 -21.38421875 9.28523437 -20.25 8.75 C-18.62191406 7.99396484 -18.62191406 7.99396484 -16.9609375 7.22265625 C-12.86360568 5.31424131 -8.78107421 3.40338605 -4.76464844 1.32910156 C-2 0 -2 0 0 0 Z " fill="#858585" transform="translate(1751,839)"/>
<path d="M0 0 C0.33 0 0.66 0 1 0 C1.14867639 5.47978689 0.72297141 10.18726539 -0.53125 15.5625 C-0.68662231 16.23925781 -0.84199463 16.91601562 -1.0020752 17.61328125 C-1.49324109 19.74417419 -1.99637362 21.87202162 -2.5 24 C-2.83804007 25.45684574 -3.17528679 26.91387581 -3.51171875 28.37109375 C-4.33199903 31.91623677 -5.16302505 35.45875645 -6 39 C-6.33 39 -6.66 39 -7 39 C-6.49019891 25.62211617 -5.33718959 12.45344238 0 0 Z " fill="#9F9F9F" transform="translate(1007,2209)"/>
<path d="M0 0 C4.95001971 4.95001971 4.34061704 14.47741165 4.65625 21.08203125 C4.81881626 23.92404796 4.81881626 23.92404796 5.9921875 25.93359375 C11.43856196 37.1007724 8.099802 56.84104571 8 69 C7.67 69 7.34 69 7 69 C6.9498877 67.91058105 6.89977539 66.82116211 6.84814453 65.69873047 C6.65914632 61.63920756 6.4589173 57.58030169 6.25537109 53.52148438 C6.16899347 51.76805096 6.08562184 50.01446669 6.00537109 48.26074219 C5.88918162 45.73326243 5.76202732 43.20653082 5.6328125 40.6796875 C5.59938751 39.90132538 5.56596252 39.12296326 5.53152466 38.3210144 C5.29155227 31.11070101 5.29155227 31.11070101 2 25 C1.78531895 22.49538779 1.62349999 20.00938475 1.5 17.5 C1.17688306 11.63559073 0.72883234 5.83065875 0 0 Z " fill="#878787" transform="translate(1390,2107)"/>
<path d="M0 0 C5.64197837 0.09349456 11.28352556 0.1995795 16.92504883 0.31738281 C18.84457904 0.35568577 20.76418135 0.39053633 22.68383789 0.421875 C25.4418313 0.46749702 28.19932777 0.5254958 30.95703125 0.5859375 C31.81649857 0.59748871 32.67596588 0.60903992 33.56147766 0.62094116 C34.36208115 0.64081085 35.16268463 0.66068054 35.98754883 0.68115234 C36.6914827 0.69447601 37.39541656 0.70779968 38.12068176 0.7215271 C40 1 40 1 43 3 C28.81 3 14.62 3 0 3 C0 2.01 0 1.02 0 0 Z " fill="#D2D2D2" transform="translate(2061,578)"/>
<path d="M0 0 C-3.63 1.98 -7.26 3.96 -11 6 C-9.02 5.67 -7.04 5.34 -5 5 C-6.35911596 7.71823191 -8.1112128 7.90606593 -10.86914062 8.85546875 C-11.51044922 9.06816406 -12.15175781 9.28085937 -12.8125 9.5 C-17.62814454 11.07977924 -17.62814454 11.07977924 -22.19921875 13.21875 C-24.49857387 14.21630103 -25.68586786 13.82647576 -28 13 C-27.31035156 12.63648438 -26.62070313 12.27296875 -25.91015625 11.8984375 C-21.18314645 9.36958452 -16.59686851 6.80495497 -12.1875 3.75 C-3.86505682 -1.93252841 -3.86505682 -1.93252841 0 0 Z " fill="#B2B2B2" transform="translate(1862,787)"/>
<path d="M0 0 C0.33 0 0.66 0 1 0 C2.06247472 7.3349158 2.09380701 13.17813109 -0.17578125 20.25390625 C-1.30366051 24.01172199 -1.83360822 27.8075256 -2.375 31.6875 C-3 34 -3 34 -6 37 C-4.02 24.79 -2.04 12.58 0 0 Z " fill="#2E2E2E" transform="translate(398,573)"/>
<path d="M0 0 C-3.01794215 1.29849566 -6.03983991 2.58752945 -9.0625 3.875 C-9.91005859 4.23980469 -10.75761719 4.60460937 -11.63085938 4.98046875 C-25.41410639 10.83435744 -25.41410639 10.83435744 -30 9 C-28.91460938 8.60167969 -27.82921875 8.20335937 -26.7109375 7.79296875 C-25.26555893 7.25799097 -23.82025012 6.72282469 -22.375 6.1875 C-21.66214844 5.92646484 -20.94929688 5.66542969 -20.21484375 5.39648438 C-15.99733548 3.82942855 -12.00420603 2.06804054 -8 0 C-4.872232 -1.10391812 -3.15904593 -0.86513291 0 0 Z " fill="#0F0F0F" transform="translate(1890,788)"/>
<path d="M0 0 C0.96099609 0.2165625 0.96099609 0.2165625 1.94140625 0.4375 C7.02406603 1.52826454 11.77175805 2.42679526 17 2 C17.99 1.34 18.98 0.68 20 0 C18.92598892 2.91517292 18.22189824 4.77810176 16 7 C13.6875 6.79296875 13.6875 6.79296875 11 6.1875 C9.6696875 5.89939453 9.6696875 5.89939453 8.3125 5.60546875 C6 5 6 5 4 4 C4 3.34 4 2.68 4 2 C2.68 2 1.36 2 0 2 C0 1.34 0 0.68 0 0 Z " fill="#444444" transform="translate(367,622)"/>
<path d="M0 0 C0 0.33 0 0.66 0 1 C-1.11375 1.2475 -2.2275 1.495 -3.375 1.75 C-6.9941302 2.60079799 -6.9941302 2.60079799 -8.3125 4.875 C-8.539375 5.57625 -8.76625 6.2775 -9 7 C-9.66666667 8.33333333 -10.33333333 9.66666667 -11 11 C-11.66 10.34 -12.32 9.68 -13 9 C-13.33 9.66 -13.66 10.32 -14 11 C-16.31 10.67 -18.62 10.34 -21 10 C-18 9 -18 9 -15 10 C-14.938125 9.2575 -14.87625 8.515 -14.8125 7.75 C-13.74359613 4.13217152 -12.09234428 3.06156286 -9 1 C-5.8035914 -0.06546953 -3.34252724 -0.07427838 0 0 Z " fill="#545454" transform="translate(279,576)"/>
<path d="M0 0 C3.89006773 1.38780795 6.96558708 3.2152227 10.3125 5.625 C11.19550781 6.25664063 12.07851563 6.88828125 12.98828125 7.5390625 C13.65214844 8.02117188 14.31601562 8.50328125 15 9 C14.01 9.495 14.01 9.495 13 10 C12.67 10.66 12.34 11.32 12 12 C7.58335198 8.96896704 3.58934136 6.02441304 0 2 C0 1.34 0 0.68 0 0 Z " fill="#3B3B3B" transform="translate(333,601)"/>
<path d="M0 0 C3 2 3 2 3.51171875 4.2578125 C4.03829008 12.84677604 4.09823625 21.39887034 4 30 C3.67 30 3.34 30 3 30 C2.94465088 29.37544922 2.88930176 28.75089844 2.83227539 28.10742188 C2.57715218 25.23814852 2.31984072 22.36907529 2.0625 19.5 C1.93198242 18.02660156 1.93198242 18.02660156 1.79882812 16.5234375 C1.30158908 10.99855918 0.72671885 5.49949402 0 0 Z " fill="#969696" transform="translate(1012,1154)"/>
<path d="M0 0 C0.66 0.33 1.32 0.66 2 1 C-4.92938497 9.81548975 -4.92938497 9.81548975 -11 11 C-11 12.98 -11 14.96 -11 17 C-11.66 16.67 -12.32 16.34 -13 16 C-13.375 13.25 -13.375 13.25 -13 10 C-10.4375 8 -10.4375 8 -7 6 C-4.60537534 4.06900526 -2.30047537 2.04184204 0 0 Z " fill="#686868" transform="translate(1151,569)"/>
<path d="M0 0 C1.36228089 3.75770097 0.63401558 6.4950367 -0.3125 10.3125 C-0.59480469 11.46363281 -0.87710938 12.61476563 -1.16796875 13.80078125 C-2.05712318 17.21964265 -3.01096362 20.60901812 -4 24 C-4.35371498 25.66246041 -4.69595322 27.32774271 -5 29 C-5.33 29 -5.66 29 -6 29 C-5.67210931 19.13049028 -4.48184145 8.96368291 0 0 Z " fill="#585858" transform="translate(1007,2209)"/>
<path d="M0 0 C0.99 0.33 1.98 0.66 3 1 C3 3.97 3 6.94 3 10 C3.66 10 4.32 10 5 10 C5.33 14.95 5.66 19.9 6 25 C5.67 25 5.34 25 5 25 C4.16137685 21.39704301 3.33001323 17.79244935 2.5 14.1875 C2.26152344 13.16333984 2.02304688 12.13917969 1.77734375 11.08398438 C1.55175781 10.10107422 1.32617188 9.11816406 1.09375 8.10546875 C0.88427734 7.19949951 0.67480469 6.29353027 0.45898438 5.36010742 C0 3 0 3 0 0 Z " fill="#737373" transform="translate(1343,1990)"/>
<path d="M0 0 C1.45254871 2.90509742 0.47142151 4.59301401 -0.375 7.6875 C-1.54782425 12.1378057 -2.48082772 16.43128394 -3 21 C-3.33 21 -3.66 21 -4 21 C-4.10812003 18.24894578 -4.18734945 15.50214913 -4.25 12.75 C-4.28351562 11.97269531 -4.31703125 11.19539063 -4.3515625 10.39453125 C-4.45112665 4.57002825 -4.45112665 4.57002825 -1.984375 1.453125 C-1.00210938 0.73382812 -1.00210938 0.73382812 0 0 Z " fill="#161616" transform="translate(1005,2211)"/>
<path d="M0 0 C1.8984375 0.203125 1.8984375 0.203125 4 1 C4.9765625 3.109375 4.9765625 3.109375 5.625 5.75 C5.98271484 7.10158203 5.98271484 7.10158203 6.34765625 8.48046875 C6.56292969 9.31191406 6.77820312 10.14335937 7 11 C8.0862212 14.81274521 8.0862212 14.81274521 11 17 C11.40729228 19.32156597 11.74438677 21.6568787 12 24 C9.32902078 22.66451039 9.07129626 21.34353604 7.87109375 18.6328125 C7.47599609 17.74722656 7.08089844 16.86164062 6.67382812 15.94921875 C6.26583984 15.01722656 5.85785156 14.08523437 5.4375 13.125 C5.02564453 12.20074219 4.61378906 11.27648438 4.18945312 10.32421875 C1.17589286 3.52767857 1.17589286 3.52767857 0 0 Z " fill="#797979" transform="translate(1377,2081)"/>
<path d="M0 0 C0.66 0 1.32 0 2 0 C2.19335938 0.71285156 2.38671875 1.42570312 2.5859375 2.16015625 C2.97652344 3.59681641 2.97652344 3.59681641 3.375 5.0625 C3.64828125 6.07054687 3.9215625 7.07859375 4.203125 8.1171875 C4.81108781 10.31658239 5.45913352 12.50493764 6.125 14.6875 C7.12578379 18.47618149 7.59006483 22.10561585 8 26 C5.71142179 21.6480002 4.34209292 17.11605231 2.875 12.4375 C2.59785156 11.57447266 2.32070312 10.71144531 2.03515625 9.82226562 C1.77347656 8.99275391 1.51179688 8.16324219 1.2421875 7.30859375 C1.0035498 6.55376709 0.76491211 5.79894043 0.51904297 5.02124023 C0 3 0 3 0 0 Z " fill="#848484" transform="translate(1335,1964)"/>
<path d="M0 0 C0.33 0 0.66 0 1 0 C1.33772739 2.70784994 1.67030687 5.41616996 2 8.125 C2.09539062 8.88554688 2.19078125 9.64609375 2.2890625 10.4296875 C2.79830188 14.64909952 3.10888068 18.74004344 3 23 C1 22 1 22 0 19 C-0.0806622 17.51876453 -0.10761193 16.03417796 -0.09765625 14.55078125 C-0.09443359 13.70322266 -0.09121094 12.85566406 -0.08789062 11.98242188 C-0.07951172 11.10134766 -0.07113281 10.22027344 -0.0625 9.3125 C-0.05798828 8.41982422 -0.05347656 7.52714844 -0.04882812 6.60742188 C-0.03704983 4.40488013 -0.02060164 2.20247401 0 0 Z " fill="#8A8A8A" transform="translate(1477,1641)"/>
<path d="M0 0 C0.33 0.66 0.66 1.32 1 2 C0.67 2.99 0.34 3.98 0 5 C-0.22560676 7.39254576 -0.40848595 9.78928123 -0.5625 12.1875 C-0.64628906 13.45980469 -0.73007813 14.73210938 -0.81640625 16.04296875 C-0.87699219 17.01878906 -0.93757813 17.99460937 -1 19 C-1.66 18.67 -2.32 18.34 -3 18 C-3.08119503 15.75059705 -3.13927819 13.50035129 -3.1875 11.25 C-3.22230469 9.99703125 -3.25710937 8.7440625 -3.29296875 7.453125 C-2.98802939 3.85890643 -2.45605371 2.55274874 0 0 Z " fill="#747474" transform="translate(2097,635)"/>
<path d="M0 0 C4.77609498 1.64178265 8.79382904 4.26546702 13 7 C12.67 7.66 12.34 8.32 12 9 C11.01 8.67 10.02 8.34 9 8 C9 7.34 9 6.68 9 6 C6.03 5.505 6.03 5.505 3 5 C3 4.34 3 3.68 3 3 C2.01 3 1.02 3 0 3 C0 2.01 0 1.02 0 0 Z " fill="#4B4B4B" transform="translate(320,593)"/>
<path d="M0 0 C0.33 0 0.66 0 1 0 C1.75612577 5.23471686 2.2063366 9.77254141 1 15 C0.67 15 0.34 15 0 15 C-0.33 13.35 -0.66 11.7 -1 10 C-1.33 10 -1.66 10 -2 10 C-2.17942163 6.05272412 -2.09350689 3.4019487 0 0 Z " fill="#101010" transform="translate(401,565)"/>
<path d="M0 0 C0.66 0.33 1.32 0.66 2 1 C1.38125 1.0825 0.7625 1.165 0.125 1.25 C-2.15303678 1.77341441 -2.15303678 1.77341441 -2.875 3.8125 C-4.50121471 6.97458416 -7.01843959 8.18513714 -10 10 C-8.64844718 5.57673622 -6.80109562 3.59587018 -3 1 C-2.01 0.67 -1.02 0.34 0 0 Z " fill="#5D5D5D" transform="translate(1128,689)"/>
<path d="M0 0 C-1.76371818 1.03307771 -3.53625033 2.05112049 -5.3125 3.0625 C-6.79169922 3.91521484 -6.79169922 3.91521484 -8.30078125 4.78515625 C-11 6 -11 6 -14 5 C-4.11764706 -2.05882353 -4.11764706 -2.05882353 0 0 Z " fill="#D6D6D6" transform="translate(1862,787)"/>
<path d="M0 0 C0.33 0 0.66 0 1 0 C0.97679687 0.61488281 0.95359375 1.22976563 0.9296875 1.86328125 C0.91164063 2.67152344 0.89359375 3.47976563 0.875 4.3125 C0.84019531 5.51326172 0.84019531 5.51326172 0.8046875 6.73828125 C0.84182678 9.28388576 0.84182678 9.28388576 3 12 C2.01 12.495 2.01 12.495 1 13 C-1.24510613 10.56780169 -1.97120564 9.28218472 -2.3125 5.9375 C-2 3 -2 3 0 0 Z " fill="#3E3E3E" transform="translate(431,655)"/>
<path d="M0 0 C1 3 1 3 -0.21484375 5.91796875 C-0.78332031 6.99691406 -1.35179687 8.07585938 -1.9375 9.1875 C-2.50339844 10.27417969 -3.06929687 11.36085938 -3.65234375 12.48046875 C-4.09707031 13.31191406 -4.54179688 14.14335937 -5 15 C-6.11651815 11.65044556 -5.99822121 10.32740404 -5 7 C-3.5625 5.4375 -3.5625 5.4375 -2 4 C-0.82425289 1.90010348 -0.82425289 1.90010348 0 0 Z " fill="#717171" transform="translate(938,2371)"/>
<path d="M0 0 C2.30153291 2.30153291 2.7577028 3.84875905 3.6875 6.9375 C3.95949219 7.81277344 4.23148438 8.68804688 4.51171875 9.58984375 C5 12 5 12 4 15 C0.43122553 10.34507678 0.31824005 5.65150436 0 0 Z " fill="#858585" transform="translate(1440,1471)"/>
<path d="M0 0 C0.92382231 3.44943329 1.30543938 6.41108723 1 10 C-0.5 11.875 -0.5 11.875 -2 13 C-3.18771723 9.57056481 -2.80226223 7.62215325 -1.5625 4.25 C-1.27503906 3.45078125 -0.98757812 2.6515625 -0.69140625 1.828125 C-0.46324219 1.22484375 -0.23507813 0.6215625 0 0 Z " fill="#575757" transform="translate(2058,654)"/>
<path d="M0 0 C3.67230705 3.07999946 4.56802365 5.2482602 5 10 C2.03595495 7.19195732 -0.44499019 4.81684226 -2 1 C-1.34 0.67 -0.68 0.34 0 0 Z " fill="#222222" transform="translate(419,561)"/>
<path d="M0 0 C-4.69404966 3.12936644 -9.45883518 4.20840503 -15 5 C-12.91806813 2.91806813 -11.28020285 2.03424616 -8.625 0.8125 C-7.85414062 0.44769531 -7.08328125 0.08289063 -6.2890625 -0.29296875 C-3.72666635 -1.08442558 -2.48946307 -0.89234179 0 0 Z " fill="#7E7E7E" transform="translate(1964,753)"/>
<path d="M0 0 C4 1.33333333 8 2.66666667 12 4 C12 4.66 12 5.32 12 6 C9.69 5.67 7.38 5.34 5 5 C5 4.34 5 3.68 5 3 C2.525 2.01 2.525 2.01 0 1 C0 0.67 0 0.34 0 0 Z " fill="#171717" transform="translate(368,626)"/>
<path d="M0 0 C0.88336837 2.4667645 1.1312406 3.63859372 0.22265625 6.140625 C-0.16019531 6.83671875 -0.54304688 7.5328125 -0.9375 8.25 C-1.31777344 8.95640625 -1.69804687 9.6628125 -2.08984375 10.390625 C-2.39019531 10.92171875 -2.69054688 11.4528125 -3 12 C-3.66 12 -4.32 12 -5 12 C-3.41037341 7.96479403 -1.71767682 3.98188718 0 0 Z " fill="#787878" transform="translate(2052,669)"/>
<path d="M0 0 C1.12377697 3.30435084 0.89554742 5.0506862 -0.4375 8.25 C-0.72496094 8.95640625 -1.01242187 9.6628125 -1.30859375 10.390625 C-1.53675781 10.92171875 -1.76492188 11.4528125 -2 12 C-2.66 12 -3.32 12 -4 12 C-3.52309796 10.37433394 -3.04340334 8.74948689 -2.5625 7.125 C-2.29566406 6.22007812 -2.02882813 5.31515625 -1.75390625 4.3828125 C-1 2 -1 2 0 0 Z " fill="#686868" transform="translate(860,2249)"/>
<path d="M0 0 C1.485 0.99 1.485 0.99 3 2 C3.29296875 4.3828125 3.29296875 4.3828125 3.1875 7.125 C3.16042969 8.03507812 3.13335938 8.94515625 3.10546875 9.8828125 C3.07066406 10.58148437 3.03585937 11.28015625 3 12 C0.7655402 7.96707255 0.45503257 4.55032566 0 0 Z " fill="#707070" transform="translate(1012,1154)"/>
<path d="M0 0 C-1.12073862 0.83905565 -2.24674547 1.67107831 -3.375 2.5 C-4.00148438 2.9640625 -4.62796875 3.428125 -5.2734375 3.90625 C-7 5 -7 5 -9 5 C-9 4.01 -9 3.02 -9 2 C-8.01 2 -7.02 2 -6 2 C-6 1.34 -6 0.68 -6 0 C-2.25 -1.125 -2.25 -1.125 0 0 Z " fill="#666666" transform="translate(1776,958)"/>
<path d="M0 0 C2.3125 -0.1875 2.3125 -0.1875 5 0 C5.99 0.99 6.98 1.98 8 3 C5.03 3 2.06 3 -1 3 C-0.67 2.01 -0.34 1.02 0 0 Z " fill="#686868" transform="translate(1712,852)"/>
<path d="M0 0 C2.475 0.495 2.475 0.495 5 1 C5.33 1.99 5.66 2.98 6 4 C6.66 4.33 7.32 4.66 8 5 C5.125 4.75 5.125 4.75 2 4 C0.625 1.9375 0.625 1.9375 0 0 Z " fill="#0D0D0D" transform="translate(313,719)"/>
<path d="M0 0 C0 0.33 0 0.66 0 1 C-2.64 1 -5.28 1 -8 1 C-8.66 2.32 -9.32 3.64 -10 5 C-10.99 4.67 -11.98 4.34 -13 4 C-9.41420832 -0.98892755 -5.61771415 -0.43213186 0 0 Z " fill="#646464" transform="translate(2104,590)"/>
<path d="M0 0 C2.97 1.65 5.94 3.3 9 5 C5 6 5 6 2 5 C2 4.34 2 3.68 2 3 C1.34 2.67 0.68 2.34 0 2 C0 1.34 0 0.68 0 0 Z " fill="#1E1E1E" transform="translate(341,610)"/>
<path d="M0 0 C0.66 0 1.32 0 2 0 C1.8125 2.875 1.8125 2.875 1 6 C-1.5625 7.375 -1.5625 7.375 -4 8 C-2.66666667 5.33333333 -1.33333333 2.66666667 0 0 Z " fill="#5F5F5F" transform="translate(236,599)"/>
<path d="M0 0 C2 1 2 1 2 1 Z " fill="#8B8B8B" transform="translate(1347,851)"/>
<path d="" fill="#A4A4A4" transform="translate(0,0)"/>
<path d="M0 0 C2 1 2 1 2 1 Z " fill="#C2C2C2" transform="translate(1471,841)"/>
<path d="" fill="#D5D5D5" transform="translate(0,0)"/>
<path d="" fill="#DCDCDC" transform="translate(0,0)"/>
<path d="" fill="#DCDCDC" transform="translate(0,0)"/>
<path d="" fill="#CCCCCC" transform="translate(0,0)"/>
<path d="" fill="#C5C5C5" transform="translate(0,0)"/>
<path d="" fill="#D0D0D0" transform="translate(0,0)"/>
<path d="" fill="#CECECE" transform="translate(0,0)"/>
<path d="" fill="#DDDDDD" transform="translate(0,0)"/>
<path d="" fill="#DCDCDC" transform="translate(0,0)"/>
<path d="" fill="#D0D0D0" transform="translate(0,0)"/>
<path d="" fill="#DADADA" transform="translate(0,0)"/>
<path d="" fill="#D7D7D7" transform="translate(0,0)"/>
<path d="" fill="#CDCDCD" transform="translate(0,0)"/>
<path d="" fill="#C1C1C1" transform="translate(0,0)"/>
<path d="" fill="#A4A4A4" transform="translate(0,0)"/>
<path d="" fill="#D3D3D3" transform="translate(0,0)"/>
<path d="" fill="#C6C6C6" transform="translate(0,0)"/>
<path d="" fill="#C5C5C5" transform="translate(0,0)"/>
<path d="" fill="#D4D4D4" transform="translate(0,0)"/>
<path d="" fill="#D3D3D3" transform="translate(0,0)"/>
<path d="" fill="#D9D9D9" transform="translate(0,0)"/>
<path d="" fill="#CACACA" transform="translate(0,0)"/>
<path d="" fill="#898989" transform="translate(0,0)"/>
</svg>
