<?xml version="1.0" encoding="UTF-8"?>
<svg version="1.1" xmlns="http://www.w3.org/2000/svg" width="2560" height="1916">
<path d="M0 0 C0.99 0.33 1.98 0.66 3 1 C3.845625 0.979375 4.69125 0.95875 5.5625 0.9375 C8 1 8 1 10 3 C13.0394771 3.59040203 16.08052006 3.95539923 19.15234375 4.33984375 C22.21109909 5.04893792 22.9975944 5.71068255 25 8 C25.99 8.33 26.98 8.66 28 9 C28.433125 9.45375 28.86625 9.9075 29.3125 10.375 C31.02977235 12.21267124 31.02977235 12.21267124 33.9375 13.3125 C42.46677155 18.01230269 45.08594759 30.47051525 48.125 39.25 C50.47289953 49.31242658 50.12628938 59.72846362 50 70 C48.35 70.66 46.7 71.32 45 72 C44.8641965 74.71003427 44.76555376 77.41318941 44.6875 80.125 C44.6246582 81.26582031 44.6246582 81.26582031 44.56054688 82.4296875 C44.47044973 86.6101951 44.67429036 89.12883412 47.45703125 92.3671875 C48.29621094 93.23601562 49.13539063 94.10484375 50 95 C51.5151607 99.54548209 51.22537663 104.05095511 51.25 108.8125 C51.2809375 110.29073242 51.2809375 110.29073242 51.3125 111.79882812 C51.34170807 117.23517975 51.33454844 121.46582742 48 126 C46.83129984 126.81979662 45.64040059 127.60850355 44.43359375 128.37109375 C41.38504805 130.40425959 41.03181535 130.91457161 39.66015625 134.59765625 C39.42089927 136.08002776 39.22496771 137.56975976 39.0625 139.0625 C38.90068237 140.31051392 38.90068237 140.31051392 38.7355957 141.58374023 C37.71764372 150.87204429 37.71672964 160.22877865 37.6875 169.5625 C37.68171432 170.73113083 37.68171432 170.73113083 37.67581177 171.92337036 C37.65420451 180.80629056 38.02953762 189.29720673 40 198 C40.33882656 199.99907671 40.67544172 201.99855726 41 204 C41.66 204 42.32 204 43 204 C43.50015625 204.6496875 44.0003125 205.299375 44.515625 205.96875 C48.3248282 209.08319287 51.97193944 208.59732063 56.75 208.5 C57.6886792 208.48864014 58.6273584 208.47728027 59.59448242 208.46557617 C68.17291696 208.22990088 75.86037357 206.59449298 84 204 C85.3267507 203.5870075 86.65357452 203.17424987 87.98046875 202.76171875 C89.98933272 202.13263614 91.99723898 201.5008775 94.00341797 200.86328125 C118.31812922 193.17183244 142.09051139 189.66065615 166.359375 199.61328125 C179.71697678 204.70120897 193.84338822 207.78659151 207.77734375 210.83984375 C211.05322207 211.55777066 214.31381004 212.31200503 217.56640625 213.12890625 C239.71399028 218.68339566 260.7776992 219.01123423 283.25 215.375 C284.10273499 215.24061523 284.95546997 215.10623047 285.83404541 214.96777344 C298.8764216 212.90184786 311.49080165 210.29918229 324 206 C325.66388693 205.45259105 327.32795242 204.90572458 328.9921875 204.359375 C330.57923631 203.82621333 332.1652284 203.28989282 333.75 202.75 C334.47300293 202.50378906 335.19600586 202.25757813 335.94091797 202.00390625 C339.67650629 200.88476382 339.67650629 200.88476382 342 198 C342.66 198 343.32 198 344 198 C344 197.34 344 196.68 344 196 C357.36459986 188.50525457 370.6649379 181.59159481 384.88183594 175.87646484 C388.20101025 174.50303979 391.44377987 172.97907842 394.6875 171.4375 C401.57729933 168.17841724 408.52648024 165.07585372 415.52783203 162.06445312 C417.32686045 161.2898369 419.12453307 160.51206956 420.92138672 159.73242188 C432.66905572 154.64158427 444.38495608 149.71559014 456.52246094 145.63061523 C465.22233253 142.66490931 473.63975923 139.0641426 482.09765625 135.4765625 C486.68074736 133.53638477 491.29463241 131.70092223 495.93652344 129.90698242 C505.37552651 126.24803268 514.24012798 121.94705875 523.08544922 117.03222656 C525.10276444 115.94459474 527.14955021 114.93878624 529.2109375 113.9375 C532.1902572 112.46381116 534.78018907 110.84703088 537.375 108.75 C540.79207921 106 540.79207921 106 543 106 C543.20882813 104.71802734 543.20882813 104.71802734 543.421875 103.41015625 C546.27934997 86.55491539 551.08339087 72.31350997 561.31640625 58.52734375 C566.16603518 51.62747038 569.24099412 44.00097824 572.54882812 36.28125 C575.30603755 30.04944947 577.63630958 25.29687907 583 21 C586.1875 20 586.1875 20 589 20 C592 22 592 22 593 25 C594.32792322 38.22880471 594.32792322 38.22880471 590.25 43.375 C589.7034375 43.97183594 589.156875 44.56867188 588.59375 45.18359375 C586.85976724 47.1598241 585.85677289 49.06045368 584.75 51.4375 C583 55 583 55 581 56 C583.79771704 62.592771 583.79771704 62.592771 588.25 68.0625 C597.42268442 71.18955151 605.06352778 69.59028412 614 66 C618.23389526 63.62325685 622.09736605 60.88077436 626 58 C627.70761407 56.85309503 629.4159161 55.70721351 631.125 54.5625 C634.72325252 52.04833638 637.91615741 49.30611534 641.125 46.3125 C646.22729911 41.64138109 650.4918399 37.93951448 657.625 38.0625 C662.44555246 39.40154235 666.79639961 41.02753552 670 45 C670.4765625 47.234375 670.4765625 47.234375 670.625 49.75 C670.82532788 52.89150542 671.13057513 55.54095411 671.875 58.625 C672.05451744 63.47197098 670.09713983 66.37286833 667 70 C664.5 71.625 664.5 71.625 662 73 C659.73542014 74.90390265 658.6430428 76.41096286 657 79 C657.588562 81.354248 658.25740651 83.68970915 659 86 C657.49580203 90.91371336 654.6247573 93.44424776 650.76171875 96.5703125 C647.16942417 99.48556708 644.12932843 102.82424471 641.1875 106.375 C637.81731155 110.35873558 633.97710232 113.64016896 630 117 C629.45730469 117.49242187 628.91460938 117.98484375 628.35546875 118.4921875 C618.10000552 127.72459965 606.248837 133.75850152 593.625 139 C592.36502197 139.52436646 592.36502197 139.52436646 591.07958984 140.05932617 C589.43766321 140.741737 587.79526894 141.42302407 586.15234375 142.10302734 C584.42885249 142.82127903 582.71306556 143.55800673 581 144.30078125 C576.47366599 146.22893998 572.13877278 147.4427303 567.3125 148.4375 C562.56991825 149.46247386 559.44389023 150.61634057 555.7265625 153.68359375 C553.6598952 155.25931067 551.52827308 156.31059531 549.1875 157.4375 C545.86428828 159.04454567 542.69912381 160.7421375 539.5625 162.6875 C535.49522504 165.19093348 531.32646056 167.40354752 527.08007812 169.58129883 C516.5495954 174.99256997 507.4770915 180.99537351 498.5 188.75 C485.14239875 200.02589716 469.26282259 208.35798293 454 216.75 C451.54302101 218.10292213 449.27205158 219.49025098 446.9375 221.0625 C443.99103219 223.00591494 441.03181471 224.50214433 437.83203125 225.97265625 C435.95561239 226.91113603 435.95561239 226.91113603 434.61425781 228.42236328 C432.94726014 230.0515434 431.35483323 231.10722478 429.33984375 232.26953125 C428.27938843 232.88658936 428.27938843 232.88658936 427.19750977 233.51611328 C426.45170654 233.9439209 425.70590332 234.37172852 424.9375 234.8125 C423.40337398 235.70135387 421.86951878 236.59067534 420.3359375 237.48046875 C419.59311523 237.91020996 418.85029297 238.33995117 418.08496094 238.78271484 C414.61528241 240.80845456 411.1982628 242.91977507 407.78515625 245.0390625 C406 246 406 246 404 246 C404 246.66 404 247.32 404 248 C402.0234375 249.3671875 402.0234375 249.3671875 399.375 250.875 C393.48960464 254.25070725 387.96696139 257.96124207 382.5625 262.0625 C381.00015625 263.23619141 381.00015625 263.23619141 379.40625 264.43359375 C377.66549415 265.74271943 375.92760542 267.05517736 374.1953125 268.37548828 C366.66683429 274.10721734 359.34153553 279.21823592 350.8046875 283.3671875 C347.64768781 285.20510654 345.51854597 287.36771325 343 290 C335.01044784 296.68068355 327.37015854 299.00498309 317.3125 300.875 C310.65106131 302.13929219 304.25105812 304.34712395 297.80810547 306.42138672 C294.80485599 307.38245899 291.78568088 308.28636083 288.76171875 309.1796875 C286.46874527 309.86076873 284.18138985 310.55662623 281.89453125 311.2578125 C280.3880832 311.71374778 278.88157234 312.1694756 277.375 312.625 C276.31744507 312.95274414 276.31744507 312.95274414 275.23852539 313.28710938 C271.76503171 314.32903576 268.66020563 315.03575024 265.02734375 315.41796875 C260.33760472 315.92298225 256.44435443 317.7422525 252.1875 319.6875 C245.4940782 322.62801643 238.79477829 325.20345818 231.8125 327.375 C231.04768311 327.61307373 230.28286621 327.85114746 229.49487305 328.09643555 C225.93841974 329.17839331 222.37884022 330.16874238 218.765625 331.04296875 C213.23309556 332.44905766 208.192793 334.6655581 203 337 C201.72237793 337.56750977 201.72237793 337.56750977 200.41894531 338.14648438 C180.72697372 345.8579388 180.72697372 345.8579388 166 360 C165.195625 360.12375 164.39125 360.2475 163.5625 360.375 C160.92144454 360.70096211 160.92144454 360.70096211 160 362.625 C159.67 363.40875 159.34 364.1925 159 365 C157.80117187 366.5159375 157.80117187 366.5159375 156.578125 368.0625 C153.55204345 372.23914565 152.65923066 376.36611326 151.75 381.375 C150.08170254 389.91829746 150.08170254 389.91829746 149 391 C148.65946838 393.50135955 148.37630098 395.98913805 148.125 398.5 C147.95167088 400.14595485 147.77712263 401.79178162 147.6015625 403.4375 C147.50649414 404.33082031 147.41142578 405.22414063 147.31347656 406.14453125 C146.75101451 411.26801734 146.12194564 416.38345534 145.5 421.5 C144.61922155 428.78878466 143.74755464 436.07798213 142.9375 443.375 C142.85814209 444.08857666 142.77878418 444.80215332 142.69702148 445.53735352 C142.28940331 449.24301162 141.90309363 452.94995711 141.5390625 456.66015625 C140.63944732 465.72779451 139.51800455 474.70159044 137.96508789 483.68334961 C137.25861228 487.86170021 136.96483075 491.75038245 137 496 C136.67009107 498.00056772 136.33666689 500.00055845 136 502 C135.58230919 510.02354896 136.01187243 517.61220179 137.66015625 525.4765625 C138.01343353 528.09974781 137.63648607 529.47626906 137 532 C136.76607147 548.29145116 140.11585107 563.68335716 145.34863281 579.04833984 C147.98348529 586.94302153 149.29510502 595.74370548 148 604 C146.63782518 606.23729295 145.29980946 607.74460676 143.3125 609.4375 C141.7924731 610.96554259 141.7924731 610.96554259 141.67578125 613.34765625 C142.04773757 616.39052784 142.92795543 618.64324882 144.1875 621.4375 C147.12095775 628.18528383 149.59364495 635.04923924 152 642 C152.27714844 642.79019531 152.55429688 643.58039062 152.83984375 644.39453125 C156.78344953 655.88427998 159.63563474 667.527298 162.13745117 679.40014648 C163.33341421 685.0510603 164.668832 690.61528691 166.1875 696.1875 C168.10970449 703.69178632 168.83758092 711.12149213 169.515625 718.82421875 C170.72564067 732.35554949 173.07211304 745.75644483 175.4375 759.125 C175.63061768 760.21941406 175.82373535 761.31382812 176.02270508 762.44140625 C177.63788768 771.39311595 179.50090404 780.28474587 181.40060425 789.17926025 C182.05108079 792.24038476 182.69216366 795.3033911 183.33227539 798.36669922 C184.54894265 804.1791608 185.79067503 809.9859077 187.04418945 815.79052734 C187.55836435 818.18935664 188.06514894 820.58978138 188.56469727 822.99169922 C191.94414793 840.52126568 191.94414793 840.52126568 199.6862793 856.40869141 C201.3971963 859.78346803 201.30729366 862.26338508 201 866 C199.6875 869.08984375 199.6875 869.08984375 198 871.9375 C197.443125 872.89527344 196.88625 873.85304688 196.3125 874.83984375 C195.879375 875.55269531 195.44625 876.26554687 195 877 C194.34 877 193.68 877 193 877 C185.60299598 902.55968775 193.9546873 939.71871471 201.05859375 964.7265625 C202.70305949 971.18349677 202.94399822 977.94025842 203.5 984.5625 C203.73522102 987.31419715 203.97490603 990.06545994 204.21875 992.81640625 C204.27901367 993.50199615 204.33927734 994.18758606 204.40136719 994.89395142 C204.81393609 999.41958374 205.38378312 1003.90304844 206.03125 1008.40234375 C208.1563187 1024.25294188 207.86458775 1038.24661365 205.125 1054 C202.97047593 1066.69778402 201.40922389 1079.11971757 201 1092 C200.91226318 1093.52173828 200.91226318 1093.52173828 200.82275391 1095.07421875 C200.52406537 1102.7587876 202.4226887 1109.64519511 204.5 1117 C205.1592038 1119.39502229 205.815595 1121.79082105 206.46875 1124.1875 C206.76201172 1125.23292969 207.05527344 1126.27835938 207.35742188 1127.35546875 C208 1130 208 1130 208 1133 C208.66 1133.33 209.32 1133.66 210 1134 C210.86505891 1136.98069212 211.5896292 1139.90907869 212.25 1142.9375 C212.46180908 1143.89317871 212.67361816 1144.84885742 212.8918457 1145.83349609 C217.29602278 1166.22692407 221.19268686 1186.88942776 222.81445312 1207.70361328 C223.15447126 1211.91178515 223.57972252 1216.11170761 224 1220.3125 C224.08282227 1221.14354248 224.16564453 1221.97458496 224.25097656 1222.83081055 C225.24304382 1232.6240706 226.25405447 1242.40653409 228.57421875 1251.98828125 C229.0053276 1254.02517169 229.2076716 1255.98840609 229.375 1258.0625 C229.85422507 1262.87953816 231.04895373 1267.45065039 232.2746582 1272.12646484 C233.38002495 1276.38981185 234.36993872 1280.66076899 235.26953125 1284.97265625 C235.48448242 1286.00052246 235.69943359 1287.02838867 235.92089844 1288.08740234 C236.3418455 1290.12133908 236.75550978 1292.15679954 237.16113281 1294.19384766 C238.75694379 1302.54404476 238.75694379 1302.54404476 244.34765625 1308.58984375 C245.24355469 1309.03457031 246.13945313 1309.47929688 247.0625 1309.9375 C250.7614333 1311.84036333 254.38336435 1313.77511326 257.9375 1315.9375 C268.84580208 1322.58320417 268.84580208 1322.58320417 280.125 1328.5625 C287.57817667 1332.23559664 294.25207473 1336.26295254 300.625 1341.625 C304.28186866 1344.69717998 307.64257669 1347.09335952 311.98046875 1349.0546875 C318.92319495 1352.30447423 325.28367665 1356.77384414 331.49609375 1361.2265625 C333.15297078 1362.40007603 334.83299082 1363.54163656 336.53515625 1364.6484375 C344.15380698 1369.66473612 352.16864349 1376.00289759 355 1385 C355.30078125 1387.0625 355.30078125 1387.0625 355.3125 1389 C355.32925781 1389.639375 355.34601563 1390.27875 355.36328125 1390.9375 C354.83246936 1393.95114169 353.89656721 1395.57179069 352 1398 C349.54516504 1399.69941646 346.94336778 1400.97212478 344.25 1402.25 C343.5590625 1402.600625 342.868125 1402.95125 342.15625 1403.3125 C335.18351249 1406.72022886 328.99853886 1407.31985778 321.3125 1406.3125 C320.5891748 1406.22218506 319.86584961 1406.13187012 319.12060547 1406.03881836 C301.08664152 1403.64796645 282.21781946 1399.94801876 265.5625 1392.453125 C262.05285023 1391.02155733 258.98214506 1390.3410637 255.25 1389.75 C249.03093074 1388.66605777 243.42392259 1386.75539927 237.5625 1384.4375 C229.66199424 1381.36226809 222.54339772 1379.84138812 214.05175781 1379.16943359 C210.27610305 1378.85764107 206.51436387 1378.42412531 202.75 1378 C202.03440918 1377.92869873 201.31881836 1377.85739746 200.58154297 1377.78393555 C197.00442889 1377.39463359 194.08568028 1376.90866821 191 1375 C191 1374.34 191 1373.68 191 1373 C190.34 1373 189.68 1373 189 1373 C182.23571445 1365.34669406 178.59347468 1355.80609417 179.04077148 1345.64868164 C179.59033726 1337.60088063 179.59033726 1337.60088063 180.55078125 1333.84765625 C181.12225722 1331.49715072 181.05826993 1329.35206015 181 1326.9375 C180.9254869 1323.84054943 181.00691998 1321.97924005 182 1319 C183.95433377 1306.22631333 179.13931153 1294.70001863 174.98510742 1282.83374023 C174.10067265 1280.28959292 173.2629711 1277.73557951 172.4375 1275.171875 C171.16296296 1271.32827454 169.57080684 1267.71370013 167.8125 1264.0625 C165 1258.21167883 165 1258.21167883 165 1256 C164.34 1256 163.68 1256 163 1256 C160.13821138 1249.36585366 160.13821138 1249.36585366 158.9375 1246.1875 C158.094782 1243.84718821 158.094782 1243.84718821 156 1242 C155.855625 1241.236875 155.71125 1240.47375 155.5625 1239.6875 C155.1505422 1236.97405306 155.1505422 1236.97405306 153.671875 1234.81640625 C151.65221914 1231.41413552 150.20405803 1227.89651191 148.6875 1224.25 C146.31735097 1218.66648806 143.77346353 1213.61147845 140.1640625 1208.69921875 C139 1207 139 1207 138 1204 C137.34 1203.34 136.68 1202.68 136 1202 C134.67737532 1199.38978705 133.41369937 1196.77995083 132.1875 1194.125 C131.83365234 1193.36356689 131.47980469 1192.60213379 131.11523438 1191.81762695 C123 1174.24755326 123 1174.24755326 123 1169 C122.34 1168.67 121.68 1168.34 121 1168 C115.32206805 1152.04501123 114.19604 1133.8411138 118.24609375 1117.484375 C120.19079726 1108.49641888 120.12346687 1099.60597986 120.0625 1090.4375 C120.05573242 1088.49520508 120.05573242 1088.49520508 120.04882812 1086.51367188 C120.03712601 1083.342399 120.02073113 1080.17122454 120 1077 C119.34 1076.67 118.68 1076.34 118 1076 C117.40234375 1073.84765625 117.40234375 1073.84765625 116.9375 1071.0625 C116.77121094 1070.07636719 116.60492187 1069.09023437 116.43359375 1068.07421875 C115.90926166 1064.35665701 115.58010397 1060.6446479 115.34375 1056.8984375 C115.2303125 1056.27195312 115.116875 1055.64546875 115 1055 C114.34 1054.67 113.68 1054.34 113 1054 C112.32421875 1052.14453125 112.32421875 1052.14453125 111.6875 1049.8125 C110.2578624 1045.18460097 108.21717795 1042.56498097 105 1039 C105 1038.34 105 1037.68 105 1037 C104.34 1036.67 103.68 1036.34 103 1036 C101.6495484 1033.77011523 100.39869519 1031.5542112 99.1875 1029.25 C98.83075195 1028.57404785 98.47400391 1027.8980957 98.10644531 1027.20166016 C91.85936496 1015.13433616 87.31994772 1002.08106756 84.75 988.73828125 C82.86732959 979.81705761 80.00472609 971.2659439 77.125 962.625 C76.34215626 960.25457446 75.56138279 957.88347582 74.78109741 955.51220703 C74.26767654 953.95316146 73.75289655 952.39456277 73.23672485 950.83642578 C71.76464043 946.3809476 70.34814876 941.91277722 68.9776001 937.42507935 C67.11730885 931.33949973 65.1050894 925.50936668 62.375 919.75 C58.85905322 912.07152817 56.52114542 904.40269315 55.4375 896 C55.03137014 893.21510952 54.43572524 891.39287541 53 889 C52.34 889 51.68 889 51 889 C49.71464829 887.50485526 48.49626194 885.95179881 47.3125 884.375 C44.90689066 881.27280234 42.68894471 878.56155264 39.5625 876.1875 C24.93722927 863.76101712 22.62496896 845.1906954 19.51171875 827.17431641 C18.4568466 821.20017753 16.56950212 816.17605577 13.875 810.75 C13.4819165 809.93732666 13.08883301 809.12465332 12.68383789 808.28735352 C9.54562568 801.88585314 6.09426727 795.70523791 2.43359375 789.58984375 C1 787 1 787 1 785 C0.34 785 -0.32 785 -1 785 C-1.33 784.34 -1.66 783.68 -2 783 C-2.66 783 -3.32 783 -4 783 C-4.66 783.99 -5.32 784.98 -6 786 C-6.66 786 -7.32 786 -8 786 C-8 786.66 -8 787.32 -8 788 C-8.66 788.33 -9.32 788.66 -10 789 C-10.33 789.99 -10.66 790.98 -11 792 C-11.63639404 792.62447021 -12.27278809 793.24894043 -12.9284668 793.89233398 C-20.21674566 801.30773898 -19.97570296 813.63910153 -20.6875 823.4375 C-20.81006478 824.9580182 -20.93377187 826.47844473 -21.05859375 827.9987793 C-21.70887209 836.09830668 -22.18999273 844.192414 -22.5 852.3125 C-23.23750309 870.51053022 -23.23750309 870.51053022 -28.375 877 C-29.24125 877.66 -30.1075 878.32 -31 879 C-31.763125 879.804375 -32.52625 880.60875 -33.3125 881.4375 C-42.29268293 890 -42.29268293 890 -46 890 C-46.33 890.99 -46.66 891.98 -47 893 C-47.66322266 893.65935547 -47.66322266 893.65935547 -48.33984375 894.33203125 C-51.31071831 897.31688639 -53.21390947 901.10951441 -55.37890625 904.69921875 C-55.91386719 905.45847656 -56.44882813 906.21773437 -57 907 C-57.66 907 -58.32 907 -59 907 C-59.2475 907.825 -59.495 908.65 -59.75 909.5 C-61 913 -61 913 -62.8125 916.44921875 C-65.55194591 921.86205478 -67.3677882 927.55781171 -69.25 933.3125 C-69.61351562 934.39595703 -69.97703125 935.47941406 -70.3515625 936.59570312 C-72.31970955 942.18363101 -72.31970955 942.18363101 -73 948 C-73.66 948 -74.32 948 -75 948 C-75.09539063 948.79792969 -75.19078125 949.59585938 -75.2890625 950.41796875 C-76.18543332 954.93429864 -77.71702962 959.02620771 -79.375 963.3125 C-79.72006592 964.21460205 -80.06513184 965.1167041 -80.4206543 966.04614258 C-83.73997086 974.58765665 -87.4285537 982.95932428 -91.22998047 991.29614258 C-94.00156851 997.43937899 -96.19959595 1003.51005013 -98 1010 C-98.65629516 1012.00342734 -99.31760646 1014.00531118 -100 1016 C-100.66 1016 -101.32 1016 -102 1016 C-102.20625 1016.78375 -102.4125 1017.5675 -102.625 1018.375 C-104.14386184 1022.37927213 -106.16372249 1025.70404406 -108.4140625 1029.33203125 C-110.44295774 1032.74517275 -112.1448221 1036.27568442 -113.82421875 1039.87109375 C-115 1042 -115 1042 -116.42578125 1043.40234375 C-121.83644844 1048.89356678 -125.13506437 1057.48763279 -127.27001953 1064.81054688 C-127.97881967 1066.93647317 -128.84439985 1068.78915095 -129.88671875 1070.76953125 C-135.95352623 1082.70013672 -138.86993647 1094.57766042 -139.82666016 1107.87890625 C-140.00697615 1110.08536453 -140.27026994 1112.27193029 -140.54296875 1114.46875 C-140.88743584 1117.39360013 -140.99749551 1120.16113191 -140.88671875 1123.1015625 C-140.81560808 1129.2868488 -142.18218312 1135.28365944 -143.39868164 1141.31933594 C-143.80991596 1143.36216363 -144.20775372 1145.40724968 -144.60351562 1147.453125 C-146.77864212 1158.56278046 -149.58957586 1169.27159772 -153.375 1179.9375 C-153.67809082 1180.79923828 -153.98118164 1181.66097656 -154.29345703 1182.54882812 C-156.35627012 1188.35300721 -158.5783329 1194.04600342 -161.0546875 1199.6875 C-161.91247319 1201.78588483 -162.51884762 1203.7887465 -163 1206 C-163.66 1206 -164.32 1206 -165 1206 C-165.27585937 1206.72832031 -165.55171875 1207.45664063 -165.8359375 1208.20703125 C-168.53268848 1214.67742371 -172.35905402 1220.35370554 -176.875 1225.6875 C-184.92691423 1235.50991162 -189.724309 1247.15060024 -194 1259 C-194.5693914 1260.44540411 -195.14254939 1261.88932808 -195.71875 1263.33203125 C-199.88480226 1273.92241117 -202.67326911 1284.35024121 -204.57373047 1295.56762695 C-204.87091136 1297.26339625 -205.19499165 1298.95457677 -205.53955078 1300.64135742 C-206.86612659 1307.25952291 -207.31236144 1313.56945483 -207.25 1320.3125 C-207.24830811 1321.31361816 -207.24661621 1322.31473633 -207.24487305 1323.34619141 C-207.18886831 1328.98764393 -206.7855413 1334.32080773 -205.8125 1339.875 C-204.8605584 1345.70564232 -204.84516752 1349.88534734 -208 1355 C-215.46064852 1364.88780273 -225.1766044 1368.55017202 -237.03808594 1370.6003418 C-241.91340988 1371.25818101 -246.77445536 1371.34032681 -251.6875 1371.4375 C-265.38359781 1371.87084074 -277.51289705 1374.17368521 -290.65234375 1378.15625 C-295.02393434 1379.25807447 -299.27469141 1379.57218227 -303.76953125 1379.7265625 C-304.50558594 1379.81679687 -305.24164062 1379.90703125 -306 1380 C-306.33 1380.66 -306.66 1381.32 -307 1382 C-309.04678031 1382.79212766 -311.13267795 1383.48388716 -313.23046875 1384.12890625 C-313.85850906 1384.32346909 -314.48654938 1384.51803192 -315.13362122 1384.7184906 C-316.46662169 1385.12970017 -317.80078569 1385.53715365 -319.13598633 1385.94116211 C-321.16443157 1386.55551331 -323.18881734 1387.18196036 -325.21289062 1387.81054688 C-335.14436693 1390.86137448 -344.13723603 1392.21767749 -354.5 1392.625 C-355.61503906 1392.6765625 -356.73007812 1392.728125 -357.87890625 1392.78125 C-358.96042969 1392.82507812 -360.04195312 1392.86890625 -361.15625 1392.9140625 C-362.13400391 1392.9548291 -363.11175781 1392.9955957 -364.11914062 1393.03759766 C-367.16926393 1392.99779096 -369.99748282 1392.50732553 -373 1392 C-373.66 1392.20625 -374.32 1392.4125 -375 1392.625 C-377 1393 -377 1393 -380.0625 1392.125 C-384.24719867 1389.09777117 -384.76500994 1385.85058596 -386 1381 C-386.4125 1379.824375 -386.825 1378.64875 -387.25 1377.4375 C-388.90509721 1369.85163781 -386.9469752 1364.81422993 -382.87109375 1358.4609375 C-378.46066454 1352.66016422 -373.21184507 1348.6186109 -366.88061523 1345.09814453 C-362.85386279 1342.74680966 -359.10522126 1339.94908937 -355.3125 1337.2421875 C-344.97828741 1330.00010151 -333.4697486 1324.61529007 -322.22851562 1318.94335938 C-316.22900823 1315.86412977 -310.70066917 1312.53758094 -305.23999023 1308.58227539 C-302.20905371 1306.44129451 -299.07503409 1304.70580099 -295.8125 1302.9375 C-286.68512353 1297.82729905 -281.50181797 1292.8362531 -276 1284 C-275.24657069 1282.86123672 -274.48983567 1281.72465625 -273.73046875 1280.58984375 C-272.92425288 1279.37254567 -272.11826322 1278.15509775 -271.3125 1276.9375 C-270.93174316 1276.37224609 -270.55098633 1275.80699219 -270.15869141 1275.22460938 C-265.66933925 1268.34713556 -263.63020569 1261.18582678 -262.0625 1253.1875 C-261.7204391 1251.49601544 -261.37798041 1249.80461128 -261.03515625 1248.11328125 C-260.86387207 1247.25943848 -260.69258789 1246.4055957 -260.51611328 1245.52587891 C-260.03090813 1243.15126564 -259.5201735 1240.78426824 -258.99609375 1238.41796875 C-256.77879277 1228.35216069 -255.0221291 1218.25810655 -253.43188477 1208.07470703 C-252.12002634 1199.67751743 -250.6686641 1191.33394596 -249 1183 C-248.81179688 1181.94683594 -248.62359375 1180.89367188 -248.4296875 1179.80859375 C-246.05259263 1167.78771528 -240.91032333 1155.72925173 -235 1145 C-234.34 1144.67 -233.68 1144.34 -233 1144 C-232.89300781 1143.30648438 -232.78601562 1142.61296875 -232.67578125 1141.8984375 C-231.72974139 1137.84085613 -229.55868605 1135.00368571 -227.1875 1131.625 C-220.98542162 1122.66340657 -215.32375729 1114.15933985 -214.5625 1103 C-214.13761675 1097.67261767 -212.32576906 1093.75329052 -210 1089 C-208.92064876 1086.63082402 -207.85855937 1084.25861768 -206.8125 1081.875 C-206.30332031 1080.73804688 -205.79414062 1079.60109375 -205.26953125 1078.4296875 C-203.08157138 1072.51882977 -202.8726764 1066.69913904 -202.8671875 1060.44140625 C-202.86623077 1059.73459213 -202.86527405 1059.02777802 -202.86428833 1058.29954529 C-202.86361148 1056.80785025 -202.86543106 1055.31615218 -202.86962891 1053.82446289 C-202.87491167 1051.59970032 -202.86970475 1049.37514641 -202.86328125 1047.15039062 C-202.85677357 1034.64262164 -203.31179689 1022.16446011 -204.9375 1009.75 C-205.02249756 1009.09290039 -205.10749512 1008.43580078 -205.19506836 1007.75878906 C-205.72716006 1003.73854064 -206.36553682 999.74453522 -207.0625 995.75 C-210.65107431 974.95322292 -210.65107431 974.95322292 -208 967 C-207.74843168 964.90629655 -207.53842257 962.80749884 -207.3515625 960.70703125 C-207.17717651 958.81452637 -207.17717651 958.81452637 -206.99926758 956.88378906 C-206.93865143 956.21899536 -206.87803528 955.55420166 -206.81558228 954.8692627 C-204.70901917 932.13524711 -199.51991309 911.6364129 -192.33203125 889.94921875 C-192.09274902 889.21638672 -191.8534668 888.48355469 -191.60693359 887.72851562 C-190.98752219 885.84001114 -190.35188523 883.95684931 -189.71484375 882.07421875 C-188.76148587 877.97425892 -189.1654086 875.53948279 -191.15625 871.8671875 C-191.5996875 871.20976563 -192.043125 870.55234375 -192.5 869.875 C-196.42192079 864.01492068 -196.84605464 858.52198383 -195.55957031 851.64599609 C-194.97194464 849.30582853 -194.31811318 846.99852624 -193.625 844.6875 C-193.40328125 843.90310547 -193.1815625 843.11871094 -192.953125 842.31054688 C-191.27445255 836.49937784 -191.27445255 836.49937784 -189.98803711 834.15869141 C-185.51905201 824.39472642 -186.7118868 810.87432338 -186.59463501 800.34234619 C-186.32639755 779.22520596 -184.61011149 760.80713949 -177 741 C-175.35422996 736.2203307 -173.98007805 731.74053382 -173.625 726.6875 C-172.5780303 714.98607396 -165.62401088 703.22423134 -160.94140625 692.59765625 C-158.21582503 686.16257031 -156.31429514 679.51010699 -154.3581543 672.81152344 C-152.69694491 667.16999575 -150.84196653 661.64354625 -148.8125 656.125 C-143.60581533 642.79627769 -143.60581533 642.79627769 -144 629 C-144.96873032 627.64377755 -145.96434215 626.30582947 -147 625 C-147 624.34 -147 623.68 -147 623 C-147.59554687 622.92394531 -148.19109375 622.84789062 -148.8046875 622.76953125 C-151.75585057 621.73504882 -152.48389759 620.31240464 -154.125 617.6875 C-154.62257813 616.90761719 -155.12015625 616.12773438 -155.6328125 615.32421875 C-156.30957031 614.17373047 -156.30957031 614.17373047 -157 613 C-157.57621094 612.04673828 -157.57621094 612.04673828 -158.1640625 611.07421875 C-161.96266028 601.64872614 -158.15314036 587.85343239 -156.26513672 578.26977539 C-154.09549174 567.24565906 -153.34380447 556.40041984 -152.9375 545.1875 C-152.53741429 534.64720675 -152.10424319 524.36895522 -150 514 C-142.27585872 479.46631521 -142.27585872 479.46631521 -146 446 C-146.16099089 444.35729665 -146.27793953 442.7102171 -146.375 441.0625 C-147.44154506 427.78640179 -149.23566587 415.59630337 -154.59765625 403.3515625 C-155.85537528 400.34564905 -156.70338669 397.53943875 -157.4375 394.375 C-158.85894365 388.61121934 -161.64280734 383.75651973 -164.57421875 378.65234375 C-166 376 -166 376 -166 374 C-166.66 374 -167.32 374 -168 374 C-169.22460139 372.22612887 -170.37851488 370.40329833 -171.5 368.5625 C-175.00234532 363.14341661 -178.73702174 359.26975566 -183.68359375 355.0859375 C-186.43715261 352.6063415 -188.44744445 349.92654785 -190.5703125 346.91015625 C-192.59042648 344.2111515 -194.92318721 341.92395602 -197.35546875 339.59765625 C-199 338 -199 338 -201.375 335.25 C-207.12336377 330.32283105 -214.46950679 329.69859808 -221.73828125 328.5859375 C-225.16793154 327.96983266 -228.4551302 327.11906765 -231.8125 326.1875 C-238.43661993 324.36039254 -245.09594831 322.82468131 -251.8125 321.375 C-253.24396362 321.06598755 -253.24396362 321.06598755 -254.7043457 320.75073242 C-259.23681036 319.78103419 -263.77216724 318.84969857 -268.32421875 317.9765625 C-272.00861088 317.24881713 -275.44004422 316.20375962 -279 315 C-280.5002329 314.64802095 -282.00468975 314.31382642 -283.51171875 313.9921875 C-292.88085994 311.98620009 -301.78430478 309.61539325 -310.625 305.875 C-311.82322388 305.37009033 -311.82322388 305.37009033 -313.0456543 304.85498047 C-319.77003291 301.89417561 -319.77003291 301.89417561 -322 299 C-321.71294283 294.55061393 -320.881998 290.3643694 -320 286 C-322.76825188 284.82685974 -325.53928486 283.66129785 -328.3125 282.5 C-329.09818359 282.16613281 -329.88386719 281.83226562 -330.69335938 281.48828125 C-331.45068359 281.17246094 -332.20800781 280.85664062 -332.98828125 280.53125 C-333.68477783 280.23798828 -334.38127441 279.94472656 -335.09887695 279.64257812 C-337.13921072 278.8398984 -337.13921072 278.8398984 -340 279 C-340 278.34 -340 277.68 -340 277 C-340.59425781 276.82984375 -341.18851563 276.6596875 -341.80078125 276.484375 C-346.34481124 275.15579392 -350.77663574 273.72195902 -355.1875 272 C-360.75855608 269.9217195 -366.37920172 268.82966217 -372.2265625 267.80859375 C-381.33010898 265.85783379 -388.92268135 262.10464702 -396.99487305 257.52978516 C-398.82209433 256.49456429 -400.65549406 255.47104376 -402.49023438 254.44921875 C-413.12548452 248.48914657 -413.12548452 248.48914657 -416 246 C-416 245.34 -416 244.68 -416 244 C-416.56203125 243.731875 -417.1240625 243.46375 -417.703125 243.1875 C-420.15550646 241.9196021 -422.43927683 240.51027658 -424.75 239 C-425.54921875 238.484375 -426.3484375 237.96875 -427.171875 237.4375 C-427.77515625 236.963125 -428.3784375 236.48875 -429 236 C-429 235.34 -429 234.68 -429 234 C-429.54527344 233.73960937 -430.09054687 233.47921875 -430.65234375 233.2109375 C-433.37685598 231.80561505 -435.95432622 230.23683099 -438.5625 228.625 C-439.3963623 228.11042236 -439.3963623 228.11042236 -440.24707031 227.58544922 C-443.6725284 225.46470676 -447.08071915 223.31794887 -450.48046875 221.15625 C-461.49339771 214.15454716 -472.57941799 207.30363934 -483.95361328 200.90014648 C-486.5896579 199.41527725 -489.0252324 197.97941567 -491.375 196.0625 C-494.23689666 193.81386691 -497.17654977 192.19705466 -500.3671875 190.46484375 C-512.86060115 183.51376049 -524.82005435 175.44608454 -536.4375 167.125 C-539.83642468 164.71883055 -543.21840755 162.79957574 -546.984375 161.0390625 C-550.17965791 159.39188177 -553.0770209 157.3266845 -556.01953125 155.26953125 C-558.07175611 153.83955537 -558.07175611 153.83955537 -561 153 C-561 152.34 -561 151.68 -561 151 C-561.61746094 150.84144531 -562.23492188 150.68289063 -562.87109375 150.51953125 C-569.18195558 148.78092243 -574.41570641 146.37571445 -580 143 C-582.08004038 141.74452806 -584.16352241 140.49474458 -586.25 139.25 C-587.22453125 138.65703125 -588.1990625 138.0640625 -589.203125 137.453125 C-591.8763559 136.06423967 -594.03432419 135.4112981 -597 135 C-597 134.34 -597 133.68 -597 133 C-598.00353516 132.92652344 -598.00353516 132.92652344 -599.02734375 132.8515625 C-602.35401572 132.59257327 -605.67651218 132.29711014 -609 132 C-609.6796582 131.94618164 -610.35931641 131.89236328 -611.05957031 131.83691406 C-620.58609278 131.06590607 -628.51925445 129.7990396 -637 125 C-637 124.34 -637 123.68 -637 123 C-637.57105469 122.731875 -638.14210938 122.46375 -638.73046875 122.1875 C-646.76862317 117.98164984 -652.53606925 111.85135087 -657 104 C-657 103.34 -657 102.68 -657 102 C-657.556875 101.773125 -658.11375 101.54625 -658.6875 101.3125 C-662.96311877 98.88579746 -666.13916819 95.56749627 -668 91 C-668.66 91 -669.32 91 -670 91 C-673.65497635 86.9886889 -677.25365301 82.12989429 -679 77 C-678.58105469 75.93265625 -678.16210938 74.8653125 -677.73046875 73.765625 C-676.66622667 70.25184402 -676.66622667 70.25184402 -677.84619141 68.18579102 C-679.24819776 66.29696975 -680.73088767 64.55360265 -682.3125 62.8125 C-683.35585075 61.61552706 -684.39382935 60.41384535 -685.42578125 59.20703125 C-685.89411377 58.6860083 -686.36244629 58.16498535 -686.8449707 57.62817383 C-688.19995772 55.71813188 -688.71374353 54.32280747 -689 52 C-688.505 50.989375 -688.01 49.97875 -687.5 48.9375 C-685.84424078 45.52295655 -686.04058577 43.16690651 -686.5625 39.4375 C-687.06166572 35.66255926 -687.24240307 33.50666353 -685.0625 30.3125 C-684.381875 29.549375 -683.70125 28.78625 -683 28 C-677.50316359 28.47386521 -673.93621051 29.41970814 -669 32 C-667.68 32 -666.36 32 -665 32 C-664.29875 31.154375 -663.5975 30.30875 -662.875 29.4375 C-659.75663092 26.79366534 -659.48801596 26.63193088 -655.6875 26.9375 C-653.78382252 27.2467412 -651.88835187 27.60789636 -650 28 C-648.12634766 28.36158203 -648.12634766 28.36158203 -646.21484375 28.73046875 C-637.04750364 30.65786989 -629.88628108 33.84749419 -622 39 C-613.84500433 44.15669474 -605.5721104 48.87287041 -596.875 53.0625 C-596.06925537 53.45679199 -595.26351074 53.85108398 -594.43334961 54.25732422 C-588.97100238 56.89479525 -588.97100238 56.89479525 -583 57 C-574.11853064 49.14331556 -573.99223458 27.75974176 -572.625 16.63671875 C-571.94446146 13.76569679 -570.92577682 12.20313054 -569 10 C-565.42441786 10.24378969 -563.52458473 10.5062732 -560.875 13 C-558.46630575 16.85391081 -556.73412769 20.80863347 -555 25 C-554.45279297 26.17949219 -554.45279297 26.17949219 -553.89453125 27.3828125 C-550.97322393 33.94257118 -550.34252833 39.8790164 -550 47 C-549.8130812 48.89589072 -549.6255531 50.79172145 -549.4375 52.6875 C-549.04765676 57.20089637 -549.02325861 61.57226682 -549.18359375 66.1015625 C-549.22818726 67.75345581 -549.22818726 67.75345581 -549.27368164 69.4387207 C-549.34006835 71.64931806 -549.4358543 73.85927252 -549.56420898 76.06713867 C-549.7161531 81.73135111 -549.47148464 85.19103615 -545.69140625 89.58203125 C-543.42710046 91.81926284 -541.01918652 93.85280966 -538.5625 95.875 C-537.716875 96.57625 -536.87125 97.2775 -536 98 C-536 98.66 -536 99.32 -536 100 C-535.14277344 100.23976563 -534.28554688 100.47953125 -533.40234375 100.7265625 C-529.67705051 102.12087432 -526.76155961 104.07941991 -523.5625 106.375 C-503.82321036 120.00175337 -481.02514446 129.52687374 -459.13671875 139.1640625 C-455.54690869 140.74840584 -451.98940083 142.39465091 -448.4375 144.0625 C-442.86276523 146.65377119 -437.2125011 149.01316514 -431.51416016 151.31567383 C-427.92410274 152.7718964 -424.36823253 154.26817578 -420.8515625 155.89453125 C-405.94986144 162.77044836 -391.39148657 164.86580221 -375.06005859 165.28955078 C-356.76047392 165.79032128 -340.90497096 168.7755766 -323.48046875 174.3046875 C-318.91703419 175.74328961 -314.34462717 176.9717052 -309.6875 178.0625 C-304.01638645 179.42636492 -298.52450499 181.06862413 -293 182.9375 C-292.24638184 183.19031738 -291.49276367 183.44313477 -290.71630859 183.70361328 C-287.07011373 184.93419423 -283.44305119 186.20100957 -279.83203125 187.53125 C-271.52774487 190.49020257 -265.06831972 191.25299553 -256.25390625 190.26953125 C-252.79674897 189.98316408 -250.48703952 190.35776585 -247.25404358 191.43693542 C-237.80248065 193.79795467 -227.22468352 193.1585609 -217.53515625 193.16796875 C-216.29994736 193.17129715 -215.06473846 193.17462555 -213.792099 193.17805481 C-211.19465502 193.18308046 -208.59720469 193.1854645 -205.99975586 193.18530273 C-202.10323967 193.18747726 -198.20701276 193.20564787 -194.31054688 193.22460938 C-181.7982521 193.25196246 -169.4663328 192.9622513 -157.01277161 191.72447205 C-148.68490602 190.90926974 -140.42509311 190.69313575 -132.06103516 190.73925781 C-129.70580486 190.75020543 -127.35130481 190.73913394 -124.99609375 190.7265625 C-112.71188066 190.71190927 -102.20723636 192.02024776 -90.875 196.9375 C-90.02679687 197.28490234 -89.17859375 197.63230469 -88.3046875 197.99023438 C-83.68392085 199.95628172 -83.68392085 199.95628172 -82 201 C-81.67 201.99 -81.34 202.98 -81 204 C-76.89555059 204.41044494 -74.46781425 204.23390713 -70.75 202.375 C-64.28420471 196.06479872 -64.85076307 184.81963728 -64.69995117 176.40283203 C-64.66480485 167.67965322 -64.98209386 158.99712854 -65.8125 150.3125 C-65.88235107 149.54139893 -65.95220215 148.77029785 -66.02416992 147.97583008 C-66.51013087 143.66794345 -67.22905218 140.39246883 -70 137 C-71.8789196 136.13055591 -71.8789196 136.13055591 -73.9375 135.9375 C-77.8206334 135.39131746 -79.5854849 134.11982122 -82 131 C-84.67390839 121.64132062 -84.95170339 110.31812247 -82 101 C-79.75344496 98.846013 -77.76986436 97.38493218 -75 96 C-75.268125 95.360625 -75.53625 94.72125 -75.8125 94.0625 C-79.59519052 84.30714024 -81.33280721 75.61544966 -80.83984375 65.10546875 C-80.89158343 62.90141828 -80.89158343 62.90141828 -82.01171875 60.67578125 C-83.27336265 57.25986794 -83.11706419 54.62315435 -82.875 51 C-82.81054688 49.80375 -82.74609375 48.6075 -82.6796875 47.375 C-81.90224163 43.51457914 -80.54714831 41.9318992 -78 39 C-77.02386713 36.69102396 -77.02386713 36.69102396 -76.4375 34.375 C-75.51073706 31.00181313 -74.5357553 29.38387412 -72 27 C-71.2884375 25.5459375 -71.2884375 25.5459375 -70.5625 24.0625 C-68.99777321 20.99563549 -67.48319966 19.33270271 -65 17 C-64.443125 16.175 -63.88625 15.35 -63.3125 14.5 C-60.48828113 11.44679041 -57.75953249 10.36905096 -53.92578125 8.89453125 C-51.82027453 8.15953816 -51.82027453 8.15953816 -51 6 C-48.9609375 5.4375 -48.9609375 5.4375 -46.375 5 C-43.33071613 4.45314844 -40.52612657 3.85353003 -37.5625 2.9375 C-31.91746555 1.45196462 -25.62620412 0.12459863 -20 2 C-19.34 1.34 -18.68 0.68 -18 0 C-15.6875 -0.16015625 -15.6875 -0.16015625 -13 -0.0625 C-8.17765465 0.09871213 -4.85676459 -0.99117645 0 0 Z " fill="#E9E7E8" transform="translate(1278,309)"/>
<path d="M0 0 C0.33 0 0.66 0 1 0 C1.13277344 1.02480469 1.26554687 2.04960938 1.40234375 3.10546875 C1.58064088 4.4661574 1.75903123 5.82683385 1.9375 7.1875 C2.02451172 7.86103516 2.11152344 8.53457031 2.20117188 9.22851562 C2.58333366 12.13011439 2.98943787 14.95721442 3.69140625 17.80078125 C4 20 4 20 2 23 C0.64290496 15.26940505 -0.31918373 7.85546636 0 0 Z " fill="#8D8B8C" transform="translate(1394,1440)"/>
<path d="M0 0 C0.66 0 1.32 0 2 0 C1.34 4.95 0.68 9.9 0 15 C-0.99 14.67 -1.98 14.34 -3 14 C-2.09276387 9.31261335 -1.0452733 4.65806256 0 0 Z " fill="#D0CECF" transform="translate(1481,1360)"/>
<path d="M0 0 C0.86625 0.3403125 0.86625 0.3403125 1.75 0.6875 C0.75 3.6875 0.75 3.6875 -2.3125 5.375 C-3.281875 5.808125 -4.25125 6.24125 -5.25 6.6875 C-5.58 5.3675 -5.91 4.0475 -6.25 2.6875 C-2.80384615 -0.38942308 -2.80384615 -0.38942308 0 0 Z " fill="#BCBABB" transform="translate(1629.25,1703.3125)"/>
<path d="M0 0 C2.38906903 2.38906903 2.28533681 3.16925296 2.5 6.4375 C2.73068183 9.93809684 2.96150563 10.94225845 5 14 C4.01 14 3.02 14 2 14 C-0.3992233 9.35150485 -0.19957409 5.08913926 0 0 Z " fill="#B8B6B7" transform="translate(1082,1163)"/>
<path d="M0 0 C0.66 0.33 1.32 0.66 2 1 C0.88266271 2.50571657 -0.24410035 4.00444292 -1.375 5.5 C-2.00148438 6.3353125 -2.62796875 7.170625 -3.2734375 8.03125 C-3.84320312 8.6809375 -4.41296875 9.330625 -5 10 C-5.66 10 -6.32 10 -7 10 C-7 7 -7 7 -5.75 5.5625 C-5.1725 5.046875 -4.595 4.53125 -4 4 C-2.9171875 2.9171875 -2.9171875 2.9171875 -1.8125 1.8125 C-1.214375 1.214375 -0.61625 0.61625 0 0 Z " fill="#CBC9CA" transform="translate(1437,671)"/>
<path d="M0 0 C0.33 0 0.66 0 1 0 C1.2226746 1.43534841 1.42761906 2.87345525 1.625 4.3125 C1.74101563 5.11300781 1.85703125 5.91351562 1.9765625 6.73828125 C2 9 2 9 0 12 C-1 11 -1 11 -1.1328125 9.00390625 C-1.13023438 8.19824219 -1.12765625 7.39257812 -1.125 6.5625 C-1.12757812 5.75941406 -1.13015625 4.95632813 -1.1328125 4.12890625 C-1 2 -1 2 0 0 Z " fill="#EFEDEE" transform="translate(1252,1153)"/>
<path d="M0 0 C0.66 0.66 1.32 1.32 2 2 C1.7578125 4.3828125 1.7578125 4.3828125 1.125 7.125 C0.92132812 8.03507812 0.71765625 8.94515625 0.5078125 9.8828125 C0.34023437 10.58148437 0.17265625 11.28015625 0 12 C-0.66 12 -1.32 12 -2 12 C-1.85962479 10.18706911 -1.71255111 8.3746557 -1.5625 6.5625 C-1.48128906 5.55316406 -1.40007812 4.54382812 -1.31640625 3.50390625 C-1 1 -1 1 0 0 Z " fill="#C8C6C7" transform="translate(1094,1077)"/>
<path d="M0 0 C3.74281699 2.38179263 6.97727468 4.74475735 10 8 C6.63347283 7.39883443 4.54372667 6.28935401 2 4 C0.75 1.8125 0.75 1.8125 0 0 Z " fill="#A7A5A6" transform="translate(1568,1643)"/>
<path d="M0 0 C2.0625 0.4375 2.0625 0.4375 4 1 C2.47005208 2.23697917 0.94010417 3.47395833 -0.58984375 4.7109375 C-2.13266437 5.9666391 -2.13266437 5.9666391 -3 8 C-3.66 7.67 -4.32 7.34 -5 7 C-1.125 1.125 -1.125 1.125 0 0 Z " fill="#BEBCBD" transform="translate(1217,321)"/>
<path d="M0 0 C-0.33 0.66 -0.66 1.32 -1 2 C-4.47325181 3.1577506 -7.36067448 3.06866652 -11 3 C-6.86621405 0.2441427 -4.94796454 -0.10756445 0 0 Z " fill="#C1BFC0" transform="translate(1255,310)"/>
<path d="M0 0 C0.99 0 1.98 0 3 0 C4.53166168 4.08443115 3.63081652 7.79455657 3 12 C0.60926555 8.17482487 0.44033448 4.40334476 0 0 Z " fill="#979596" transform="translate(1459,1610)"/>
<path d="M0 0 C0.66 0.33 1.32 0.66 2 1 C0.02 3.31 -1.96 5.62 -4 8 C-4.33 6.68 -4.66 5.36 -5 4 C-3.35 2.68 -1.7 1.36 0 0 Z " fill="#BEBCBD" transform="translate(1201,406)"/>
<path d="M0 0 C3 2 3 2 3.6875 5.125 C3.8421875 6.548125 3.8421875 6.548125 4 8 C3.01 8.495 3.01 8.495 2 9 C1.34 6.03 0.68 3.06 0 0 Z " fill="#CAC8C9" transform="translate(1476,1273)"/>
<path d="M0 0 C4.95 0.99 4.95 0.99 10 2 C9.34 2.66 8.68 3.32 8 4 C5.64828869 3.40138258 3.3140622 2.73075648 1 2 C0.67 1.34 0.34 0.68 0 0 Z " fill="#C3C1C2" transform="translate(1494,522)"/>
<path d="M0 0 C0.66 0 1.32 0 2 0 C2 1.32 2 2.64 2 4 C0.02 4.99 -1.96 5.98 -4 7 C-2.79618552 4.50638429 -1.54571278 2.31856917 0 0 Z " fill="#BFBDBE" transform="translate(1004,1590)"/>
<path d="M0 0 C2.0625 0.4375 2.0625 0.4375 4 1 C2.71034824 2.37562854 1.37310707 3.70766393 0 5 C-0.66 5 -1.32 5 -2 5 C-1.125 1.125 -1.125 1.125 0 0 Z " fill="#C6C4C5" transform="translate(1619,596)"/>
<path d="" fill="#747273" transform="translate(0,0)"/>
<path d="" fill="#747273" transform="translate(0,0)"/>
</svg>
